{"glyphs":{"0":{"ha":991,"x_min":21,"x_max":953,"o":"m 578 -5 q 328 35 404 -1 q 180 145 237 87 q 67 323 119 201 q 30 749 41 414 q 21 1272 21 966 q 41 1999 26 1749 q 123 2403 60 2240 q 241 2547 182 2513 q 496 2618 338 2610 q 800 2487 699 2608 q 894 2244 872 2385 q 928 1984 914 2138 l 925 1984 l 937 1863 q 945 1217 953 1560 q 939 923 937 948 q 911 468 925 661 q 869 215 900 345 q 777 68 861 179 q 578 -5 679 -5 m 606 490 q 637 1018 623 617 q 635 1217 636 1082 q 637 1382 634 1351 q 583 2208 627 2091 q 535 2256 562 2257 q 444 2043 487 2260 q 430 1511 433 1923 q 435 1393 433 1393 l 438 989 q 467 629 438 906 q 521 387 480 512 q 547 340 543 340 l 549 340 q 606 490 571 340 z "},"1":{"ha":757,"x_min":20,"x_max":743,"o":"m 725 2293 q 736 2172 743 2258 q 731 2096 734 2163 l 734 2083 q 731 2056 731 2068 l 731 2037 q 728 2034 731 2034 l 731 2028 l 731 2026 q 728 2023 731 2023 q 731 2015 731 2018 q 723 1925 731 1973 q 726 1839 726 1881 l 726 1836 q 723 1833 726 1833 q 726 1830 723 1830 q 720 1771 720 1782 q 723 1727 723 1743 l 720 1727 q 723 1725 720 1725 q 718 1689 721 1689 l 720 1673 q 723 1586 720 1650 l 720 1586 l 723 1581 l 723 1575 q 720 1573 723 1573 l 723 1567 l 723 1548 q 726 1527 723 1537 q 718 1470 720 1470 l 720 1464 l 720 1410 q 718 1407 720 1407 l 720 1402 l 720 1377 q 718 1339 720 1362 q 720 1337 718 1337 q 712 1236 712 1260 l 712 1231 q 715 1220 712 1225 q 712 1217 715 1217 l 715 1198 l 715 1193 q 712 1182 715 1187 l 715 1177 q 712 1141 712 1154 q 715 1133 712 1139 q 709 1074 709 1110 q 715 1036 715 1044 l 715 1003 q 701 745 707 902 q 704 743 701 743 q 699 713 701 713 l 701 707 l 696 699 l 696 626 q 693 623 696 623 q 696 621 693 621 q 692 557 693 607 q 688 507 690 507 q 690 504 688 504 q 685 479 688 486 l 690 422 l 688 422 q 690 420 688 420 l 688 406 q 690 357 688 395 l 688 357 l 690 352 l 690 300 q 693 205 690 269 l 690 205 q 696 178 694 201 q 693 143 696 177 q 696 135 693 140 q 693 111 693 120 l 693 102 q 696 92 693 96 q 674 64 696 74 q 663 70 663 66 q 636 64 659 67 l 617 67 q 566 56 608 63 l 566 59 q 519 48 552 54 l 514 51 q 481 43 484 43 q 170 -25 374 43 l 167 -20 l 167 -17 q 172 -6 172 -10 l 170 -1 q 180 26 176 25 q 178 35 178 32 q 194 113 183 96 l 191 119 q 208 265 200 140 q 216 298 212 265 l 213 303 q 227 368 224 368 q 224 371 227 371 q 232 463 232 410 q 229 485 232 470 q 248 715 248 613 q 264 870 264 800 l 262 884 l 270 935 q 267 984 267 973 l 270 989 l 267 995 q 270 998 267 998 q 267 1006 270 1000 l 278 1103 l 275 1109 q 281 1147 281 1129 l 281 1152 q 278 1166 281 1161 l 281 1182 l 281 1220 l 278 1234 l 281 1234 l 278 1239 l 281 1263 q 278 1272 281 1266 q 286 1339 286 1309 l 286 1367 q 283 1377 286 1373 q 289 1394 289 1386 l 289 1410 q 286 1421 289 1416 q 289 1432 289 1426 l 289 1448 q 134 1448 258 1448 q 20 1442 72 1445 q 80 1665 20 1473 q 121 1792 119 1752 q 148 1874 134 1807 q 178 1985 155 1879 q 194 2050 187 1985 l 194 2056 q 191 2066 194 2062 q 227 2267 208 2131 q 403 2262 281 2270 q 500 2270 460 2262 q 725 2293 581 2283 z "},"2":{"ha":1112,"x_min":16,"x_max":1078,"o":"m 708 2601 q 906 2563 831 2588 q 958 2542 912 2553 q 1028 2376 1028 2504 q 1031 2352 1031 2376 l 1028 2352 l 1031 2346 l 1031 2338 q 1028 2336 1031 2336 q 1034 2300 1031 2333 l 1031 2300 q 1034 2292 1034 2295 q 1036 2230 1034 2266 q 1034 2195 1034 2212 q 1039 2178 1039 2186 l 1039 2173 q 1036 2170 1039 2170 l 1039 2165 l 1036 2151 l 1039 2146 l 1036 2135 q 1042 2091 1039 2094 l 1036 2032 q 1039 2029 1036 2029 q 1034 1980 1036 1988 q 1036 1969 1036 1976 l 1036 1950 l 1028 1883 q 1031 1869 1031 1878 l 1031 1864 q 1028 1861 1031 1861 l 1031 1855 l 1031 1842 q 1028 1839 1031 1839 q 1031 1836 1028 1836 q 1028 1826 1031 1835 q 1031 1812 1028 1817 q 1025 1701 1028 1790 l 1023 1701 l 1025 1695 q 1020 1600 1023 1619 l 1023 1595 q 1017 1581 1017 1586 l 1020 1568 q 985 1438 1006 1468 q 960 1386 985 1417 l 895 1261 q 825 1153 884 1261 l 798 1118 q 781 1099 781 1107 l 711 1015 q 651 949 663 974 q 586 898 640 949 q 548 871 579 898 q 469 827 536 871 q 437 808 444 819 l 442 808 q 469 811 446 808 l 469 808 q 515 819 489 811 l 529 817 l 553 819 l 553 817 q 662 833 644 825 q 665 830 665 833 l 684 833 l 700 833 q 787 838 759 833 q 798 836 791 836 l 808 841 q 817 838 814 838 l 822 841 l 827 838 q 838 841 832 841 q 841 838 841 841 l 846 841 q 857 838 852 841 q 930 849 922 849 l 936 846 q 1066 860 1032 854 l 1069 854 l 1069 838 q 1063 817 1063 819 l 1063 757 q 1047 572 1053 677 l 1044 572 q 1050 515 1050 539 l 1047 515 l 1050 510 l 1050 469 q 1053 439 1050 458 l 1050 434 q 1053 423 1053 429 l 1053 420 q 1050 418 1053 418 l 1053 412 l 1053 401 l 1050 385 q 1055 353 1055 375 q 1053 320 1055 339 q 1063 214 1061 256 q 1061 203 1061 210 q 1069 149 1066 188 l 1063 146 l 1066 141 q 1063 133 1066 138 q 1072 73 1066 101 q 1066 49 1066 53 q 1078 -16 1072 49 q 860 30 897 30 l 836 30 q 830 35 830 30 l 825 33 q 817 35 822 33 l 803 33 q 578 49 735 43 q 334 35 433 43 q 31 -22 91 13 q 27 52 26 24 q 33 81 29 81 q 30 84 33 84 q 38 136 35 130 l 35 141 q 41 195 41 180 l 38 209 q 52 260 42 209 q 49 263 52 263 l 57 363 q 54 372 57 366 q 57 401 57 390 l 57 458 q 60 461 57 461 q 57 464 60 464 q 60 518 60 500 l 60 551 q 65 594 65 590 q 62 602 65 597 l 65 616 l 62 629 q 65 648 65 640 q 62 656 65 651 q 65 659 62 659 q 62 681 62 674 q 68 730 62 685 q 62 849 68 779 q 65 857 65 854 q 62 884 62 871 l 62 890 q 109 906 62 897 l 187 947 l 236 974 q 345 1050 263 997 q 407 1093 347 1057 q 464 1153 464 1143 q 510 1204 494 1174 q 591 1324 574 1276 q 632 1438 623 1380 l 629 1443 q 646 1584 640 1518 q 643 1587 646 1587 l 646 1600 l 646 1611 q 659 1858 646 1693 q 656 1869 659 1864 q 659 1912 659 1897 l 659 1975 q 662 1978 659 1978 l 659 1983 q 662 2018 659 2005 q 659 2040 662 2021 q 662 2070 659 2051 q 659 2159 659 2116 l 659 2162 q 629 2197 659 2197 l 624 2197 q 567 2146 585 2197 q 548 2091 548 2119 l 548 2081 l 543 2072 l 543 2059 q 540 2029 543 2047 q 543 2026 540 2026 l 540 2013 l 540 2002 q 534 1912 540 1963 q 540 1872 537 1874 q 537 1869 540 1869 l 540 1855 q 537 1850 540 1850 l 540 1831 l 540 1763 q 537 1641 540 1705 l 543 1560 q 540 1500 540 1537 l 540 1492 q 526 1468 534 1468 l 518 1468 q 486 1465 500 1468 l 399 1473 q 396 1470 396 1473 l 382 1473 l 358 1473 q 355 1476 355 1473 l 350 1473 l 296 1473 l 263 1470 l 263 1473 l 258 1470 l 247 1470 q 198 1473 218 1470 l 171 1470 q 119 1473 141 1473 q 111 1470 114 1470 l 111 1473 l 106 1470 q 68 1473 83 1473 l 60 1468 l 52 1468 q 49 1470 49 1468 l 43 1468 q 22 1508 26 1468 q 27 1535 24 1535 q 19 1573 19 1561 q 22 1581 22 1579 q 19 1590 19 1587 q 22 1592 19 1592 l 19 1611 l 19 1630 q 22 1633 19 1633 l 19 1638 l 19 1657 q 22 1660 19 1660 l 16 1690 l 19 1695 l 16 1712 q 19 1723 16 1718 q 16 1725 19 1725 l 19 1744 l 19 1755 q 16 1766 19 1761 q 24 1799 24 1789 l 24 1817 l 22 1834 q 24 1836 22 1836 l 22 1850 q 27 1872 22 1872 q 22 1893 22 1889 q 27 1923 24 1918 q 24 1926 27 1926 q 30 1948 24 1931 q 24 1978 24 1959 l 24 2007 q 30 2026 25 2026 q 24 2070 26 2063 q 27 2094 27 2085 l 27 2119 l 24 2132 l 27 2132 q 24 2135 27 2135 l 27 2154 l 27 2170 q 35 2189 35 2180 l 35 2216 q 38 2227 35 2222 l 35 2233 q 52 2327 43 2249 q 157 2490 84 2439 q 201 2523 165 2490 q 241 2550 208 2523 q 277 2561 262 2561 l 296 2574 q 304 2572 298 2574 q 553 2601 361 2585 q 708 2601 625 2606 z "},"3":{"ha":996,"x_min":20,"x_max":975,"o":"m 449 2454 l 449 2452 q 452 2454 452 2452 q 720 2416 621 2435 q 845 2340 808 2389 q 910 2264 884 2309 q 964 2099 943 2229 q 972 1990 972 2049 l 972 1950 q 970 1925 972 1940 q 972 1912 972 1921 l 970 1912 q 972 1904 972 1906 q 970 1879 972 1894 l 975 1841 l 970 1787 l 972 1776 l 962 1703 l 964 1697 q 956 1654 956 1657 l 959 1640 q 910 1516 945 1553 q 856 1451 898 1485 q 764 1377 828 1412 l 764 1375 q 875 1301 811 1360 q 943 1204 941 1227 q 954 1179 946 1202 l 951 1174 l 954 1168 q 951 1158 951 1164 q 962 1087 956 1158 l 959 1082 q 970 1019 964 1072 l 967 1014 q 970 1003 970 1009 l 970 1000 q 964 995 970 995 q 972 960 968 989 q 967 943 970 943 q 972 911 972 930 l 970 911 q 972 903 972 905 q 975 846 975 855 l 972 846 q 975 838 975 840 q 970 824 975 824 l 972 819 l 972 810 q 970 808 972 808 l 972 802 l 972 800 q 970 778 972 781 l 975 715 q 972 707 972 710 l 975 680 l 972 675 q 975 672 972 672 q 970 637 972 643 q 975 607 975 623 l 967 569 q 970 566 967 566 q 962 523 967 535 l 964 517 q 962 515 964 515 l 964 501 q 926 338 964 494 q 834 197 882 256 q 769 132 829 197 q 699 86 766 132 q 574 43 680 70 q 492 32 504 37 q 490 35 490 32 q 452 29 462 29 l 446 32 l 430 29 l 425 32 l 419 29 q 416 32 416 29 l 403 29 q 362 35 366 35 q 316 32 353 35 q 275 37 290 37 q 240 35 263 37 l 227 37 q 178 35 201 35 l 170 35 q 159 32 163 35 l 132 37 q 102 35 113 35 l 66 35 l 61 37 q 75 116 68 60 q 72 138 75 123 q 69 352 69 279 l 66 368 q 69 390 69 379 l 69 444 q 75 509 69 475 q 72 539 72 533 q 77 585 72 546 q 75 631 75 617 q 77 696 75 636 l 75 702 l 77 707 q 69 767 69 740 l 69 848 q 66 859 69 854 q 83 889 75 889 l 91 889 q 142 873 134 883 l 148 876 q 202 859 194 859 q 210 862 208 862 q 302 840 237 851 l 302 838 q 305 840 305 838 l 370 835 q 378 838 376 838 q 433 835 409 835 l 435 835 q 444 840 437 835 l 463 835 q 479 838 465 835 q 500 835 498 835 q 623 870 605 848 q 712 970 699 920 q 723 995 720 980 q 663 1101 704 1074 q 490 1160 590 1160 q 473 1158 488 1160 q 463 1160 469 1160 q 454 1158 460 1160 l 444 1160 l 419 1158 l 406 1160 q 300 1133 380 1160 l 300 1187 q 294 1209 300 1190 l 294 1274 q 289 1296 294 1277 l 289 1394 q 281 1432 281 1429 l 281 1434 q 278 1508 281 1457 l 281 1508 q 308 1505 304 1505 q 316 1508 313 1508 l 319 1502 l 324 1505 l 332 1499 l 349 1499 l 359 1508 l 362 1508 q 378 1499 378 1506 l 397 1505 l 416 1499 q 560 1573 560 1518 l 560 1584 q 544 1605 550 1605 q 509 1624 544 1610 q 506 1622 506 1624 q 411 1640 470 1632 l 406 1638 l 403 1638 q 392 1640 397 1638 q 389 1638 389 1640 l 289 1643 q 229 1635 256 1635 q 218 1638 223 1635 q 186 1632 216 1635 l 186 1635 q 37 1613 180 1635 q 26 1627 26 1619 q 31 1678 26 1649 q 28 1684 31 1684 q 31 1725 31 1711 l 31 1779 q 28 1790 31 1785 q 31 1801 31 1794 l 31 1811 q 28 1841 31 1823 q 31 1849 31 1847 q 28 1852 31 1852 l 31 1879 l 31 1898 q 28 1933 31 1916 l 31 1947 q 26 1993 26 1978 q 31 2037 26 2006 l 26 2053 q 28 2083 28 2071 l 28 2094 q 31 2096 28 2096 q 26 2121 28 2121 l 28 2134 l 28 2156 q 26 2167 28 2162 q 28 2169 26 2169 q 23 2202 25 2197 l 26 2226 q 23 2281 26 2241 l 26 2300 q 20 2316 20 2308 l 20 2332 q 23 2335 20 2335 l 20 2340 l 20 2367 q 75 2416 20 2404 q 178 2441 140 2440 q 186 2438 183 2438 q 221 2449 195 2443 q 232 2446 226 2446 q 240 2449 235 2446 q 243 2446 243 2449 l 262 2449 l 300 2449 l 316 2452 l 321 2449 q 449 2454 416 2454 z "},"4":{"ha":982,"x_min":20,"x_max":962,"o":"m 848 2458 l 850 2452 q 826 2308 831 2327 l 783 2116 q 696 1855 750 2045 q 601 1633 669 1809 l 547 1522 q 492 1424 537 1522 l 425 1302 l 425 1299 l 430 1299 l 457 1302 l 457 1299 q 460 1302 460 1299 l 473 1299 l 481 1299 q 617 1305 576 1299 l 623 1302 l 628 1305 q 631 1302 631 1305 l 658 1305 l 728 1305 q 731 1302 731 1305 l 753 1308 q 755 1305 755 1308 q 810 1313 800 1309 q 821 1310 814 1310 q 837 1316 829 1316 l 840 1316 q 850 1313 846 1316 l 924 1332 q 926 1329 924 1329 q 932 1335 927 1335 q 937 1329 937 1334 q 935 1196 935 1245 l 935 1191 q 940 1164 935 1185 l 937 1158 q 940 1153 937 1153 l 937 1120 l 937 1082 q 940 1072 937 1076 q 937 1061 937 1067 l 937 1053 q 940 1042 937 1046 q 937 1031 937 1037 l 937 1028 l 940 1012 q 937 1009 940 1009 l 940 996 l 940 952 l 943 933 l 940 933 l 943 928 l 943 925 q 940 922 943 922 q 948 882 948 895 q 945 873 948 879 q 948 865 948 868 l 943 863 q 945 854 945 857 l 943 849 l 948 838 q 945 836 948 836 q 951 814 945 831 q 948 806 948 808 l 954 784 q 951 762 951 769 q 956 741 951 754 q 954 732 956 738 q 956 703 956 714 l 956 686 q 962 673 957 673 q 951 643 958 643 q 897 651 897 648 q 894 648 894 651 q 774 659 857 656 q 772 656 774 656 q 774 654 772 654 l 772 635 l 772 578 q 769 553 772 568 q 772 543 772 549 l 769 543 l 772 537 q 769 526 772 531 q 772 518 772 521 q 769 515 772 515 l 772 502 l 772 448 q 774 418 772 436 q 772 396 772 415 q 774 393 772 393 l 772 380 q 793 171 772 303 q 788 157 788 162 q 796 149 792 157 l 796 141 q 793 138 796 138 q 799 125 799 130 q 796 122 796 125 q 804 103 802 122 l 802 103 l 804 98 l 802 92 q 807 87 807 92 l 807 84 q 804 81 807 81 q 810 57 810 69 q 780 30 807 40 q 774 33 774 30 q 690 24 705 29 q 658 27 671 27 l 647 24 q 644 27 647 27 q 639 22 644 22 q 636 24 636 22 l 606 19 l 601 22 l 585 19 q 582 22 582 19 q 549 14 576 19 l 536 16 l 511 14 l 511 16 q 481 11 500 11 l 468 11 q 465 14 465 11 q 422 5 446 9 q 419 8 419 5 l 406 5 l 381 5 l 376 8 q 357 0 376 3 l 351 3 q 343 0 349 3 q 300 16 321 0 q 327 293 314 205 l 324 298 q 332 350 332 340 l 332 396 l 335 412 q 332 426 332 417 l 332 437 q 335 439 332 439 l 332 445 l 332 453 q 335 467 332 462 q 332 475 335 469 q 338 572 338 525 l 338 700 q 332 703 332 700 q 324 700 327 700 q 91 662 232 700 l 91 665 q 42 654 71 662 l 31 654 q 23 662 27 654 l 23 670 q 39 819 23 697 q 34 865 39 865 l 37 879 l 37 974 q 39 998 37 983 q 37 1006 37 1004 q 39 1009 37 1009 l 37 1023 l 37 1034 q 31 1107 31 1099 l 34 1123 q 31 1126 34 1126 q 34 1134 31 1128 q 20 1240 28 1240 q 121 1392 56 1282 q 216 1600 161 1461 q 229 1619 225 1600 l 227 1625 l 281 1766 q 292 1785 281 1781 l 289 1790 q 332 1902 317 1835 q 340 1915 335 1902 l 338 1921 q 403 2173 403 2165 l 408 2176 l 406 2181 q 414 2216 406 2205 q 411 2219 414 2219 q 433 2325 427 2317 q 441 2363 435 2325 q 438 2374 438 2367 l 438 2379 q 452 2417 446 2417 l 460 2417 l 536 2403 l 617 2403 q 688 2412 643 2412 q 788 2439 688 2417 q 826 2450 788 2443 q 848 2458 826 2455 m 669 2431 l 680 2431 l 680 2425 l 669 2425 l 669 2431 m 397 2333 l 403 2333 l 403 2327 l 397 2327 l 397 2333 z "},"5":{"ha":1123,"x_min":20,"x_max":1103,"o":"m 1014 2648 q 1002 2490 1002 2537 l 1000 2490 q 1002 2488 1000 2488 l 1000 2474 l 1000 2466 q 994 2393 994 2400 l 994 2341 q 989 2279 994 2293 l 994 2257 q 991 2246 991 2252 l 994 2233 l 991 2219 q 994 2203 994 2205 q 991 2176 991 2188 q 994 2173 991 2173 l 991 2159 l 991 2138 q 997 2091 991 2113 l 994 2081 q 1008 1948 999 2062 q 1010 1940 1010 1948 l 1008 1940 q 1019 1839 1013 1929 q 1002 1826 1002 1829 q 823 1831 949 1831 l 804 1831 q 777 1834 791 1831 q 755 1831 767 1831 q 701 1834 741 1831 q 693 1831 696 1831 q 677 1834 689 1834 l 671 1831 q 669 1834 669 1831 l 655 1831 l 647 1831 q 644 1834 644 1831 l 639 1831 l 620 1831 q 606 1834 611 1831 l 590 1831 l 560 1831 q 422 1809 473 1820 q 419 1812 419 1809 q 376 1799 376 1807 q 368 1728 372 1745 l 370 1723 q 359 1655 367 1662 l 359 1636 l 362 1622 q 359 1619 359 1622 q 362 1617 362 1619 q 650 1690 502 1663 l 677 1690 q 736 1701 694 1701 l 745 1701 l 753 1706 l 764 1701 q 831 1717 764 1706 q 1010 1619 970 1717 q 1057 1465 1054 1514 l 1054 1459 l 1067 1400 l 1065 1383 l 1065 1370 q 1067 1359 1065 1364 q 1065 1356 1067 1356 q 1076 1286 1071 1305 l 1073 1272 q 1076 1270 1073 1270 l 1073 1256 l 1073 1248 l 1076 1232 l 1073 1226 l 1078 1177 l 1076 1164 q 1081 1112 1078 1112 l 1078 1099 l 1078 1093 q 1084 1034 1080 1034 l 1081 1020 l 1081 1001 q 1086 958 1081 969 l 1081 909 q 1084 906 1081 906 q 1081 884 1081 891 q 1078 675 1081 829 q 1076 665 1078 674 q 1078 643 1078 654 l 1078 589 l 1076 572 l 1078 567 l 1076 551 q 1078 540 1076 545 q 1073 505 1076 534 q 1076 477 1076 490 q 1070 469 1073 469 l 1073 464 q 1070 410 1070 424 q 1065 404 1065 409 l 1065 388 q 1038 171 1059 302 q 932 35 995 58 q 812 -14 909 7 q 690 -24 728 -24 l 680 -24 q 669 -27 673 -24 q 658 -24 664 -24 l 633 -24 q 590 -19 602 -24 q 582 -22 585 -22 l 582 -19 l 576 -22 q 511 -19 538 -19 l 509 -19 q 495 -14 495 -19 l 490 -16 l 473 -16 q 449 -14 464 -16 l 444 -16 q 414 -8 414 -10 l 408 -11 q 289 11 323 -11 q 281 8 283 8 q 113 117 187 50 q 42 258 48 205 l 28 331 q 31 336 28 336 q 23 461 31 347 l 23 469 q 28 475 24 475 q 20 496 22 496 q 31 624 26 595 q 26 629 26 624 q 31 711 26 679 l 28 716 q 42 795 33 795 q 56 928 48 928 q 53 930 56 930 q 66 1017 56 1017 l 64 1028 q 72 1072 69 1066 q 69 1096 69 1086 q 77 1112 71 1112 l 85 1112 q 123 1115 100 1112 q 134 1112 128 1112 l 148 1123 l 151 1123 l 151 1115 l 191 1115 q 292 1126 292 1118 q 308 1123 294 1126 q 481 1139 433 1131 l 481 1137 q 528 1145 497 1142 q 536 1123 536 1133 l 533 1118 q 536 1115 533 1115 l 533 1101 l 533 1074 q 522 1023 533 1023 l 525 1017 l 525 1015 q 514 952 525 976 l 517 947 l 517 917 q 511 903 517 903 l 514 884 l 511 852 l 517 852 q 509 806 512 846 q 511 789 511 802 l 509 784 q 511 773 511 779 q 509 765 511 770 q 511 762 509 762 q 506 738 509 744 l 509 732 q 503 713 503 719 l 506 708 q 500 692 500 699 l 500 686 q 503 675 500 680 q 500 665 500 671 l 503 651 q 500 648 503 648 q 506 616 504 623 q 503 608 503 610 l 506 583 l 503 556 q 514 505 514 520 q 536 458 521 499 q 574 420 564 420 q 685 545 637 420 q 704 616 696 574 l 701 621 q 704 629 704 627 l 701 635 q 709 689 706 646 l 707 700 q 715 806 712 806 l 712 819 l 712 895 q 715 987 712 935 q 712 1020 712 1002 l 715 1025 l 712 1042 l 712 1055 q 715 1058 712 1058 q 712 1066 712 1063 q 707 1134 712 1090 l 709 1134 q 707 1142 707 1139 q 690 1253 707 1191 q 582 1316 646 1298 q 522 1326 522 1322 q 519 1324 519 1326 q 368 1335 435 1335 q 338 1332 344 1332 l 338 1335 q 281 1324 316 1329 l 281 1326 l 275 1324 q 273 1326 273 1324 q 164 1302 244 1317 l 85 1275 l 85 1278 q 77 1275 80 1275 q 31 1286 31 1277 q 45 1389 37 1389 q 42 1397 45 1392 l 50 1470 q 47 1473 50 1473 l 50 1492 l 50 1544 q 56 1571 51 1571 q 50 1606 52 1600 l 53 1611 l 50 1617 l 53 1622 q 50 1630 53 1625 l 53 1641 l 50 1657 l 53 1676 q 50 1728 50 1713 q 56 1766 50 1737 q 50 1804 56 1773 l 53 1817 q 50 1853 50 1841 l 53 1853 l 50 1858 l 50 1877 q 56 1899 50 1889 q 50 1950 50 1921 l 50 1975 q 47 1988 50 1984 l 53 2051 q 50 2140 50 2097 l 50 2165 q 45 2216 45 2211 q 50 2233 45 2221 q 47 2241 47 2238 l 50 2241 q 42 2260 47 2252 l 45 2271 q 42 2273 45 2273 q 47 2300 45 2300 l 45 2314 l 45 2365 q 50 2406 45 2406 l 47 2412 l 47 2466 q 39 2643 37 2606 q 275 2634 193 2635 q 308 2637 290 2637 q 349 2634 321 2637 q 357 2637 351 2634 q 392 2634 358 2637 q 490 2637 479 2637 q 492 2639 492 2637 l 503 2637 q 612 2639 511 2637 q 623 2642 613 2639 q 633 2639 627 2639 q 644 2642 635 2639 q 655 2639 649 2639 q 666 2642 660 2642 l 669 2637 l 674 2639 l 712 2639 q 715 2637 715 2639 l 720 2639 l 736 2639 q 747 2637 743 2639 q 750 2639 750 2637 q 772 2634 755 2639 q 834 2639 810 2639 l 840 2637 q 848 2639 845 2639 q 856 2637 850 2639 q 1014 2648 978 2642 m 1097 1326 l 1103 1326 l 1103 1321 l 1097 1321 l 1097 1326 z "},"6":{"ha":1004,"x_min":20,"x_max":983,"o":"m 856 2620 l 869 2618 l 897 2618 q 943 2612 943 2617 q 978 2618 955 2618 q 983 2612 983 2617 l 983 2593 q 978 2569 983 2587 q 975 2403 975 2457 q 970 2390 970 2395 q 967 1980 967 2079 q 962 1923 967 1923 l 964 1918 l 964 1902 l 962 1885 q 964 1872 964 1881 l 964 1869 q 962 1866 964 1866 q 964 1858 964 1861 q 962 1855 964 1855 q 975 1769 964 1817 l 962 1755 l 932 1755 l 924 1750 l 918 1752 q 856 1742 901 1745 l 850 1744 l 845 1742 l 834 1744 q 755 1733 783 1733 l 747 1733 q 623 1706 737 1723 q 552 1652 569 1688 q 525 1487 525 1569 q 528 1476 525 1480 q 522 1440 525 1473 l 525 1435 l 522 1430 q 525 1419 522 1423 q 522 1389 522 1400 l 522 1370 q 519 1367 522 1367 l 522 1362 q 519 1359 522 1359 l 522 1348 q 519 1326 522 1341 q 522 1294 522 1308 l 525 1294 q 639 1310 607 1310 l 658 1310 q 669 1308 664 1310 q 677 1310 674 1310 q 802 1278 743 1310 q 886 1183 873 1217 q 945 979 924 1128 q 943 971 945 977 q 945 949 945 956 q 943 944 945 944 q 951 887 945 911 l 948 882 q 956 852 951 864 q 951 836 951 841 q 956 808 954 813 q 954 806 956 806 q 959 768 959 782 l 956 768 q 962 746 962 758 l 962 667 q 956 575 962 605 q 964 502 962 564 q 962 494 962 496 q 964 491 962 491 q 959 439 961 445 l 962 434 q 951 380 956 384 l 951 374 q 954 339 951 357 l 951 326 l 954 320 q 916 179 932 232 q 899 141 908 174 q 848 79 871 102 q 745 14 823 44 q 693 3 712 11 q 677 8 677 5 q 620 3 652 3 q 609 5 614 3 q 590 3 598 3 q 566 5 576 3 l 495 0 q 433 11 469 7 q 422 8 428 8 l 419 8 q 240 41 284 24 q 107 163 166 66 q 96 195 99 174 q 99 198 99 195 q 56 334 72 227 q 50 393 50 368 l 53 399 l 45 437 l 50 461 q 47 491 47 479 l 47 507 q 50 521 47 516 l 47 537 l 47 553 q 50 621 47 581 q 47 629 50 624 q 50 659 50 648 l 50 703 q 53 705 50 705 q 50 708 53 708 l 53 724 l 50 743 l 56 760 l 53 765 l 56 779 q 50 808 53 804 l 53 819 l 50 833 q 56 868 52 868 l 53 873 l 53 882 q 58 922 54 922 l 56 928 l 56 930 q 50 996 56 961 q 53 1012 50 998 q 50 1028 53 1014 q 56 1058 52 1058 q 50 1072 53 1072 l 53 1099 l 53 1134 q 50 1145 53 1140 q 56 1164 53 1164 q 50 1221 50 1193 l 53 1226 q 50 1237 50 1231 q 56 1264 51 1264 q 50 1308 50 1299 q 56 1326 50 1313 l 47 1408 q 50 1443 47 1409 q 47 1497 47 1480 l 50 1516 q 45 1552 45 1529 l 45 1568 q 47 1579 45 1574 q 45 1590 45 1584 l 45 1609 l 42 1641 l 45 1641 q 42 1644 45 1644 q 47 1676 45 1676 l 45 1690 l 45 1714 q 58 1817 50 1802 l 56 1823 q 88 2024 69 1890 l 85 2029 l 85 2032 q 99 2064 92 2064 l 96 2070 l 96 2072 q 156 2279 96 2110 l 159 2279 l 156 2284 q 194 2368 176 2335 q 191 2371 191 2368 l 256 2452 q 359 2534 328 2528 q 481 2582 441 2582 q 511 2591 481 2587 l 511 2588 l 625 2612 l 639 2610 l 658 2610 l 674 2612 q 677 2610 677 2612 l 690 2612 l 707 2612 q 712 2607 712 2612 l 726 2615 q 728 2612 728 2615 l 747 2615 l 761 2615 q 774 2612 770 2615 q 853 2618 801 2618 q 856 2620 856 2618 m 544 868 l 547 863 q 530 803 535 803 l 533 770 l 533 732 q 536 722 533 726 q 533 711 533 717 l 533 689 q 530 635 533 654 q 533 594 533 611 q 530 537 530 547 l 533 532 q 530 529 533 529 q 536 505 533 505 l 533 491 q 574 320 541 320 q 593 315 574 315 q 677 407 636 315 q 701 570 701 456 l 699 575 q 701 586 701 580 q 696 621 696 618 q 699 643 696 624 l 696 656 q 699 659 696 659 l 696 670 q 699 694 696 680 q 606 958 699 880 l 593 958 q 544 868 578 951 m 20 160 q 26 155 26 159 l 20 155 l 20 160 z "},"7":{"ha":1036,"x_min":18,"x_max":1015,"o":"m 44 2345 q 473 2306 217 2309 l 490 2306 q 500 2303 496 2306 l 506 2306 q 514 2303 511 2303 l 528 2306 l 528 2303 l 533 2306 q 674 2306 539 2306 q 834 2314 809 2306 l 840 2311 l 864 2314 q 872 2311 869 2311 q 878 2317 873 2317 q 880 2314 880 2317 q 1011 2335 906 2317 q 1010 2167 1010 2176 q 1013 2157 1013 2163 l 1010 2157 l 1013 2151 l 1013 2116 q 1010 2113 1013 2113 l 1013 2108 l 1013 2021 q 1008 2010 1008 2014 q 1013 1994 1008 2005 q 1010 1923 1010 1948 l 1010 1899 q 1008 1896 1010 1896 q 1010 1893 1008 1893 q 1009 1855 1008 1874 q 1012 1847 1009 1853 q 1009 1826 1009 1832 q 1015 1769 1010 1769 l 1012 1750 l 1012 1693 q 1015 1614 1012 1662 q 1012 1603 1012 1609 q 1015 1587 1015 1599 l 1012 1587 l 1015 1581 l 1008 1560 q 1010 1549 1008 1554 q 937 1438 1010 1541 q 907 1389 916 1398 q 867 1316 907 1379 q 810 1191 867 1310 l 726 987 q 671 838 695 928 q 636 705 650 765 q 606 524 608 597 q 609 515 609 518 q 606 494 609 513 l 609 475 q 604 464 607 464 l 606 458 l 606 456 q 604 445 606 450 l 606 439 q 601 399 601 414 l 601 388 q 604 317 601 363 q 601 307 601 313 l 604 301 q 601 298 604 298 q 631 14 608 107 l 631 11 l 623 5 l 620 5 q 571 22 609 5 q 557 24 562 22 q 547 22 553 22 q 498 33 534 26 q 487 30 492 33 l 444 35 q 427 33 439 33 q 422 38 427 38 l 416 38 q 411 33 411 37 q 403 35 408 33 q 378 33 388 33 l 376 33 q 373 35 373 33 l 368 33 l 332 33 q 161 3 236 22 q 159 5 161 5 l 159 0 l 153 0 q 137 27 150 0 q 142 57 140 53 l 137 60 q 151 119 140 101 q 164 184 151 168 q 178 244 164 208 q 175 247 178 247 q 194 304 183 294 l 191 309 l 191 312 q 218 385 216 372 l 216 391 q 235 429 216 400 l 270 553 q 324 724 270 562 q 346 806 336 754 q 419 1004 376 876 q 454 1090 435 1030 q 468 1126 460 1090 q 495 1191 468 1136 l 530 1275 q 568 1359 554 1337 q 582 1405 582 1402 l 582 1408 q 392 1411 454 1418 q 248 1402 263 1402 l 232 1405 q 221 1402 227 1402 l 221 1405 q 197 1400 212 1400 q 153 1402 181 1400 q 18 1396 117 1394 q 45 1652 33 1524 l 42 1657 q 50 1744 42 1672 l 50 1752 q 53 1755 50 1755 q 50 1763 50 1761 l 53 1769 q 50 1771 53 1771 l 53 1785 l 53 1828 q 56 1839 53 1834 q 53 1847 53 1845 q 64 1910 64 1876 q 61 1956 64 1927 l 69 2021 l 66 2037 l 66 2045 q 69 2056 66 2051 q 66 2059 69 2059 q 72 2086 69 2086 l 69 2091 l 69 2121 q 66 2146 69 2131 q 72 2162 72 2155 q 61 2227 66 2162 l 64 2227 q 44 2345 39 2311 z "},"8":{"ha":1028,"x_min":20,"x_max":1008,"o":"m 498 2588 q 544 2582 500 2585 l 571 2585 l 571 2582 q 574 2585 574 2582 l 587 2582 q 595 2585 595 2582 l 609 2582 l 636 2582 q 761 2547 670 2582 q 818 2512 761 2542 q 880 2460 818 2509 q 940 2360 916 2424 q 964 2254 956 2302 q 978 2203 971 2254 q 975 2200 975 2203 q 989 2138 982 2200 q 986 2135 989 2135 q 991 2105 989 2110 q 989 2102 991 2102 q 997 2035 997 2048 q 991 2013 995 2013 q 997 1983 994 2009 q 991 1948 997 1976 q 994 1929 994 1937 l 989 1926 q 994 1907 994 1912 l 991 1907 q 994 1904 991 1904 l 991 1893 q 997 1790 997 1812 q 970 1628 983 1738 q 967 1625 967 1628 q 970 1622 967 1622 q 959 1560 964 1563 l 959 1557 q 907 1381 959 1478 q 807 1297 832 1301 q 745 1264 798 1287 q 796 1245 746 1258 q 945 1088 886 1207 q 983 990 983 1007 q 991 947 983 979 l 991 941 q 989 939 991 939 q 1002 873 994 933 l 1000 873 l 1002 868 l 1002 854 q 1005 830 1002 845 q 1002 827 1005 827 l 1005 814 l 1005 800 q 1002 798 1005 798 l 1005 792 l 1005 784 q 1002 754 1005 764 l 1008 686 q 1005 670 1005 672 q 1008 621 1008 637 l 1005 602 q 1008 578 1008 592 q 1000 553 1004 569 q 1002 551 1000 551 l 997 518 l 1000 505 l 991 423 l 994 412 q 970 315 970 317 l 972 309 q 916 182 959 256 q 894 146 894 156 q 785 68 832 79 q 747 49 785 58 l 742 52 q 650 19 701 33 l 538 0 l 536 0 q 522 3 527 0 l 506 0 l 490 3 q 473 0 488 3 q 387 3 429 3 q 368 11 368 7 q 359 8 362 8 q 210 60 296 8 q 134 117 197 60 q 61 222 63 186 q 39 304 51 235 q 42 312 42 309 q 31 388 31 351 l 31 410 l 28 426 q 31 429 28 429 l 28 442 l 28 491 q 31 502 28 497 q 28 513 28 507 l 28 515 q 31 526 28 522 q 26 548 26 536 l 26 581 q 28 600 26 596 q 26 624 26 614 l 26 662 q 42 814 26 718 l 39 827 q 66 990 47 933 q 96 1053 66 1010 q 194 1145 98 1072 q 251 1172 203 1145 l 251 1177 q 153 1234 242 1177 q 64 1354 76 1291 q 66 1356 66 1354 q 53 1402 62 1356 q 50 1405 50 1402 q 53 1408 50 1408 q 42 1465 47 1427 q 45 1468 42 1468 l 34 1538 q 37 1560 37 1553 l 31 1563 l 34 1573 l 31 1587 q 34 1609 34 1602 l 31 1614 q 34 1625 34 1619 q 28 1641 28 1634 l 28 1649 q 31 1674 28 1659 q 26 1690 26 1685 q 28 1693 26 1693 l 26 1706 l 26 1739 q 20 1761 26 1742 q 23 1766 20 1766 l 20 1780 l 20 1782 q 23 1804 20 1794 q 20 1823 20 1815 l 23 1828 l 20 1834 q 26 1880 24 1876 q 23 1891 23 1885 q 26 1893 23 1893 l 23 1899 l 23 1902 q 26 1912 23 1908 q 23 1923 23 1917 l 26 1942 q 23 1950 23 1948 l 26 1950 q 23 1953 26 1953 l 26 1967 l 23 1999 l 26 2005 q 23 2007 26 2007 l 28 2037 l 26 2043 l 28 2048 l 26 2062 l 28 2062 l 26 2067 q 28 2075 28 2072 l 26 2081 q 39 2162 31 2093 l 37 2167 q 104 2433 82 2433 q 189 2507 141 2488 q 359 2572 224 2541 q 430 2585 410 2577 q 438 2582 435 2582 q 449 2585 439 2582 q 457 2582 452 2585 q 498 2588 492 2585 m 454 2108 l 457 2102 q 441 1978 452 2094 q 444 1969 444 1972 q 438 1918 441 1921 l 441 1902 l 441 1888 q 438 1885 441 1885 l 441 1880 l 441 1839 q 438 1817 441 1828 l 446 1723 q 444 1714 446 1720 q 452 1625 446 1664 l 449 1619 q 495 1459 479 1485 q 566 1397 536 1397 l 579 1397 q 636 1554 636 1440 q 647 1766 642 1719 q 644 1769 647 1769 l 647 1780 q 644 1877 647 1790 l 647 1883 q 644 1893 644 1887 l 644 1915 q 647 1926 644 1921 l 644 1931 l 647 1937 q 644 1948 644 1942 q 647 1950 644 1950 l 644 1956 l 644 1967 q 647 1978 644 1973 q 639 2051 644 1980 l 642 2056 l 639 2072 l 639 2075 q 642 2078 639 2078 q 609 2257 620 2257 q 557 2284 598 2284 q 487 2219 517 2270 q 454 2108 471 2174 m 476 914 q 479 906 479 909 q 454 637 465 871 l 454 572 l 457 540 l 454 540 l 468 404 q 525 347 468 391 q 595 407 595 376 q 612 453 603 407 l 612 475 l 604 475 q 617 529 614 501 l 614 534 q 617 540 614 540 l 614 559 q 620 602 614 568 l 617 616 q 620 624 620 621 q 617 635 617 629 l 620 635 q 614 648 614 644 l 617 648 l 614 654 l 614 686 q 617 697 614 692 l 614 703 q 617 713 614 709 l 614 732 q 617 779 617 764 l 614 784 q 617 792 617 789 q 612 808 615 808 l 614 819 q 612 846 614 832 q 614 890 614 867 q 595 979 614 899 l 598 979 q 552 1036 583 1036 q 503 985 516 1021 l 476 914 z "},"9":{"ha":1180,"x_min":20,"x_max":1160,"o":"m 623 2668 q 658 2654 649 2654 l 669 2654 q 755 2644 694 2654 l 761 2646 q 894 2589 799 2639 q 948 2527 907 2566 q 994 2470 962 2504 q 1013 2429 994 2462 q 1051 2283 1031 2397 l 1070 2153 l 1067 2147 q 1076 2085 1074 2090 q 1073 2074 1073 2080 q 1076 2063 1073 2068 q 1073 2044 1073 2052 l 1076 2030 l 1073 2030 q 1076 2028 1073 2028 q 1073 1960 1073 1983 q 1081 1879 1073 1924 l 1078 1860 l 1081 1841 l 1076 1816 q 1081 1794 1081 1806 q 1078 1765 1078 1771 q 1084 1759 1084 1764 l 1084 1754 q 1081 1751 1084 1751 q 1084 1743 1084 1746 q 1078 1735 1081 1735 l 1081 1729 q 1078 1721 1081 1721 l 1081 1710 q 1078 1683 1078 1687 q 1081 1675 1078 1681 q 1078 1651 1078 1660 l 1078 1637 l 1081 1621 q 1076 1594 1078 1594 l 1078 1588 l 1078 1545 q 1073 1529 1078 1537 q 1078 1493 1078 1504 q 1076 1463 1076 1470 l 1081 1439 l 1078 1434 q 1081 1423 1081 1429 q 1076 1417 1076 1422 q 1078 1415 1076 1415 l 1076 1404 q 1078 1377 1078 1380 l 1076 1371 l 1078 1366 q 1076 1339 1076 1342 q 1078 1287 1078 1302 q 1073 1282 1073 1286 l 1073 1260 q 1067 1190 1073 1234 q 1070 1187 1067 1187 l 1067 1173 l 1067 1116 q 1065 1073 1067 1101 q 1070 1027 1070 1058 q 1067 1000 1070 1014 q 1070 962 1070 983 l 1070 940 q 1076 924 1070 932 l 1073 924 l 1076 918 q 1070 913 1076 913 l 1073 907 q 1070 883 1073 898 q 1078 791 1078 827 l 1078 788 q 1076 758 1078 777 q 1078 739 1078 755 l 1076 739 l 1078 734 l 1078 718 l 1076 701 q 1078 693 1078 696 l 1076 674 q 1078 666 1078 669 q 1073 652 1073 657 q 1078 625 1078 635 l 1076 620 l 1078 614 l 1076 609 l 1078 604 l 1067 533 l 1065 533 l 1067 528 l 1067 522 q 1065 519 1067 519 l 1067 514 l 1067 511 q 1048 446 1055 446 q 1051 444 1048 444 q 1046 422 1049 422 q 1048 414 1048 416 q 1038 403 1046 403 l 1038 381 q 1021 332 1031 374 q 975 256 988 273 q 943 186 975 245 q 918 145 936 185 q 818 58 850 83 q 755 31 764 31 q 753 34 755 34 q 680 9 753 26 l 680 12 q 571 -9 644 0 l 560 -7 q 544 -12 551 -12 q 541 -9 541 -12 q 519 -15 531 -15 q 517 -12 517 -15 q 471 -18 488 -18 l 452 -15 q 444 -18 446 -18 l 444 -15 q 425 -20 425 -18 q 264 26 332 -20 q 186 99 221 41 q 113 248 149 132 q 80 576 94 295 l 83 582 q 80 593 80 587 l 80 598 q 83 601 80 601 q 80 604 83 604 q 83 609 80 609 q 80 655 80 641 l 80 755 q 83 793 80 770 q 80 802 80 799 q 102 856 85 856 l 113 856 q 327 837 140 856 l 332 840 q 335 837 335 840 q 338 840 338 837 l 362 837 l 378 840 q 387 837 381 840 q 430 840 414 840 l 479 840 q 481 837 481 840 q 544 842 496 842 l 555 842 q 566 845 561 842 q 582 840 576 840 l 582 829 l 579 823 q 585 818 585 823 l 585 747 l 582 731 q 585 718 585 726 q 582 715 585 715 q 601 571 590 625 l 620 533 q 720 606 696 533 q 736 690 736 650 l 736 736 q 745 848 736 753 q 742 981 745 868 l 745 981 l 742 986 l 742 1081 q 745 1108 742 1094 q 742 1133 742 1118 l 742 1162 l 736 1171 q 644 1143 702 1155 q 425 1103 644 1128 l 425 1105 q 349 1097 399 1100 q 189 1133 300 1097 q 91 1217 109 1166 q 53 1312 63 1248 q 47 1350 53 1324 l 50 1366 q 39 1404 42 1366 l 39 1415 l 34 1423 l 34 1426 q 37 1428 34 1428 q 26 1510 32 1440 l 28 1515 q 20 1613 23 1539 l 23 1613 l 20 1618 l 20 1672 q 23 1697 20 1682 q 20 1708 20 1702 l 23 1721 l 20 1727 q 23 1746 23 1737 q 20 1754 23 1748 l 23 1770 l 23 1786 q 20 1797 23 1792 q 23 1805 23 1803 q 20 1849 20 1833 l 23 1849 q 20 1851 23 1851 l 26 1900 q 23 1903 26 1903 l 26 1922 l 26 2047 q 37 2104 26 2060 l 34 2109 l 39 2134 q 37 2150 39 2136 q 58 2310 45 2191 q 64 2323 64 2310 l 64 2340 q 61 2351 64 2346 q 167 2543 116 2509 q 305 2638 222 2604 q 452 2660 420 2660 l 457 2657 q 465 2660 463 2660 q 468 2657 465 2657 q 473 2662 469 2662 q 476 2660 476 2662 l 509 2665 l 519 2662 q 528 2665 522 2662 l 541 2662 q 579 2665 564 2665 l 579 2662 l 585 2665 q 587 2662 587 2665 l 593 2665 l 606 2662 q 623 2668 615 2668 m 815 2654 l 821 2654 l 821 2652 l 815 2652 l 815 2654 m 530 1830 l 533 1816 q 530 1803 530 1811 q 533 1713 533 1729 l 530 1713 q 536 1678 532 1707 q 533 1675 536 1675 l 541 1613 l 538 1613 q 582 1444 555 1446 q 590 1442 585 1444 q 701 1586 654 1442 q 699 1588 701 1588 q 715 1889 709 1692 q 709 2001 709 1982 q 712 2030 709 2007 l 704 2101 l 707 2106 q 633 2337 707 2234 l 628 2340 l 620 2340 q 571 2277 603 2328 q 547 2174 547 2187 q 530 1830 530 2105 m 1154 1803 l 1160 1803 l 1160 1800 l 1154 1800 l 1154 1803 z "}," ":{"ha":459,"x_min":0,"x_max":0,"o":""}," ":{"ha":459,"x_min":0,"x_max":0,"o":""},"!":{"ha":575,"x_min":17,"x_max":555,"o":"m 549 2493 l 555 2485 q 541 2425 555 2474 q 544 2422 541 2422 q 530 2279 530 2343 l 528 2279 q 530 2276 528 2276 q 522 2176 522 2218 q 511 2154 518 2154 l 511 2151 l 517 2143 q 500 2021 517 2085 l 503 2016 q 500 2013 503 2013 l 503 2007 l 492 1839 l 495 1834 q 487 1801 492 1817 l 490 1796 q 479 1693 479 1721 q 481 1685 481 1687 q 471 1641 474 1669 q 476 1609 476 1631 q 468 1541 476 1548 q 473 1535 469 1535 q 471 1530 473 1530 q 473 1484 473 1498 l 473 1432 q 468 1427 473 1427 q 476 1397 468 1426 l 471 1389 q 473 1373 473 1375 l 471 1362 q 476 1345 476 1351 q 473 1337 473 1340 l 476 1332 q 471 1308 471 1312 l 473 1302 l 468 1261 q 471 1245 471 1247 q 468 1194 468 1219 l 465 1194 l 468 1188 l 468 1161 q 465 1158 468 1158 q 468 1150 468 1153 q 463 1142 465 1142 l 465 1128 l 465 1123 q 463 1112 465 1117 q 471 1031 467 1103 q 473 1028 473 1031 l 471 1015 l 473 1004 q 438 977 473 977 l 340 952 q 104 879 278 939 q 66 860 104 871 l 66 863 q 72 895 68 895 q 69 903 69 901 q 66 1009 69 938 l 69 1023 l 66 1042 q 69 1156 69 1128 l 72 1166 l 69 1172 q 72 1194 72 1187 q 69 1202 72 1196 q 72 1204 69 1204 l 69 1237 l 69 1256 q 77 1275 72 1274 q 75 1278 77 1278 q 85 1364 83 1306 q 80 1392 82 1369 q 91 1525 91 1456 l 91 1530 q 88 1600 91 1555 q 94 1622 94 1617 q 88 1628 88 1622 l 88 1660 q 94 1712 94 1706 l 94 1720 q 96 1723 94 1723 l 94 1728 l 94 1733 q 83 1847 87 1836 q 88 1872 88 1858 l 85 1883 q 91 1904 91 1893 q 88 1931 91 1908 l 91 1931 l 88 1937 l 88 1967 q 91 1969 88 1969 l 88 1975 q 91 1980 88 1980 q 85 2035 85 2020 q 88 2094 85 2047 q 80 2157 85 2157 l 83 2189 q 77 2271 83 2207 l 80 2287 q 72 2363 77 2337 l 72 2374 q 94 2398 77 2398 q 156 2393 156 2397 l 161 2395 l 175 2395 q 178 2393 178 2395 l 302 2417 l 422 2452 q 549 2493 494 2493 m 443 570 q 441 458 441 466 q 444 334 444 353 q 444 76 440 166 q 443 42 444 54 q 357 46 369 46 q 305 43 338 46 q 17 -7 113 16 q 39 155 22 54 q 69 415 52 200 q 64 556 71 473 q 142 548 115 549 q 443 570 388 553 z "},"\"":{"ha":810,"x_min":13,"x_max":755,"o":"m 347 2855 q 355 2743 354 2750 q 355 2614 353 2633 q 349 2357 351 2488 q 351 2322 350 2335 q 277 2332 288 2331 q 233 2332 261 2333 q 21 2298 101 2315 q 26 2458 20 2357 q 30 2719 33 2504 q 13 2861 26 2777 q 81 2848 57 2850 q 347 2855 301 2841 m 747 2855 q 755 2743 754 2750 q 755 2614 753 2633 q 749 2357 751 2488 q 751 2322 750 2335 q 677 2332 688 2331 q 633 2332 661 2333 q 421 2298 501 2315 q 427 2458 420 2357 q 430 2719 433 2504 q 413 2861 426 2777 q 481 2848 457 2850 q 747 2855 701 2841 z "},"#":{"ha":1975,"x_min":-21,"x_max":1950,"o":"m 433 1215 l 440 1244 q 437 1246 440 1246 q 460 1337 450 1286 q 46 1318 288 1335 l 41 1324 q 77 1389 41 1328 q 72 1392 77 1392 q 93 1457 72 1396 l 93 1476 q 109 1541 93 1514 q 103 1544 109 1544 q 140 1709 140 1704 l 140 1739 q 166 1809 140 1809 q 176 1812 176 1809 l 213 1809 l 536 1809 q 551 1865 545 1860 l 551 1895 q 559 1930 557 1930 l 557 1935 q 578 2055 568 1984 l 576 2060 q 597 2201 590 2166 q 600 2223 597 2208 q 597 2226 600 2226 l 619 2410 l 616 2435 q 627 2483 616 2438 l 627 2497 l 633 2497 l 633 2492 l 644 2500 q 665 2494 665 2498 q 668 2497 668 2494 l 687 2494 l 714 2497 l 714 2494 l 720 2497 l 760 2497 q 771 2500 766 2497 q 782 2497 776 2497 q 823 2502 797 2497 l 828 2500 q 850 2505 845 2505 l 850 2502 q 852 2505 852 2502 l 866 2502 l 893 2502 q 896 2500 896 2502 l 923 2508 l 923 2505 q 991 2516 938 2513 q 1116 2543 1111 2543 l 1116 2540 q 1194 2559 1146 2551 l 1219 2559 l 1227 2554 q 1208 2483 1212 2522 q 1189 2448 1198 2475 q 1167 2378 1173 2435 q 1137 2302 1149 2348 q 1116 2234 1130 2290 q 1067 2085 1086 2173 q 1007 1906 1007 1919 l 1002 1903 l 1004 1898 q 973 1813 981 1845 q 1037 1817 1007 1817 l 1047 1817 q 1053 1815 1053 1817 l 1074 1820 l 1084 1817 q 1136 1823 1136 1820 l 1157 1820 q 1204 1822 1183 1821 q 1217 1865 1211 1860 l 1217 1895 q 1225 1930 1222 1930 l 1222 1935 q 1244 2055 1233 1984 l 1241 2060 q 1263 2201 1255 2166 q 1265 2223 1263 2208 q 1263 2226 1265 2226 l 1284 2410 l 1282 2435 q 1293 2483 1282 2438 l 1293 2497 l 1298 2497 l 1298 2492 l 1309 2500 q 1331 2494 1331 2498 q 1333 2497 1333 2494 l 1352 2494 l 1379 2497 l 1379 2494 l 1385 2497 l 1426 2497 q 1436 2500 1432 2497 q 1447 2497 1441 2497 q 1488 2502 1462 2497 l 1493 2500 q 1515 2505 1510 2505 l 1515 2502 q 1518 2505 1518 2502 l 1531 2502 l 1558 2502 q 1561 2500 1561 2502 l 1588 2508 l 1588 2505 q 1656 2516 1603 2513 q 1781 2543 1776 2543 l 1781 2540 q 1860 2559 1811 2551 l 1884 2559 l 1892 2554 q 1873 2483 1877 2522 q 1854 2448 1863 2475 q 1832 2378 1838 2435 q 1803 2302 1815 2348 q 1781 2234 1795 2290 q 1732 2085 1751 2173 q 1672 1906 1672 1919 l 1667 1903 l 1670 1898 q 1649 1847 1657 1869 q 1887 1864 1701 1853 q 1944 1872 1887 1866 q 1950 1869 1944 1869 l 1934 1831 q 1903 1649 1934 1809 q 1892 1641 1903 1641 q 1898 1527 1898 1569 l 1898 1359 q 1887 1354 1898 1354 q 1830 1359 1881 1354 l 1814 1359 q 1793 1356 1803 1359 q 1684 1364 1775 1359 l 1548 1364 q 1503 1364 1531 1364 l 1499 1350 q 1473 1242 1499 1343 q 1891 1261 1646 1244 l 1896 1255 q 1859 1190 1896 1251 q 1864 1187 1859 1187 q 1842 1122 1864 1183 l 1842 1103 q 1825 1038 1841 1065 q 1830 1036 1825 1036 q 1791 870 1791 875 l 1791 840 q 1764 770 1790 770 q 1753 767 1753 770 l 1717 770 l 1375 770 q 1366 701 1370 736 q 1360 690 1364 701 l 1363 685 q 1360 674 1363 684 q 1363 671 1360 671 q 1347 566 1360 627 q 1350 563 1347 563 q 1331 422 1343 478 l 1333 408 q 1317 283 1317 320 q 1298 167 1303 185 q 1301 156 1301 162 q 1298 145 1301 150 q 1301 134 1301 140 q 1290 102 1301 125 l 1293 96 l 1293 91 q 1271 34 1293 45 q 1268 37 1268 34 l 1263 34 l 1236 34 q 1208 37 1223 34 l 1179 31 l 1179 34 l 1173 31 l 1165 31 q 826 -39 826 -13 q 780 -58 789 -58 q 772 -56 777 -58 q 761 -58 767 -58 l 761 -47 q 804 91 783 2 q 826 170 821 133 q 848 259 837 176 q 872 340 863 298 q 897 419 887 364 l 894 425 q 926 536 901 433 q 962 677 937 558 q 986 753 974 695 q 994 768 991 753 l 971 764 q 966 767 966 764 q 892 762 926 762 l 882 762 q 877 764 877 762 l 856 759 l 846 762 q 793 756 793 760 l 772 759 q 707 757 734 758 q 701 701 704 729 q 695 690 699 701 l 698 685 q 695 674 698 684 q 698 671 695 671 q 682 566 695 627 q 684 563 682 563 q 665 422 678 478 l 668 408 q 652 283 652 320 q 633 167 638 185 q 635 156 635 162 q 633 145 635 150 q 635 134 635 140 q 625 102 635 125 l 627 96 l 627 91 q 606 34 627 45 q 603 37 603 34 l 597 34 l 570 34 q 543 37 557 34 l 513 31 l 513 34 l 508 31 l 500 31 q 161 -39 161 -13 q 115 -58 124 -58 q 106 -56 112 -58 q 96 -58 102 -58 l 96 -47 q 139 91 117 2 q 161 170 155 133 q 182 259 172 176 q 207 340 198 298 q 231 419 222 364 l 229 425 q 261 536 236 433 q 296 677 271 558 q 317 734 307 692 l 298 734 q 41 715 275 729 q -16 707 41 713 q -21 710 -16 710 l -5 748 q 29 930 -5 770 q 40 938 29 938 q 36 1052 36 1010 l 39 1220 q 50 1225 39 1225 q 106 1220 56 1225 l 122 1220 q 143 1223 134 1220 q 252 1215 161 1220 l 388 1215 q 433 1215 404 1215 m 835 1355 l 833 1350 q 802 1215 833 1343 q 858 1217 827 1216 q 878 1215 867 1215 q 1101 1224 924 1219 l 1105 1244 q 1103 1246 1105 1246 q 1130 1364 1118 1296 q 1079 1362 1106 1363 q 1058 1364 1069 1364 q 835 1355 1012 1360 z "},"$":{"ha":1074,"x_min":66,"x_max":922,"o":"m 416 2608 q 425 2714 420 2653 q 420 2836 427 2764 q 488 2829 465 2829 q 749 2848 701 2833 q 747 2751 747 2758 q 749 2644 749 2660 q 749 2603 749 2622 q 803 2599 795 2599 q 806 2602 806 2599 l 819 2599 l 838 2599 q 873 2597 856 2599 q 909 2602 898 2602 l 922 2578 l 922 2571 q 920 2563 922 2563 l 922 2550 q 920 2516 922 2534 l 922 2506 q 920 2472 920 2489 q 922 2464 920 2464 l 920 2452 l 920 2376 q 917 2374 920 2374 l 920 2368 q 914 2306 920 2332 l 917 2300 l 914 2290 q 917 2287 914 2287 q 911 2243 913 2252 q 914 2241 911 2241 q 911 2225 911 2227 q 909 2116 909 2142 l 906 2106 q 909 2103 906 2103 l 906 2090 l 906 2082 q 909 2059 906 2072 q 906 2051 906 2053 q 917 1984 911 2040 l 914 1968 l 914 1937 q 909 1931 914 1931 q 887 1937 904 1931 l 882 1934 l 854 1942 q 852 1939 852 1942 q 825 1944 831 1942 q 814 1942 820 1942 q 784 1950 807 1942 q 781 1947 781 1950 l 754 1950 l 741 1950 q 738 1952 738 1950 l 732 1950 q 711 1954 722 1954 l 678 1954 q 665 1952 669 1954 l 648 1954 l 632 1954 q 519 1866 551 1943 q 495 1703 497 1811 l 495 1666 q 552 1445 496 1565 q 650 1398 578 1398 q 802 1375 702 1396 q 873 1308 845 1360 q 903 1146 903 1221 l 900 1146 q 903 1143 900 1143 l 900 1131 q 905 1053 905 1090 l 905 990 l 908 959 l 905 959 q 916 831 910 937 q 913 814 913 821 q 919 780 913 803 q 916 746 916 763 l 916 743 q 919 733 916 737 l 916 728 q 919 722 916 722 q 911 582 911 608 l 913 572 l 911 572 l 913 566 l 911 549 q 913 533 913 534 l 911 517 l 913 512 q 908 481 908 487 q 911 473 911 475 l 908 473 l 911 468 q 903 406 906 453 l 905 400 q 876 260 884 286 q 848 203 869 225 q 720 137 788 162 l 720 135 q 720 -83 718 -7 q 720 -112 720 -101 q 647 -109 657 -109 q 603 -111 631 -109 q 359 -153 441 -134 q 378 -16 363 -102 q 396 118 387 12 q 340 134 366 124 q 158 240 221 166 q 98 435 104 336 l 98 443 q 101 454 98 449 q 98 456 101 456 l 101 474 l 101 485 q 98 498 101 493 l 101 508 q 98 549 101 512 q 104 596 104 581 q 101 604 104 600 l 104 614 l 98 667 q 101 669 98 669 l 98 682 l 98 708 l 93 716 l 93 721 q 96 732 93 727 l 90 745 l 93 750 q 85 779 93 754 l 87 791 q 82 838 87 802 l 85 838 q 77 892 77 862 l 77 895 q 79 898 77 898 q 66 991 66 923 l 66 1010 q 74 1017 66 1013 l 101 1017 q 172 1002 115 1011 q 294 976 179 992 q 313 968 294 972 l 318 970 q 321 968 321 970 l 326 970 l 334 966 l 340 968 l 345 966 l 359 966 l 359 963 l 372 963 q 394 958 392 958 q 397 960 397 958 l 410 958 l 443 958 q 454 955 449 958 q 462 958 459 958 q 470 955 465 958 q 492 958 485 958 q 543 953 538 953 l 543 929 q 522 851 535 888 q 527 841 524 841 q 508 641 508 729 q 532 495 517 525 q 574 463 532 468 q 631 606 610 463 q 642 767 643 718 q 636 827 636 821 q 639 847 636 833 q 633 980 636 925 l 636 980 l 633 985 q 636 987 633 987 q 625 1071 636 1002 l 625 1084 q 549 1126 604 1126 l 549 1123 l 541 1123 l 533 1128 q 473 1123 487 1123 l 473 1126 l 460 1118 l 457 1118 l 452 1120 q 446 1115 452 1115 l 444 1115 q 441 1118 441 1115 l 376 1107 l 354 1112 q 351 1110 351 1112 q 259 1136 285 1118 q 232 1154 232 1149 q 186 1255 202 1185 q 140 1455 172 1274 q 123 1607 127 1533 l 126 1607 l 123 1611 q 129 2106 118 1925 q 132 2116 129 2111 q 129 2124 129 2121 l 132 2124 l 129 2129 l 129 2137 q 159 2293 140 2167 q 218 2454 202 2416 q 267 2537 225 2494 q 370 2599 325 2584 q 416 2608 391 2605 z "},"%":{"ha":1276,"x_min":6,"x_max":1240,"o":"m 1194 2559 l 1219 2559 l 1227 2554 q 1208 2483 1212 2522 q 1189 2448 1198 2475 q 1167 2378 1173 2435 q 1137 2302 1150 2348 q 1116 2234 1130 2290 q 1067 2085 1086 2173 q 1007 1906 1007 1919 l 1002 1903 l 1004 1898 q 969 1786 969 1816 q 928 1653 950 1756 q 888 1556 911 1603 l 888 1550 l 890 1545 l 833 1350 q 795 1192 833 1342 q 771 1116 785 1135 q 755 1046 759 1046 l 758 1040 q 741 948 750 1010 q 736 943 736 947 q 739 935 736 940 q 701 701 714 820 q 695 690 699 701 l 698 685 q 695 674 698 684 q 698 671 695 671 q 682 566 695 627 q 684 563 682 563 q 665 422 678 478 l 668 408 q 652 283 652 320 q 633 167 638 185 q 635 156 635 162 q 633 145 635 150 q 635 134 635 140 q 625 102 635 125 l 627 96 l 627 91 q 606 34 627 45 q 603 37 603 34 l 597 34 l 570 34 q 543 37 557 34 l 513 31 l 513 34 l 508 31 l 500 31 q 161 -39 161 -13 q 115 -58 124 -58 q 106 -56 112 -58 q 96 -58 102 -58 l 96 -47 q 139 91 117 2 q 161 170 155 133 q 182 259 172 176 q 207 340 198 298 q 231 419 222 364 l 229 425 q 261 536 236 433 q 296 677 271 558 q 321 753 309 695 q 334 823 330 753 q 342 848 338 823 l 340 853 q 359 913 359 908 q 364 921 361 913 q 361 929 361 926 q 367 937 364 937 q 364 940 367 940 q 391 1048 364 964 q 424 1152 391 1059 q 421 1160 421 1157 l 424 1165 l 421 1171 l 440 1244 q 437 1246 440 1246 q 473 1417 459 1314 q 494 1501 487 1501 q 489 1523 489 1512 l 489 1537 q 532 1789 511 1632 q 551 1865 544 1859 l 551 1895 q 559 1930 557 1930 l 557 1935 q 578 2055 568 1984 l 576 2060 q 597 2201 590 2166 q 600 2223 597 2208 q 597 2226 600 2226 l 619 2410 l 616 2435 q 627 2483 616 2438 l 627 2497 l 633 2497 l 633 2492 l 644 2500 q 665 2494 665 2498 q 668 2497 668 2494 l 687 2494 l 714 2497 l 714 2494 l 720 2497 l 760 2497 q 771 2500 766 2497 q 782 2497 776 2497 q 823 2502 797 2497 l 828 2500 q 850 2505 845 2505 l 850 2502 q 852 2505 852 2502 l 866 2502 l 893 2502 q 896 2500 896 2502 l 923 2508 l 923 2505 q 991 2516 938 2513 q 1116 2543 1111 2543 l 1116 2540 q 1194 2559 1146 2551 m 307 2464 q 375 2437 307 2460 q 478 2304 453 2394 q 500 2166 500 2220 l 497 2166 l 500 2161 l 500 2117 q 497 2104 500 2108 l 500 2087 l 500 2049 q 497 2047 500 2047 l 500 2041 q 494 2009 498 2009 q 497 2006 494 2006 q 478 1900 491 1937 q 383 1746 446 1803 q 237 1683 338 1683 q 90 1762 172 1683 q 17 1908 37 1815 l 20 1908 q 6 2104 6 1959 q 9 2120 6 2106 l 6 2134 q 25 2231 16 2231 l 22 2237 q 52 2321 28 2275 q 101 2389 56 2321 q 193 2443 142 2424 q 291 2464 193 2448 l 307 2464 m 223 2074 l 220 2074 q 223 2071 220 2071 l 220 2058 l 220 2028 q 223 2017 220 2022 q 220 2003 220 2012 l 223 1984 q 220 1982 223 1982 l 223 1968 l 223 1946 q 248 1849 237 1849 q 304 1895 280 1849 q 321 1949 313 1913 q 318 1952 321 1952 l 323 2039 l 321 2044 q 323 2052 321 2047 l 318 2106 l 321 2112 q 318 2115 321 2115 q 321 2136 321 2129 l 318 2180 l 321 2185 q 296 2272 316 2266 l 283 2272 q 272 2269 277 2272 l 267 2272 q 226 2166 226 2257 q 223 2074 223 2120 m 1040 774 q 1145 750 1121 768 q 1219 620 1197 715 q 1240 435 1235 545 q 1238 416 1238 425 q 1240 368 1240 372 q 1235 357 1238 357 l 1238 351 l 1238 338 l 1235 321 l 1238 316 q 1194 129 1238 218 q 1140 66 1175 81 q 1050 34 1090 34 l 1013 34 q 825 142 905 34 q 798 224 808 166 q 795 227 795 224 l 795 254 q 793 262 795 262 q 795 270 793 264 q 793 403 793 354 q 825 636 805 604 q 912 739 849 706 q 1040 774 941 763 m 988 511 q 991 509 988 509 q 985 492 989 492 l 988 487 q 983 444 983 463 l 985 430 l 983 430 q 985 427 983 427 q 977 392 982 392 l 980 359 l 980 332 q 977 305 980 319 q 1007 210 977 252 q 1050 270 1050 220 q 1059 332 1057 270 q 1056 346 1059 341 q 1059 370 1059 361 l 1059 452 q 1056 463 1059 458 l 1059 468 q 1026 587 1059 587 l 1015 587 q 988 511 1002 587 z "},"&":{"ha":1041,"x_min":12,"x_max":1021,"o":"m 547 2631 q 614 2620 559 2631 l 620 2622 q 774 2571 774 2593 q 856 2471 818 2555 q 894 2319 894 2378 q 899 2300 899 2319 l 894 2292 l 897 2278 l 894 2273 q 897 2264 897 2267 l 894 2264 q 899 2240 897 2260 q 897 2232 899 2237 l 902 2183 l 899 2183 l 902 2178 l 902 2159 l 905 2142 l 902 2137 q 905 2121 905 2123 q 902 2085 905 2119 l 905 2080 q 899 2050 902 2050 q 905 2028 905 2040 q 902 2026 905 2026 q 905 2023 902 2023 q 902 2007 902 2009 q 899 1885 899 1897 q 894 1863 894 1868 q 897 1847 897 1849 q 894 1844 897 1844 l 897 1830 l 897 1798 l 872 1692 q 869 1687 869 1692 l 872 1681 q 829 1589 854 1629 q 807 1548 829 1582 q 761 1467 807 1544 q 707 1388 737 1438 q 609 1274 703 1388 q 574 1247 602 1274 q 661 1033 623 1131 q 674 1014 672 1014 l 677 1014 q 674 1025 677 1020 q 680 1074 680 1052 l 680 1101 q 658 1244 673 1189 q 758 1269 684 1257 q 772 1274 758 1274 q 780 1272 777 1272 q 888 1301 788 1281 q 913 1312 888 1304 q 954 1291 954 1312 q 964 1269 959 1291 l 962 1263 l 967 1250 q 964 1239 967 1249 q 972 1131 972 1192 l 972 1071 q 959 935 966 935 l 962 930 q 913 659 943 793 q 899 607 909 659 q 886 583 897 607 q 888 580 886 580 l 886 566 l 886 558 q 899 526 897 545 q 954 433 933 475 l 994 379 q 1013 363 994 374 q 1021 347 1013 355 q 972 265 972 268 q 954 224 969 265 q 899 130 921 180 q 845 40 871 88 q 815 -20 831 31 q 810 -25 815 -25 l 807 -25 q 745 154 777 51 q 731 186 740 154 l 728 186 q 688 130 722 186 q 541 13 610 38 q 416 -9 477 -9 q 414 -6 414 -9 q 373 -12 380 -9 q 237 40 318 -12 q 132 165 191 73 q 26 428 39 316 q 15 509 18 471 l 18 509 q 12 545 12 525 q 28 702 12 631 q 56 870 39 822 q 94 1003 77 968 l 91 1008 l 91 1022 q 107 1060 96 1027 q 145 1147 132 1103 q 178 1204 178 1188 q 194 1228 194 1213 q 208 1253 202 1228 q 221 1282 221 1269 q 156 1394 176 1343 q 72 1613 93 1473 q 56 1771 56 1686 l 56 1798 q 58 1809 56 1804 q 56 1820 56 1813 l 56 1844 q 53 1858 56 1853 q 56 1866 53 1860 q 53 1931 53 1904 l 53 1955 q 56 1985 53 1967 l 53 1990 q 56 2015 56 2005 l 56 2045 q 58 2047 56 2047 l 56 2053 q 58 2056 56 2056 q 56 2061 58 2061 q 69 2159 58 2127 q 66 2161 69 2161 q 75 2197 70 2197 q 72 2199 75 2199 q 121 2378 83 2300 q 159 2443 144 2443 q 281 2563 169 2483 q 335 2593 291 2563 q 419 2622 389 2606 q 441 2620 426 2622 l 463 2625 l 468 2622 l 484 2625 l 484 2622 q 511 2628 491 2625 l 511 2625 q 547 2631 515 2628 m 522 2346 q 460 2207 490 2311 q 438 2107 446 2167 q 411 1925 422 2039 l 414 1920 l 411 1906 q 414 1904 411 1904 q 408 1855 408 1868 l 411 1836 q 408 1828 408 1830 q 411 1820 411 1822 q 408 1811 408 1814 q 411 1803 411 1806 l 408 1798 l 422 1706 l 419 1706 q 430 1657 430 1676 l 430 1651 q 427 1649 430 1649 q 452 1584 443 1584 l 452 1581 q 460 1543 452 1564 q 563 1638 485 1543 q 604 1711 602 1680 q 601 1714 601 1711 q 609 1716 606 1716 q 625 1801 620 1801 l 623 1806 l 623 1817 q 625 1820 623 1820 q 623 1828 623 1825 q 628 1952 623 1877 l 625 1958 q 631 1982 628 1982 l 628 1996 q 620 2145 628 2094 l 623 2150 q 563 2311 623 2190 q 522 2346 542 2346 m 392 938 q 319 683 351 852 l 319 680 q 321 669 319 674 q 319 659 319 665 l 319 656 q 321 645 319 650 l 319 640 q 357 463 319 570 q 425 420 401 420 l 438 420 q 509 463 495 420 q 538 501 520 474 l 536 507 q 549 555 549 534 q 481 734 549 588 l 481 737 q 484 740 481 740 q 471 770 475 770 q 446 827 471 773 q 397 927 413 927 l 395 938 l 392 938 z "},"'":{"ha":475,"x_min":13,"x_max":433,"o":"m 433 2854 q 423 2743 424 2750 q 402 2614 404 2633 q 354 2356 377 2488 q 351 2322 352 2334 q 277 2326 288 2326 q 233 2323 262 2326 q 13 2273 96 2296 q 45 2435 22 2334 q 90 2695 59 2480 q 97 2836 96 2753 q 163 2828 140 2829 q 433 2854 385 2837 z "},"(":{"ha":859,"x_min":20,"x_max":826,"o":"m 584 3022 q 640 3008 640 3015 q 643 3012 643 3008 l 711 2995 l 716 2998 l 812 2971 q 826 2951 826 2954 l 826 2944 q 814 2901 817 2901 l 817 2894 q 801 2691 812 2879 q 804 2688 801 2688 l 801 2674 l 804 2657 l 798 2654 q 801 2650 798 2650 l 798 2633 l 798 2627 q 792 2546 798 2576 l 795 2539 q 788 2157 784 2370 q 545 2134 634 2157 q 446 2086 516 2134 q 387 1927 387 2025 l 378 1870 q 381 1866 378 1866 q 367 1731 372 1731 q 370 1725 367 1725 l 364 1634 l 367 1613 q 361 1552 361 1579 l 361 1529 q 364 1515 361 1521 q 358 1474 362 1510 l 361 1468 l 355 1417 q 358 1407 358 1411 q 355 1397 358 1404 q 358 1383 355 1390 q 355 1286 355 1323 l 355 1265 q 358 1228 355 1251 q 355 1211 355 1223 l 358 1204 q 355 1194 355 1198 l 358 1187 q 355 1184 358 1184 l 358 1167 l 358 1160 q 355 1157 358 1157 q 358 1154 355 1154 q 361 1063 361 1091 l 361 1015 q 364 978 361 1001 q 361 975 364 975 l 364 958 l 364 921 q 367 907 364 913 l 364 901 q 398 725 372 779 q 524 618 456 627 q 772 624 639 604 q 770 434 770 437 q 787 214 770 395 l 787 123 q 792 96 792 99 l 792 25 q 798 -1 798 1 q 801 -140 798 -35 q 753 -170 786 -146 q 621 -228 707 -208 q 572 -248 572 -243 l 561 -245 q 516 -258 546 -245 q 511 -252 516 -252 l 496 -258 q 494 -255 494 -258 l 479 -258 q 353 -228 425 -258 q 172 -56 292 -228 q 94 191 129 34 q 54 519 71 283 l 54 539 l 57 539 l 32 758 q 35 795 35 789 l 26 853 q 28 914 26 859 q 23 954 28 922 q 28 1066 28 1038 q 20 1160 26 1160 l 23 1184 l 23 1218 q 20 1343 23 1278 q 23 1400 23 1369 q 20 1438 23 1408 q 23 1465 20 1440 q 20 1505 23 1481 q 23 1651 23 1582 l 23 1677 q 20 1691 23 1685 q 26 1745 22 1699 q 23 1755 26 1748 q 77 2296 45 2102 q 130 2553 91 2397 q 245 2823 181 2722 q 338 2941 245 2842 q 584 3022 485 3022 z "},")":{"ha":888,"x_min":20,"x_max":826,"o":"m 262 -258 q 206 -245 206 -252 q 203 -248 203 -245 l 136 -231 l 130 -235 l 35 -208 q 20 -187 20 -191 l 20 -180 q 32 -137 30 -137 l 28 -130 q 45 73 34 -115 q 43 76 45 76 l 45 90 l 43 106 l 49 110 q 45 113 49 113 l 49 130 l 49 137 q 54 218 49 188 l 52 224 q 58 606 62 394 q 302 630 212 606 q 401 677 330 630 q 460 836 460 739 l 468 894 q 465 897 468 897 q 479 1032 474 1032 q 477 1039 479 1039 l 482 1130 l 479 1150 q 485 1211 485 1184 l 485 1235 q 482 1249 485 1242 q 488 1289 484 1254 l 485 1295 l 491 1346 q 488 1356 488 1353 q 491 1367 488 1360 q 488 1380 491 1374 q 491 1478 491 1440 l 491 1498 q 488 1535 491 1512 q 491 1552 491 1541 l 488 1559 q 491 1569 491 1566 l 488 1576 q 491 1579 488 1579 l 488 1596 l 488 1603 q 491 1607 488 1607 q 488 1610 491 1610 q 485 1701 485 1672 l 485 1748 q 482 1786 485 1763 q 485 1789 482 1789 l 482 1806 l 482 1843 q 479 1856 482 1851 l 482 1863 q 448 2039 474 1985 q 321 2146 390 2137 q 75 2140 208 2160 q 77 2330 77 2326 q 60 2549 77 2368 l 60 2640 q 54 2667 54 2665 l 54 2738 q 49 2765 49 2762 q 45 2904 49 2799 q 94 2934 60 2909 q 226 2991 139 2971 q 274 3012 274 3006 l 285 3008 q 330 3022 300 3008 q 336 3015 330 3015 l 350 3022 q 353 3019 353 3022 l 367 3022 q 494 2991 421 3022 q 674 2819 555 2991 q 753 2572 718 2730 q 792 2245 776 2480 l 792 2224 l 789 2224 l 814 2005 q 812 1968 812 1975 l 821 1910 q 817 1849 821 1904 q 823 1809 817 1841 q 817 1697 817 1726 q 826 1603 821 1603 l 823 1579 l 823 1546 q 826 1421 823 1486 q 823 1363 823 1395 q 826 1326 823 1356 q 823 1299 826 1323 q 826 1259 823 1282 q 823 1113 823 1181 l 823 1086 q 826 1073 823 1078 q 821 1019 824 1064 q 823 1008 821 1015 q 770 468 801 662 q 716 211 755 367 q 601 -59 665 41 q 508 -177 601 -78 q 262 -258 361 -258 z "},"*":{"ha":933,"x_min":20,"x_max":913,"o":"m 300 2783 q 378 2766 319 2783 q 571 2764 534 2764 q 628 2766 618 2766 l 631 2761 q 593 2579 593 2652 l 593 2552 l 587 2544 l 587 2541 l 590 2541 q 715 2625 675 2596 q 728 2639 720 2625 q 785 2682 736 2639 l 791 2682 q 845 2555 791 2671 q 913 2433 845 2550 q 772 2376 897 2422 q 707 2343 772 2365 l 682 2324 q 783 2273 720 2294 q 853 2235 809 2249 l 878 2221 q 804 2121 806 2137 q 777 2069 796 2115 q 750 2001 756 2042 l 745 2001 q 639 2080 726 2023 l 566 2123 l 566 2118 q 598 1999 566 2089 q 609 1971 609 1987 q 365 1933 491 1955 q 283 1917 359 1933 l 294 1980 l 292 1985 q 319 2107 300 1998 l 321 2107 q 319 2110 321 2110 l 321 2123 l 321 2150 q 245 2110 306 2150 q 227 2096 227 2102 l 137 2042 q 50 2205 105 2128 q 20 2251 43 2225 l 20 2256 q 254 2351 56 2256 l 254 2354 q 91 2419 189 2402 q 37 2438 41 2430 q 72 2503 37 2458 q 156 2696 121 2576 q 170 2720 163 2719 l 172 2720 q 208 2658 176 2720 q 300 2555 275 2576 q 313 2544 300 2553 l 316 2549 l 316 2587 q 311 2669 316 2636 l 313 2669 l 311 2674 l 311 2690 q 294 2780 311 2732 l 300 2783 z "},"+":{"ha":1058,"x_min":20,"x_max":1013,"o":"m 769 1594 q 848 1600 812 1600 q 981 1619 859 1606 q 1010 1628 981 1622 q 1013 1625 1010 1625 l 1005 1587 q 989 1405 1005 1565 q 983 1397 989 1397 q 986 1283 986 1325 l 986 1115 q 981 1109 986 1109 q 951 1115 977 1109 l 943 1115 q 932 1112 937 1115 q 875 1120 923 1115 l 804 1120 q 758 1118 790 1120 l 758 1120 q 755 1118 755 1120 q 749 1118 753 1118 q 750 1112 750 1115 q 747 1109 747 1112 l 750 1109 q 747 1063 747 1078 l 747 993 q 755 936 753 945 q 753 925 753 931 l 753 917 q 758 887 758 890 q 753 882 758 882 l 585 882 q 471 884 543 882 q 463 879 471 879 q 281 863 303 863 l 243 854 q 240 857 243 857 q 248 887 245 887 q 267 1020 262 1008 q 274 1099 267 1056 l 270 1099 q 259 1093 263 1093 q 23 1074 164 1093 l 20 1080 q 39 1145 20 1084 q 37 1147 39 1147 q 47 1213 37 1152 l 47 1232 q 56 1297 47 1270 q 53 1299 56 1299 q 72 1465 72 1460 l 72 1495 q 85 1565 72 1565 q 91 1568 91 1565 l 110 1565 l 235 1565 q 302 1566 271 1565 q 302 1633 302 1597 l 302 1758 l 300 1777 q 302 1782 302 1777 q 373 1796 302 1796 l 403 1796 q 568 1815 408 1796 q 571 1812 568 1812 q 636 1820 598 1820 l 655 1820 q 720 1831 716 1831 q 723 1828 720 1828 q 788 1847 784 1847 l 793 1845 q 774 1609 774 1704 q 769 1598 774 1605 l 769 1594 z "},",":{"ha":624,"x_min":20,"x_max":604,"o":"m 582 522 l 593 522 q 604 506 604 517 q 568 411 593 488 q 547 338 562 411 q 506 180 540 336 q 479 88 492 125 q 452 -4 469 66 q 427 -107 445 -12 q 411 -180 422 -116 q 406 -186 406 -181 l 408 -191 q 387 -208 403 -208 q 365 -202 378 -208 q 346 -208 351 -208 q 300 -205 314 -205 q 273 -216 273 -210 l 267 -213 q 245 -216 252 -216 l 240 -213 q 232 -216 235 -216 l 227 -213 q 178 -221 214 -221 l 175 -221 q 88 -245 159 -230 q 31 -264 77 -254 l 28 -264 q 20 -256 24 -264 q 39 -172 29 -199 l 37 -167 q 58 -110 58 -114 l 56 -104 q 80 -23 61 -72 q 107 83 80 -17 l 104 88 q 142 254 129 155 q 156 332 146 254 q 175 465 161 340 q 172 473 172 471 q 180 495 178 473 q 202 503 195 495 l 210 503 q 221 500 216 503 q 232 503 226 503 l 248 500 q 251 503 251 500 l 270 500 l 292 500 q 294 498 294 500 q 297 500 297 498 l 311 498 q 349 500 315 498 l 354 498 l 359 500 q 370 495 370 498 q 400 500 376 497 q 406 495 401 495 q 457 503 420 495 l 468 500 q 509 509 481 509 l 514 509 q 517 506 517 509 q 582 522 541 514 z "},"-":{"ha":1034,"x_min":20,"x_max":1013,"o":"m 1010 1628 q 1013 1625 1010 1625 l 1005 1587 q 989 1405 1005 1565 q 983 1397 989 1397 q 986 1283 986 1325 l 986 1115 q 981 1109 986 1109 q 951 1115 977 1109 l 943 1115 q 932 1112 937 1115 q 875 1120 923 1115 l 804 1120 q 758 1118 790 1120 l 758 1120 q 755 1118 755 1120 q 696 1120 715 1120 l 612 1120 q 560 1118 590 1120 q 549 1120 555 1120 q 411 1109 523 1116 q 340 1099 372 1099 l 270 1099 q 259 1093 263 1093 q 23 1074 164 1093 l 20 1080 q 39 1145 20 1084 q 37 1147 39 1147 q 47 1213 37 1152 l 47 1232 q 56 1297 47 1270 q 53 1299 56 1299 q 72 1465 72 1460 l 72 1495 q 85 1565 72 1565 q 91 1568 91 1565 l 110 1565 l 235 1565 q 414 1571 351 1565 l 414 1568 q 416 1571 416 1568 l 481 1565 l 498 1571 q 500 1568 500 1571 q 538 1573 521 1573 l 544 1573 q 547 1571 547 1573 l 557 1576 l 563 1573 q 590 1579 590 1575 l 601 1576 q 663 1579 651 1579 q 707 1590 663 1586 l 720 1584 q 848 1600 791 1600 q 981 1619 859 1606 q 1010 1628 981 1622 z "},"­":{"ha":1034,"x_min":20,"x_max":1013,"o":"m 1010 1628 q 1013 1625 1010 1625 l 1005 1587 q 989 1405 1005 1565 q 983 1397 989 1397 q 986 1283 986 1325 l 986 1115 q 981 1109 986 1109 q 951 1115 977 1109 l 943 1115 q 932 1112 937 1115 q 875 1120 923 1115 l 804 1120 q 758 1118 790 1120 l 758 1120 q 755 1118 755 1120 q 696 1120 715 1120 l 612 1120 q 560 1118 590 1120 q 549 1120 555 1120 q 411 1109 523 1116 q 340 1099 372 1099 l 270 1099 q 259 1093 263 1093 q 23 1074 164 1093 l 20 1080 q 39 1145 20 1084 q 37 1147 39 1147 q 47 1213 37 1152 l 47 1232 q 56 1297 47 1270 q 53 1299 56 1299 q 72 1465 72 1460 l 72 1495 q 85 1565 72 1565 q 91 1568 91 1565 l 110 1565 l 235 1565 q 414 1571 351 1565 l 414 1568 q 416 1571 416 1568 l 481 1565 l 498 1571 q 500 1568 500 1571 q 538 1573 521 1573 l 544 1573 q 547 1571 547 1573 l 557 1576 l 563 1573 q 590 1579 590 1575 l 601 1576 q 663 1579 651 1579 q 707 1590 663 1586 l 720 1584 q 848 1600 791 1600 q 981 1619 859 1606 q 1010 1628 981 1622 z "},".":{"ha":480,"x_min":17,"x_max":444,"o":"m 443 570 q 441 458 441 466 q 444 334 444 353 q 444 76 440 166 q 443 42 444 54 q 357 46 369 46 q 305 43 338 46 q 17 -7 113 16 q 39 155 22 54 q 69 415 52 200 q 64 556 71 473 q 142 548 115 549 q 443 570 388 553 z "},"/":{"ha":1445,"x_min":96,"x_max":1388,"o":"m 128 -58 l 104 -58 l 96 -53 q 119 18 113 -21 q 140 53 130 26 q 166 123 157 66 q 201 199 185 153 q 227 267 209 211 q 285 416 260 328 q 355 595 355 583 l 361 598 l 359 604 q 401 715 399 685 q 450 848 421 745 q 496 945 470 898 l 496 951 l 494 956 l 563 1152 q 611 1309 564 1159 q 640 1385 625 1366 q 661 1455 656 1455 l 658 1461 q 680 1553 667 1491 q 686 1558 686 1554 q 684 1567 686 1561 q 736 1800 715 1681 q 742 1811 738 1800 l 740 1816 q 743 1827 740 1817 q 741 1830 743 1830 q 763 1935 746 1874 q 761 1938 764 1938 q 789 2079 772 2023 l 787 2093 q 810 2218 808 2181 q 837 2334 830 2316 q 835 2345 834 2339 q 838 2356 835 2351 q 836 2367 836 2361 q 849 2399 836 2376 l 846 2405 l 847 2410 q 872 2467 850 2456 q 874 2464 875 2467 l 880 2467 l 907 2467 q 934 2464 920 2467 l 964 2470 l 964 2467 l 970 2470 l 978 2470 q 1321 2540 1320 2514 q 1369 2559 1359 2559 q 1377 2557 1371 2559 q 1388 2559 1381 2559 l 1387 2549 q 1335 2410 1362 2499 q 1308 2332 1316 2368 q 1281 2242 1297 2325 q 1252 2161 1263 2203 q 1223 2082 1236 2137 l 1225 2077 q 1185 1965 1217 2068 q 1141 1824 1174 1943 q 1112 1748 1128 1806 q 1095 1678 1103 1748 q 1085 1653 1091 1678 l 1087 1648 q 1065 1588 1065 1593 q 1059 1580 1062 1588 q 1061 1572 1061 1575 q 1055 1564 1058 1564 q 1057 1561 1055 1561 q 1024 1453 1056 1537 q 985 1350 1023 1442 q 987 1341 987 1344 l 984 1336 l 987 1331 l 963 1257 q 966 1255 963 1255 q 920 1084 939 1187 q 893 1000 900 1000 q 897 978 898 989 l 896 964 q 837 712 869 869 q 814 636 821 642 l 812 606 q 802 571 804 571 l 804 566 q 774 446 790 517 l 777 441 q 747 300 756 335 q 743 278 746 293 q 745 275 743 275 l 712 91 l 713 66 q 699 18 713 63 l 699 4 l 693 4 l 694 9 l 682 1 q 661 7 661 3 q 658 4 658 7 l 639 7 l 612 4 l 612 7 l 606 4 l 566 4 q 555 1 559 4 q 544 4 550 4 q 503 -1 529 4 l 498 1 q 475 -4 481 -4 l 476 -1 q 473 -4 473 -1 l 460 -1 l 433 -1 q 430 1 430 -1 l 402 -7 l 402 -4 q 334 -15 387 -12 q 208 -42 212 -42 l 208 -39 q 128 -58 176 -50 z "},":":{"ha":801,"x_min":277,"x_max":703,"o":"m 703 1918 q 701 1806 701 1813 q 703 1681 703 1700 q 703 1423 700 1514 q 703 1390 703 1402 q 616 1394 629 1394 q 565 1391 597 1394 q 277 1341 373 1364 q 299 1502 281 1401 q 329 1763 312 1548 q 323 1904 330 1821 q 402 1895 375 1896 q 703 1918 648 1900 m 327 615 q 400 599 332 615 q 403 602 403 599 q 430 596 430 599 l 435 599 q 465 593 465 597 l 471 596 q 503 591 503 595 l 509 593 l 517 593 q 555 591 532 593 q 563 593 560 593 l 563 591 l 568 593 l 579 593 q 617 596 594 593 q 625 593 623 593 l 642 602 l 652 602 q 680 572 680 602 l 680 545 q 685 479 680 504 l 682 479 q 685 477 682 477 l 677 406 q 685 390 682 406 q 682 333 682 355 l 682 314 q 674 271 682 300 q 680 265 680 270 l 674 262 q 682 165 682 236 l 680 165 q 685 135 685 154 l 685 119 q 666 86 674 86 q 609 75 656 86 l 609 78 q 585 73 604 75 l 574 75 l 522 64 l 495 64 q 338 26 432 43 q 332 21 338 21 q 330 24 330 21 q 294 13 309 13 l 292 18 l 292 24 q 297 45 292 26 q 294 51 297 51 q 308 157 302 90 q 305 203 308 182 l 311 290 q 308 298 308 295 q 311 317 311 309 q 308 325 311 319 q 313 341 311 341 l 311 347 l 311 393 q 308 404 311 399 q 316 422 313 422 q 311 452 313 428 l 313 452 q 311 455 313 455 q 313 496 313 482 l 313 498 q 305 604 313 570 q 327 615 327 610 z "},";":{"ha":766,"x_min":146,"x_max":729,"o":"m 707 514 l 718 514 q 729 498 729 509 q 694 403 718 479 q 672 330 688 403 q 631 172 665 328 q 604 80 617 117 q 577 -12 594 58 q 553 -115 570 -20 q 536 -189 548 -124 q 531 -194 531 -189 l 534 -199 q 512 -216 528 -216 q 490 -210 504 -216 q 471 -216 477 -216 q 425 -213 439 -213 q 398 -224 398 -218 l 393 -221 q 371 -224 378 -224 l 366 -221 q 357 -224 360 -224 l 352 -221 q 303 -229 339 -229 l 300 -229 q 214 -254 285 -238 q 157 -273 202 -262 l 154 -273 q 146 -264 150 -273 q 165 -180 155 -208 l 162 -175 q 184 -118 184 -122 l 181 -113 q 205 -31 186 -80 q 233 75 205 -25 l 230 80 q 268 245 254 147 q 281 324 272 245 q 300 457 286 332 q 298 465 298 463 q 306 487 303 465 q 328 495 321 487 l 336 495 q 347 492 342 495 q 357 495 351 495 l 374 492 q 376 495 376 492 l 395 492 l 417 492 q 420 490 420 492 q 422 492 422 490 l 436 490 q 474 492 440 490 l 479 490 l 485 492 q 496 487 496 490 q 526 492 501 489 q 531 487 526 487 q 583 495 546 487 l 593 492 q 634 500 606 500 l 640 500 q 642 498 642 500 q 707 514 667 506 m 705 1921 q 703 1809 703 1817 q 705 1685 705 1704 q 705 1427 702 1517 q 705 1393 705 1405 q 618 1397 631 1397 q 567 1394 600 1397 q 279 1344 375 1367 q 301 1506 283 1404 q 331 1766 314 1551 q 326 1907 332 1824 q 404 1899 377 1900 q 705 1921 650 1904 z "},";":{"ha":766,"x_min":146,"x_max":729,"o":"m 707 514 l 718 514 q 729 498 729 509 q 694 403 718 479 q 672 330 688 403 q 631 172 665 328 q 604 80 617 117 q 577 -12 594 58 q 553 -115 570 -20 q 536 -189 548 -124 q 531 -194 531 -189 l 534 -199 q 512 -216 528 -216 q 490 -210 504 -216 q 471 -216 477 -216 q 425 -213 439 -213 q 398 -224 398 -218 l 393 -221 q 371 -224 378 -224 l 366 -221 q 357 -224 360 -224 l 352 -221 q 303 -229 339 -229 l 300 -229 q 214 -254 285 -238 q 157 -273 202 -262 l 154 -273 q 146 -264 150 -273 q 165 -180 155 -208 l 162 -175 q 184 -118 184 -122 l 181 -113 q 205 -31 186 -80 q 233 75 205 -25 l 230 80 q 268 245 254 147 q 281 324 272 245 q 300 457 286 332 q 298 465 298 463 q 306 487 303 465 q 328 495 321 487 l 336 495 q 347 492 342 495 q 357 495 351 495 l 374 492 q 376 495 376 492 l 395 492 l 417 492 q 420 490 420 492 q 422 492 422 490 l 436 490 q 474 492 440 490 l 479 490 l 485 492 q 496 487 496 490 q 526 492 501 489 q 531 487 526 487 q 583 495 546 487 l 593 492 q 634 500 606 500 l 640 500 q 642 498 642 500 q 707 514 667 506 m 705 1921 q 703 1809 703 1817 q 705 1685 705 1704 q 705 1427 702 1517 q 705 1393 705 1405 q 618 1397 631 1397 q 567 1394 600 1397 q 279 1344 375 1367 q 301 1506 283 1404 q 331 1766 314 1551 q 326 1907 332 1824 q 404 1899 377 1900 q 705 1921 650 1904 z "},"<":{"ha":766,"x_min":25,"x_max":715,"o":"m 715 1686 l 715 1683 q 709 1555 709 1592 l 709 1548 q 707 1510 709 1520 l 709 1492 q 707 1436 707 1457 l 707 1425 q 707 1410 707 1417 q 707 1407 707 1407 l 709 1254 l 709 1254 l 709 1246 l 709 1243 q 705 1227 709 1238 q 670 1251 688 1235 l 669 1244 l 666 1247 l 654 1246 q 635 1256 644 1245 q 632 1252 633 1255 q 625 1255 628 1255 l 621 1255 q 613 1251 618 1255 q 608 1257 610 1257 l 603 1257 q 602 1261 602 1257 q 600 1257 600 1257 l 596 1267 l 581 1266 q 578 1263 580 1266 q 576 1266 577 1266 q 576 1262 576 1266 l 572 1265 l 564 1265 l 560 1268 q 557 1265 559 1265 l 557 1268 l 555 1264 l 554 1264 q 553 1268 553 1264 q 553 1264 553 1268 l 548 1267 l 538 1267 q 535 1263 536 1267 q 513 1268 531 1270 q 512 1272 512 1268 l 508 1268 l 500 1267 q 491 1270 495 1267 l 446 1252 l 444 1256 q 438 1251 440 1252 q 426 1254 431 1251 l 410 1246 q 405 1249 408 1249 l 399 1244 l 399 1249 q 399 1244 399 1249 q 397 1249 398 1244 q 377 1236 387 1240 q 375 1239 376 1239 l 368 1231 l 368 1235 l 367 1231 l 366 1231 q 353 1223 357 1230 q 353 1226 353 1223 l 345 1222 l 334 1221 q 307 1208 314 1219 q 307 1211 307 1208 l 293 1203 l 292 1206 q 248 1177 255 1185 q 245 1181 246 1181 q 243 1169 244 1181 q 248 1162 245 1169 q 248 1166 248 1162 q 336 1091 271 1131 q 339 1084 336 1086 q 340 1088 339 1088 q 341 1080 340 1080 l 343 1080 q 374 1053 374 1065 l 374 1053 l 379 1057 q 396 1044 392 1050 l 397 1048 q 438 1021 406 1034 q 440 1017 438 1017 l 443 1017 l 445 1025 q 450 1010 446 1010 l 454 1011 l 454 1015 l 453 1022 l 454 1022 l 456 1019 q 458 1023 457 1023 q 459 1008 458 1008 q 484 995 467 1008 l 485 998 q 489 991 487 991 l 492 991 q 513 986 500 992 q 513 989 513 986 l 518 986 l 526 987 q 529 991 528 987 q 542 981 531 987 q 546 989 545 988 q 551 981 551 986 q 551 985 551 981 q 559 975 557 982 l 561 982 l 562 975 l 563 979 l 564 979 q 567 975 566 979 q 568 979 568 975 l 587 973 q 587 977 587 973 l 610 971 q 612 975 610 971 q 623 972 619 972 q 664 972 635 973 l 665 975 q 675 965 675 970 l 681 973 q 687 959 687 965 l 687 947 q 686 932 687 939 q 687 922 687 925 q 686 899 686 909 l 686 884 q 688 802 686 839 l 688 780 q 691 635 688 708 l 691 632 q 694 532 691 541 l 694 505 q 699 380 699 401 l 698 376 q 663 425 688 397 q 661 421 661 421 q 633 449 661 429 q 612 462 631 448 l 611 458 q 553 502 602 476 q 507 539 540 519 q 505 535 506 535 q 490 545 499 541 l 486 541 q 455 574 482 541 l 452 570 q 442 577 444 577 q 441 573 441 576 l 438 576 q 370 635 410 589 q 231 743 331 668 q 123 869 179 779 q 31 977 57 963 q 25 1252 27 1180 q 113 1328 70 1308 q 199 1373 156 1348 q 338 1451 242 1398 q 490 1542 409 1489 q 597 1588 526 1571 q 684 1653 636 1609 q 711 1689 694 1662 q 711 1693 711 1693 l 714 1693 q 715 1686 715 1693 z "},"=":{"ha":1062,"x_min":20,"x_max":1013,"o":"m 1010 1606 q 1013 1603 1010 1603 l 1005 1565 q 989 1383 1005 1543 q 983 1375 989 1375 q 986 1261 986 1303 l 986 1093 q 981 1088 986 1088 q 951 1093 977 1088 l 943 1093 q 932 1090 937 1093 q 875 1099 923 1093 l 804 1099 q 758 1096 790 1099 l 758 1099 q 755 1096 755 1099 q 696 1099 715 1099 l 612 1099 q 560 1096 590 1099 q 549 1099 555 1099 q 411 1088 523 1094 q 340 1077 372 1077 l 270 1077 q 259 1072 263 1072 q 23 1053 164 1072 l 20 1058 q 39 1123 20 1062 q 37 1126 39 1126 q 47 1191 37 1130 l 47 1210 q 56 1275 47 1248 q 53 1278 56 1278 q 72 1443 72 1438 l 72 1473 q 85 1544 72 1544 q 91 1546 91 1544 l 110 1544 l 235 1544 q 414 1549 351 1544 l 414 1546 q 416 1549 416 1546 l 481 1544 l 498 1549 q 500 1546 500 1549 q 538 1552 521 1552 l 544 1552 q 547 1549 547 1552 l 557 1554 l 563 1552 q 590 1557 590 1554 l 601 1554 q 663 1557 651 1557 q 707 1568 663 1565 l 720 1563 q 848 1579 791 1579 q 981 1598 859 1584 q 1010 1606 981 1600 m 23 424 q 20 427 23 427 l 28 465 q 45 646 28 487 q 50 654 45 654 q 47 768 47 726 l 47 937 q 53 942 47 942 q 83 937 56 942 l 91 937 q 102 939 97 937 q 159 931 111 937 l 229 931 q 275 934 243 931 l 275 931 q 278 934 278 931 q 338 931 319 931 l 422 931 q 473 934 444 931 q 484 931 478 931 q 623 942 511 936 q 693 953 662 953 l 764 953 q 774 958 770 958 q 1010 977 869 958 l 1013 972 q 994 907 1013 968 q 997 904 994 904 q 986 839 997 900 l 986 820 q 978 755 986 782 q 981 752 978 752 q 962 587 962 591 l 962 557 q 948 486 962 486 q 943 484 943 486 l 924 486 l 799 486 q 620 481 682 486 l 620 484 q 617 481 617 484 l 552 486 l 536 481 q 533 484 533 481 q 495 478 513 478 l 490 478 q 487 481 487 478 l 476 475 l 471 478 q 444 473 444 476 l 433 475 q 370 473 382 473 q 327 462 370 465 l 313 467 q 186 451 242 451 q 53 432 174 446 q 23 424 53 429 z "},">":{"ha":764,"x_min":25,"x_max":715,"o":"m 25 1686 q 26 1693 25 1693 l 29 1693 q 30 1689 30 1693 q 57 1653 46 1662 q 144 1588 104 1609 q 250 1542 214 1571 q 402 1451 332 1489 q 542 1373 498 1398 q 628 1328 585 1348 q 715 1252 671 1308 q 710 977 713 1180 q 618 869 684 963 q 510 743 562 779 q 370 635 410 668 q 302 576 331 589 l 299 573 q 298 577 299 576 q 288 570 297 577 l 286 574 q 254 541 258 541 l 251 545 q 235 535 241 541 q 233 539 235 535 q 187 502 201 519 q 130 458 138 476 l 128 462 q 108 449 110 448 q 80 421 80 429 q 77 425 79 421 q 43 376 52 397 l 41 380 q 47 505 41 401 l 47 532 q 50 632 50 541 l 50 635 q 53 780 53 708 l 53 802 q 55 884 55 839 l 55 899 q 54 922 55 909 q 54 932 54 925 q 54 947 54 939 l 54 959 q 60 973 54 965 l 66 965 q 75 975 66 970 l 77 972 q 117 972 105 973 q 129 975 121 972 q 131 971 130 971 l 153 977 q 154 973 153 973 l 173 979 q 174 975 173 975 q 176 979 175 979 l 178 979 l 179 975 l 180 982 l 182 975 q 189 985 184 982 q 190 981 189 981 q 195 989 190 986 q 199 981 196 988 q 212 991 210 987 q 214 987 213 987 l 222 986 l 227 989 q 228 986 227 986 q 248 991 240 992 l 252 991 q 256 998 254 991 l 257 995 q 281 1008 274 1008 q 283 1023 282 1008 q 285 1019 283 1023 l 286 1022 l 288 1022 l 287 1015 l 287 1011 l 290 1010 q 296 1025 294 1010 l 298 1017 l 300 1017 q 302 1021 302 1017 q 343 1048 334 1034 l 345 1044 q 361 1057 349 1050 l 366 1053 l 367 1053 q 397 1080 367 1065 l 399 1080 q 401 1088 401 1080 q 401 1084 401 1088 q 404 1091 404 1086 q 492 1166 469 1131 q 493 1162 492 1162 q 498 1169 496 1169 q 496 1181 496 1181 q 493 1177 494 1181 q 449 1206 486 1185 l 448 1203 l 434 1211 q 433 1208 434 1208 q 407 1221 427 1219 l 396 1222 l 388 1226 q 387 1223 388 1223 q 374 1231 384 1230 l 374 1231 l 372 1235 l 372 1231 l 366 1239 q 363 1236 365 1239 q 344 1249 353 1240 q 342 1244 342 1244 q 341 1249 342 1249 l 341 1244 l 336 1249 q 330 1246 333 1249 l 315 1254 q 302 1251 309 1251 q 296 1256 300 1252 l 295 1252 l 250 1270 q 241 1267 245 1267 l 233 1268 l 229 1272 q 227 1268 229 1268 q 205 1263 210 1270 q 203 1267 204 1267 l 193 1267 l 188 1264 q 187 1268 188 1268 q 186 1264 187 1264 l 186 1264 l 184 1268 l 184 1265 q 180 1268 182 1265 l 176 1265 l 168 1265 l 165 1262 q 164 1266 165 1266 q 162 1263 163 1266 q 159 1266 161 1266 l 144 1267 l 141 1257 q 138 1261 140 1257 q 138 1257 138 1257 l 133 1257 q 127 1251 130 1257 q 119 1255 123 1255 l 115 1255 q 109 1252 113 1255 q 105 1256 108 1255 q 86 1246 96 1245 l 75 1247 l 71 1244 l 71 1251 q 35 1227 53 1235 q 31 1243 31 1238 l 31 1246 l 32 1254 l 31 1254 l 34 1407 q 33 1410 33 1407 q 34 1425 34 1417 l 34 1436 q 32 1492 34 1457 l 33 1510 q 31 1548 32 1520 l 32 1555 q 25 1683 31 1592 l 25 1686 z "},"?":{"ha":1128,"x_min":20,"x_max":1108,"o":"m 468 2603 l 481 2600 l 495 2600 q 533 2603 510 2600 q 536 2600 536 2603 l 549 2603 l 612 2603 q 623 2600 618 2603 l 628 2603 q 726 2592 628 2597 l 864 2557 q 1008 2464 930 2534 q 1062 2364 1031 2445 q 1103 2250 1085 2357 l 1100 2250 l 1103 2245 l 1103 2223 q 1097 2193 1103 2204 q 1105 2163 1105 2167 l 1105 2090 l 1100 2082 q 1108 2055 1101 2062 l 1105 2036 l 1105 1987 q 1108 1976 1105 1981 q 1105 1965 1105 1971 q 1108 1957 1108 1960 l 1105 1957 q 1108 1954 1105 1954 q 1103 1919 1103 1926 l 1108 1887 q 1105 1868 1105 1876 l 1108 1849 q 1100 1800 1100 1849 l 1103 1794 q 1100 1792 1103 1792 l 1103 1778 l 1103 1775 q 1100 1762 1103 1767 l 1103 1746 q 1097 1724 1103 1734 q 1100 1694 1100 1706 l 1100 1672 q 1095 1667 1100 1667 l 1097 1662 l 1097 1615 q 1100 1564 1097 1594 l 1095 1553 q 1100 1539 1095 1539 q 1086 1428 1089 1480 q 1070 1366 1078 1424 l 1035 1282 q 948 1200 977 1206 q 761 1105 910 1167 q 712 1010 724 1065 q 701 962 704 988 l 699 962 q 701 916 701 930 l 701 878 l 696 859 q 699 850 699 853 l 680 845 q 636 856 642 856 l 623 856 q 587 850 600 856 q 585 853 585 850 l 571 850 l 549 850 q 547 853 547 850 l 487 845 l 471 848 q 422 842 433 842 l 411 845 q 403 842 406 842 l 397 845 l 387 840 l 370 842 q 330 831 353 831 q 311 948 311 831 q 346 1114 311 1004 q 476 1268 394 1230 q 576 1325 524 1305 q 612 1366 612 1341 q 642 1526 642 1492 q 639 1529 642 1529 l 642 1556 l 642 1561 q 639 1575 642 1570 q 650 1754 644 1603 q 647 1794 647 1765 l 650 1813 q 644 1862 644 1827 q 628 1925 640 1871 q 598 1946 612 1946 q 544 1881 573 1946 q 538 1849 541 1853 l 541 1843 q 525 1713 525 1801 l 522 1713 q 528 1683 525 1683 l 525 1670 l 525 1667 q 533 1618 526 1621 l 530 1591 l 530 1567 q 525 1561 530 1561 l 522 1561 l 514 1567 q 509 1561 514 1561 l 444 1561 q 433 1558 437 1561 q 422 1561 428 1561 l 403 1561 q 354 1556 355 1556 l 354 1558 l 327 1553 q 316 1556 322 1556 q 145 1526 268 1540 l 77 1510 l 77 1507 l 64 1510 l 56 1510 l 23 1507 l 20 1512 q 28 1567 26 1567 l 26 1572 l 26 1577 q 31 1591 26 1591 l 28 1596 l 31 1602 l 28 1607 q 31 1632 31 1622 l 26 1651 l 26 1675 q 31 1708 26 1708 l 26 1721 q 28 1729 28 1727 q 26 1737 26 1735 l 31 1740 q 28 1748 31 1743 l 31 1765 l 28 1803 l 31 1830 l 28 1849 q 31 1876 28 1852 q 26 1911 28 1907 l 28 1922 q 23 1960 25 1957 q 28 1984 28 1970 q 23 2030 28 2030 l 26 2044 l 26 2049 q 23 2074 26 2059 l 26 2079 l 23 2096 l 23 2101 q 26 2112 23 2107 q 20 2147 23 2118 l 23 2153 q 20 2182 20 2171 l 20 2185 l 26 2193 l 23 2207 q 28 2223 23 2212 l 26 2237 q 72 2348 55 2348 q 137 2445 72 2367 q 311 2562 225 2532 q 468 2603 341 2581 m 357 582 q 430 566 361 582 q 433 568 433 566 q 460 563 460 566 l 465 566 q 495 560 495 564 l 500 563 q 533 557 533 562 l 538 560 l 547 560 q 585 557 562 560 q 593 560 590 560 l 593 557 l 598 560 l 609 560 q 647 563 624 560 q 655 560 652 560 l 671 568 l 682 568 q 709 538 709 568 l 709 511 q 715 446 709 471 l 712 446 q 715 444 712 444 l 707 373 q 715 357 711 373 q 712 300 712 321 l 712 281 q 704 237 712 267 q 709 232 709 237 l 704 229 q 712 132 712 203 l 709 132 q 715 102 715 121 l 715 85 q 696 53 704 53 q 639 42 686 53 l 639 45 q 614 39 633 42 l 604 42 l 552 31 l 525 31 q 368 -7 462 9 q 362 -12 368 -12 q 359 -9 359 -12 q 324 -20 338 -20 l 321 -15 l 321 -9 q 327 12 321 -7 q 324 18 327 18 q 338 123 332 57 q 335 170 338 149 l 340 256 q 338 264 338 262 q 340 283 340 275 q 338 292 340 286 q 343 308 340 308 l 340 313 l 340 359 q 338 370 340 366 q 346 389 342 389 q 340 419 343 395 l 343 419 q 340 422 343 422 q 343 463 343 449 l 343 465 q 335 571 343 537 q 357 582 357 576 z "},"@":{"ha":1158,"x_min":20,"x_max":1138,"o":"m 582 2610 l 598 2607 l 639 2607 q 650 2604 645 2607 q 661 2607 654 2607 l 688 2607 q 707 2601 707 2606 q 731 2607 717 2607 q 850 2588 754 2607 q 1027 2507 964 2559 q 1111 2352 1086 2447 q 1138 2116 1126 2352 l 1138 2100 l 1135 2100 l 1138 2094 l 1138 2024 q 1135 1986 1138 2009 l 1138 1980 q 1130 1937 1133 1961 q 1133 1934 1130 1934 l 1130 1921 l 1130 1904 q 1133 1893 1130 1898 q 1127 1877 1127 1883 q 1130 1874 1127 1874 l 1127 1861 l 1127 1834 l 1130 1820 l 1127 1820 q 1130 1817 1127 1817 l 1124 1714 q 1127 1698 1127 1710 l 1124 1693 q 1127 1685 1127 1687 l 1124 1671 l 1127 1660 q 1122 1622 1122 1631 q 1127 1606 1127 1613 l 1124 1592 q 1127 1590 1124 1590 l 1124 1571 l 1124 1546 q 1122 1544 1124 1544 q 1127 1514 1124 1538 l 1124 1508 q 1127 1500 1124 1506 q 1122 1446 1124 1460 q 1124 1416 1124 1428 q 1119 1340 1124 1385 l 1124 1318 q 1119 1289 1119 1295 l 1122 1261 l 1119 1256 q 1122 1253 1119 1253 q 1119 1245 1122 1251 l 1122 1229 q 1119 1166 1119 1192 l 1119 1164 l 1122 1145 l 1119 1145 l 1122 1139 l 1122 1123 q 1119 1109 1122 1114 l 1122 1093 l 1122 1072 q 1081 1047 1114 1047 q 891 955 1018 1019 q 823 920 870 955 l 818 920 l 818 922 q 831 1028 831 969 q 696 960 745 960 q 631 949 656 949 q 484 1039 545 949 q 449 1161 463 1088 q 444 1172 446 1161 l 446 1177 q 444 1202 444 1192 l 444 1204 q 438 1207 438 1204 l 441 1218 l 438 1223 q 441 1232 441 1229 l 438 1237 l 441 1242 l 433 1291 l 435 1297 q 430 1313 430 1305 l 430 1316 q 433 1318 430 1318 l 430 1324 q 433 1326 430 1326 q 430 1329 433 1329 q 433 1337 430 1332 q 430 1408 430 1383 l 430 1438 l 427 1451 l 430 1451 l 425 1478 l 427 1484 l 425 1500 l 425 1503 q 427 1506 425 1506 q 425 1508 427 1508 q 433 1573 425 1512 l 433 1584 q 430 1595 433 1590 q 438 1641 436 1641 l 435 1647 l 435 1674 q 444 1714 435 1689 q 441 1723 444 1717 q 503 1866 461 1809 q 674 1937 544 1937 l 677 1937 q 766 1918 741 1937 q 880 1853 783 1918 l 883 1853 l 883 1855 q 853 2013 883 1935 q 788 2045 840 2026 q 709 2072 788 2056 l 696 2072 q 693 2075 693 2072 q 690 2072 690 2075 q 549 2081 663 2081 q 416 2045 462 2070 q 376 2016 416 2042 q 354 1991 355 1999 q 313 1902 334 1976 l 302 1817 l 305 1812 l 297 1739 l 300 1733 q 297 1728 300 1728 q 305 1603 297 1717 l 305 1590 q 308 1581 305 1581 l 305 1568 l 305 1427 q 302 1402 305 1417 q 305 1400 302 1400 q 302 1392 305 1397 q 305 1321 305 1346 q 302 1310 305 1315 l 305 1305 l 302 1299 l 305 1286 l 302 1286 l 305 1280 l 305 1248 q 308 1128 305 1200 l 311 1123 q 308 1120 311 1120 q 313 1085 311 1091 l 311 1080 q 316 1039 313 1042 q 311 1015 313 1034 q 343 846 328 846 q 454 754 386 787 q 644 724 506 734 l 647 724 q 658 727 653 724 q 682 724 673 724 l 715 724 q 753 727 730 724 l 758 724 l 785 730 l 791 727 l 867 743 l 867 741 q 1046 798 1046 776 q 1054 795 1051 795 l 1054 724 q 1065 627 1059 710 q 1057 581 1062 599 l 1059 575 q 1057 551 1057 560 l 1059 537 l 1057 537 l 1059 532 l 1059 510 l 1062 496 l 1059 496 l 1062 491 l 1062 401 q 1059 399 1062 399 l 1062 393 l 1062 372 q 1065 334 1062 351 q 1062 317 1062 319 q 1065 271 1065 286 l 1062 239 q 1070 182 1066 199 q 1067 179 1070 179 q 1084 41 1078 109 q 1048 11 1067 11 l 1043 11 q 1040 14 1040 11 l 1035 11 l 1029 11 q 1027 14 1027 11 q 1000 8 1015 8 q 991 11 997 8 q 989 8 989 11 l 964 11 q 929 5 945 11 q 899 8 911 8 q 848 5 873 8 q 821 8 833 8 l 804 5 l 804 8 l 799 5 l 796 5 q 793 8 793 5 l 788 5 l 783 5 q 739 3 767 5 q 736 5 736 3 l 723 3 l 715 3 q 690 5 705 3 l 685 3 l 680 5 q 671 3 674 3 l 671 5 q 655 0 655 3 l 642 3 l 620 3 q 609 0 614 3 l 598 5 q 566 3 594 5 l 492 11 q 490 8 490 11 q 365 22 464 14 q 281 35 365 26 q 167 106 229 58 q 88 203 109 153 q 75 255 80 218 q 69 260 69 255 l 69 288 l 66 315 l 69 315 q 53 410 58 315 q 56 418 56 415 q 53 420 56 420 l 56 434 q 50 464 56 437 l 53 480 q 47 507 50 484 q 53 526 53 518 q 47 559 47 545 l 47 594 q 45 646 47 616 q 47 654 47 651 q 45 675 45 665 q 50 703 50 697 l 50 711 q 47 722 50 717 l 50 727 q 47 738 47 732 l 50 738 l 47 743 l 47 770 q 50 779 47 779 l 47 792 l 47 830 q 39 928 47 865 q 47 960 47 943 q 45 977 47 962 l 47 990 l 37 1044 q 39 1055 39 1049 q 37 1063 37 1061 l 42 1074 l 37 1085 q 39 1088 37 1088 q 37 1109 37 1103 q 39 1158 37 1120 l 37 1164 q 42 1194 40 1188 l 39 1207 l 42 1226 q 37 1232 37 1226 l 37 1234 l 45 1291 l 39 1294 l 42 1308 l 42 1324 q 34 1356 37 1329 q 39 1373 39 1365 l 39 1378 l 26 1473 l 28 1473 l 26 1478 l 26 1484 q 31 1495 31 1491 l 28 1500 l 34 1519 q 23 1571 28 1519 q 28 1598 28 1583 q 20 1619 20 1613 l 23 1619 l 20 1625 l 20 1660 q 26 1695 20 1683 l 23 1701 q 26 1704 23 1704 l 23 1717 l 23 1720 q 20 1771 23 1746 q 23 1788 20 1773 q 20 1839 20 1813 l 20 1845 l 28 1883 q 26 1885 28 1885 q 28 1893 26 1888 q 26 1934 26 1927 q 31 1988 31 1973 q 28 2016 31 2001 q 37 2062 33 2062 l 34 2067 q 37 2075 37 2072 l 34 2081 q 47 2176 39 2083 q 53 2197 51 2176 q 50 2214 53 2199 q 134 2387 50 2260 q 218 2471 182 2455 q 340 2550 244 2498 q 452 2596 399 2577 q 454 2593 454 2596 q 511 2601 488 2601 q 514 2599 511 2599 q 519 2604 515 2604 q 522 2601 522 2604 q 582 2610 540 2606 m 715 1503 l 718 1489 q 712 1457 712 1470 l 712 1405 q 734 1261 720 1322 q 772 1213 764 1213 l 777 1213 l 785 1218 q 788 1215 785 1215 q 823 1272 823 1248 q 845 1340 840 1298 q 864 1427 850 1340 l 861 1432 q 867 1454 861 1435 l 867 1514 q 853 1563 861 1552 l 856 1568 q 774 1644 821 1644 q 718 1508 745 1644 l 715 1503 z "},"A":{"ha":1180,"x_min":20,"x_max":1160,"o":"m 972 2653 q 1000 2631 1000 2650 l 997 2626 q 1016 1655 1010 1920 l 1013 1655 q 1062 1039 1035 1393 q 1097 670 1079 816 l 1095 670 q 1143 125 1124 413 l 1160 -30 l 1154 -41 q 1073 -43 1100 -43 q 661 -84 853 -57 q 655 -79 655 -84 q 662 74 655 -77 q 671 385 669 224 q 682 711 674 612 q 565 708 616 708 q 511 708 514 708 l 511 700 q 500 583 506 679 q 506 293 503 391 l 525 103 q 522 22 522 33 l 519 22 q 229 30 317 41 q 31 -16 66 3 l 20 -16 q 64 334 34 47 q 153 982 96 576 l 170 1080 q 194 1340 183 1156 q 217 1747 202 1608 q 235 2021 222 1893 q 279 2347 273 2224 q 300 2588 286 2471 q 330 2645 300 2620 l 411 2645 q 785 2638 621 2631 q 972 2653 949 2646 m 527 2085 q 520 2015 527 2085 q 494 1839 513 1945 q 484 1356 481 1632 q 616 1359 583 1362 q 652 1375 649 1356 q 630 1603 644 1416 q 546 2224 559 1995 q 527 2085 540 2224 z "},"B":{"ha":1039,"x_min":20,"x_max":1019,"o":"m 433 2355 q 476 2352 460 2352 l 490 2355 l 517 2346 l 533 2352 l 538 2349 q 549 2352 540 2349 q 623 2336 569 2344 q 633 2330 623 2332 l 639 2333 q 774 2279 664 2333 q 975 2081 885 2224 q 1013 1899 1013 1977 q 1010 1896 1013 1896 l 1013 1883 l 1013 1823 q 967 1611 991 1668 q 853 1413 925 1507 q 804 1359 847 1413 q 761 1326 798 1359 q 707 1294 741 1310 l 707 1291 l 810 1248 q 834 1234 810 1244 l 840 1237 l 842 1237 l 840 1232 q 954 1090 924 1181 q 1008 895 975 1044 l 1005 895 l 1010 882 l 1008 876 q 1013 846 1010 850 q 1010 844 1013 844 l 1013 830 l 1013 776 q 1019 732 1019 736 l 1019 727 q 1016 716 1019 721 l 1019 711 q 1016 708 1019 708 q 1019 703 1016 703 q 1013 556 1016 673 l 1010 556 q 1013 553 1010 553 q 948 290 1013 425 q 810 152 859 169 q 639 84 722 98 q 427 35 625 73 q 140 0 303 14 q 61 8 68 3 q 39 5 46 5 q 20 16 33 5 q 26 95 26 73 l 28 95 l 26 100 l 26 111 q 37 179 37 162 l 34 184 q 42 217 39 196 l 39 222 l 39 231 q 45 236 40 236 q 39 255 39 247 q 47 304 45 294 q 45 315 45 309 l 47 326 l 45 331 l 53 361 q 50 369 53 363 q 58 453 53 453 l 56 464 l 58 475 q 56 483 58 477 l 72 635 q 75 643 72 643 l 72 648 l 88 876 l 88 906 q 85 917 88 912 q 88 920 85 920 q 83 993 83 946 l 83 1006 q 85 1009 83 1009 l 83 1015 l 83 1044 q 85 1047 83 1047 q 83 1050 85 1050 l 88 1115 q 69 1573 77 1479 q 72 1619 69 1588 q 66 1674 66 1647 l 66 1728 q 69 1731 66 1731 q 61 1755 62 1755 l 64 1769 q 58 1899 64 1832 l 61 1899 q 58 1907 58 1904 q 61 1915 58 1910 q 53 2064 53 1968 q 56 2072 53 2067 l 50 2100 q 56 2151 56 2117 q 47 2192 47 2180 l 50 2197 l 47 2214 q 50 2216 47 2216 l 47 2222 l 47 2252 q 148 2292 47 2255 q 213 2311 188 2308 q 316 2341 213 2319 q 433 2355 355 2355 m 435 1812 l 438 1807 q 435 1799 438 1799 q 438 1790 435 1796 q 435 1766 438 1781 l 441 1695 l 438 1695 l 441 1690 l 441 1682 q 438 1663 441 1666 q 446 1579 441 1592 q 444 1560 444 1568 q 446 1546 444 1551 q 444 1522 444 1531 q 446 1489 446 1494 l 444 1489 l 449 1462 l 446 1446 l 446 1440 l 449 1427 q 587 1500 506 1440 q 639 1576 639 1560 q 661 1630 639 1585 q 655 1636 655 1630 q 661 1652 661 1645 q 636 1704 661 1677 l 636 1706 l 639 1706 l 644 1704 l 644 1709 l 639 1717 l 639 1720 q 642 1723 639 1723 q 579 1788 622 1772 q 457 1815 516 1815 l 452 1812 q 441 1815 447 1815 l 435 1812 m 468 955 l 468 933 q 465 930 468 930 q 471 917 468 917 l 468 903 l 468 765 q 471 754 468 759 l 468 749 q 473 681 471 696 q 471 659 471 671 l 471 640 q 473 629 471 634 q 471 627 473 627 l 473 613 q 476 540 476 547 q 473 532 473 534 q 476 529 473 529 q 473 524 476 524 q 476 477 476 492 l 476 420 q 566 445 504 420 q 682 537 608 453 q 715 578 715 572 q 745 651 731 612 q 753 711 753 677 l 753 784 q 715 863 753 803 q 712 860 715 860 l 709 865 q 712 868 709 868 q 587 955 683 917 q 514 963 530 963 l 511 963 l 492 960 l 492 963 q 468 955 477 955 z "},"C":{"ha":817,"x_min":10,"x_max":796,"o":"m 563 2634 q 783 2593 652 2632 q 796 2577 796 2580 l 796 2572 q 758 2252 763 2290 q 755 1997 748 2122 q 769 1839 769 1850 l 764 1836 q 726 1853 753 1847 q 601 1921 703 1876 l 549 1921 q 430 1883 498 1921 q 358 1680 373 1833 q 384 789 307 930 q 506 711 440 711 q 718 776 655 736 q 739 795 724 786 l 742 789 q 772 95 742 525 q 726 71 758 91 q 533 14 682 41 q 347 13 410 0 q 167 163 281 24 q 91 361 125 235 q 31 817 49 526 q 23 1617 10 1232 q 75 2051 45 1895 q 126 2257 88 2132 q 237 2474 175 2393 q 338 2568 237 2490 q 563 2634 468 2634 z "},"D":{"ha":930,"x_min":20,"x_max":873,"o":"m 20 2652 q 267 2619 163 2649 q 552 2500 363 2593 q 739 2334 684 2417 q 837 1984 815 2207 q 859 1455 861 1660 q 867 859 873 1101 q 815 538 855 645 q 446 64 746 245 q 37 -62 300 -1 q 50 97 39 -32 q 75 728 63 335 q 58 2167 92 1179 q 20 2652 45 2507 m 433 1718 q 446 1284 441 1513 q 438 742 446 919 l 438 739 q 579 905 513 745 q 598 1328 615 1086 q 552 1586 601 1475 q 435 1718 536 1629 l 433 1718 z "},"E":{"ha":1009,"x_min":20,"x_max":989,"o":"m 970 2531 l 981 2531 q 989 2523 985 2531 q 981 2482 989 2494 q 955 2342 962 2436 q 940 2075 944 2218 q 929 1780 940 1885 q 916 1771 929 1773 q 853 1780 863 1780 q 688 1788 725 1790 q 444 1785 659 1793 q 414 1763 414 1785 q 416 1761 414 1761 q 408 1473 406 1535 q 427 1430 412 1430 q 530 1416 454 1421 q 650 1421 602 1421 q 753 1424 744 1424 l 761 1421 q 743 1305 759 1413 q 728 1082 723 1129 l 731 1050 q 723 1047 726 1047 q 647 1061 712 1055 q 574 1061 611 1062 q 473 1027 484 1061 q 468 795 463 987 q 471 675 467 740 q 484 651 475 651 q 696 673 654 667 q 831 692 736 678 q 880 684 882 698 q 865 592 875 631 q 859 553 856 553 q 848 445 853 528 q 869 125 836 265 q 882 55 872 91 q 886 5 892 18 q 842 0 882 -4 l 755 11 q 490 22 750 14 q 26 11 285 19 l 20 14 q 88 892 79 422 q 94 1706 100 1513 q 69 2428 83 2066 q 80 2471 73 2471 q 351 2474 127 2469 q 766 2520 510 2493 q 970 2531 896 2531 z "},"F":{"ha":1004,"x_min":20,"x_max":983,"o":"m 916 2513 q 929 2513 926 2513 q 954 2462 954 2513 q 937 1999 932 2207 q 943 1613 937 1683 q 921 1594 940 1613 l 918 1594 q 446 1600 669 1613 q 392 1589 404 1596 q 381 1305 376 1506 q 389 1295 381 1301 q 636 1293 509 1289 q 663 991 683 1284 q 642 951 667 948 q 568 956 587 954 q 441 956 498 970 q 408 942 408 956 q 419 317 411 675 q 433 132 425 220 q 448 61 441 86 q 451 12 456 35 q 365 31 404 20 q 199 39 307 39 q 26 29 186 36 l 20 39 l 20 106 q 50 1128 49 381 q 45 2431 56 1925 q 64 2504 22 2499 q 916 2513 480 2484 m 981 570 l 983 570 l 983 564 l 981 564 l 981 570 z "},"G":{"ha":1170,"x_min":20,"x_max":1106,"o":"m 519 2654 q 1057 2618 650 2681 l 1059 2612 q 1027 2257 1035 2437 q 1038 1997 1021 2133 l 1028 1989 q 677 1980 789 2002 q 500 1915 578 1959 q 419 1774 444 1865 q 385 1272 387 1573 q 392 765 380 811 l 389 765 q 414 635 403 668 q 465 510 432 568 q 570 409 497 439 q 709 388 635 388 q 791 477 767 388 q 804 564 802 528 l 807 716 q 795 728 806 722 q 614 732 677 735 q 506 722 512 722 q 492 928 490 728 q 489 1206 496 980 q 475 1415 475 1407 q 527 1440 475 1440 q 790 1426 731 1427 q 968 1422 892 1423 q 1067 1415 1058 1421 l 1069 1410 q 1070 689 1067 783 q 1090 246 1074 404 q 1103 28 1106 88 q 701 -5 962 18 q 377 -12 511 -28 q 191 60 250 7 q 123 133 146 86 q 65 271 77 201 q 31 568 51 320 q 20 1115 20 867 q 39 1587 20 1277 q 69 1983 56 1900 q 117 2258 94 2176 q 194 2450 142 2348 q 297 2582 222 2529 q 519 2654 389 2634 z "},"H":{"ha":1166,"x_min":23,"x_max":1146,"o":"m 517 2477 q 484 2127 484 2194 q 479 2100 479 2127 l 479 2072 q 476 2070 479 2070 l 479 2064 q 471 1959 471 2026 q 468 1956 471 1956 l 471 1950 l 471 1910 q 463 1858 471 1888 l 465 1839 l 465 1809 q 463 1799 465 1803 q 465 1796 463 1796 q 463 1766 463 1777 q 452 1443 463 1555 l 454 1419 q 452 1411 452 1413 q 454 1389 454 1400 l 454 1386 q 452 1383 454 1383 q 460 1324 456 1360 q 457 1299 457 1309 q 465 1177 465 1206 l 468 1177 q 473 1180 473 1177 q 503 1172 494 1177 l 509 1175 q 552 1164 552 1166 q 555 1166 555 1164 q 585 1161 578 1161 l 590 1164 q 609 1158 609 1161 q 612 1161 612 1158 q 742 1147 651 1153 q 750 1150 747 1150 l 750 1147 l 755 1150 l 758 1150 l 764 1147 q 772 1196 772 1157 q 766 1218 772 1204 q 780 1451 774 1308 l 783 1451 l 780 1468 l 783 1500 l 780 1506 q 785 1527 785 1522 q 783 1552 783 1542 l 785 1557 l 783 1563 q 785 1571 783 1565 l 780 1609 q 783 1617 783 1614 l 780 1622 q 783 1630 780 1625 l 780 1644 l 783 1660 q 777 1712 780 1698 l 783 1723 q 777 1801 783 1744 q 780 1812 780 1806 q 774 1847 774 1834 l 777 1847 l 772 1874 q 777 1918 775 1911 l 766 1959 q 777 1991 774 1969 q 772 2007 772 2000 q 774 2013 772 2013 l 772 2026 l 772 2102 q 774 2127 772 2112 q 772 2138 772 2131 q 774 2192 774 2174 l 777 2192 l 774 2197 l 774 2230 q 777 2243 774 2239 l 774 2260 l 774 2268 q 774 2361 774 2277 q 1013 2363 954 2355 q 1139 2392 1109 2378 q 1130 2281 1146 2358 l 1130 2271 l 1127 2271 l 1127 2268 q 1122 2227 1127 2253 l 1124 2222 l 1124 2214 l 1127 2214 l 1127 2208 q 1114 2173 1114 2208 q 1116 2157 1114 2171 q 1111 2148 1114 2148 q 1114 2146 1111 2146 q 1103 2102 1111 2126 q 1105 2078 1105 2087 l 1105 2053 q 1103 2051 1105 2051 l 1105 2045 q 1097 1991 1100 2022 q 1100 1988 1097 1988 q 1086 1893 1100 1986 l 1089 1888 l 1070 1687 l 1073 1682 q 1067 1628 1069 1630 q 1070 1617 1070 1623 q 1067 1609 1070 1609 l 1070 1590 l 1070 1535 q 1076 1500 1070 1512 l 1067 1443 l 1067 1438 q 1070 1394 1067 1422 l 1067 1389 q 1070 1378 1070 1384 q 1067 1356 1070 1367 q 1076 1202 1072 1335 l 1073 1202 q 1076 1199 1073 1199 l 1073 1180 l 1073 1177 q 1076 1169 1073 1169 l 1073 1156 l 1073 1112 q 1070 1109 1073 1109 l 1076 1088 q 1073 1085 1076 1085 q 1076 1077 1073 1082 l 1073 1034 q 1076 990 1076 994 l 1073 990 q 1076 987 1073 987 l 1070 941 l 1073 928 q 1067 844 1067 889 l 1067 779 q 1070 703 1067 744 q 1067 684 1067 692 q 1070 667 1070 669 q 1067 646 1067 652 l 1070 627 l 1065 624 q 1067 621 1065 621 l 1065 610 q 1078 548 1073 551 q 1086 448 1082 448 q 1084 445 1086 445 q 1092 391 1089 424 q 1089 388 1092 388 l 1092 369 q 1089 239 1092 317 l 1092 225 q 1089 222 1092 222 q 1108 81 1099 81 l 1108 71 q 1103 65 1108 65 l 1070 65 q 1046 60 1063 65 q 888 57 947 57 l 875 57 q 722 44 825 50 l 723 68 q 726 71 723 71 q 723 73 726 73 l 739 225 q 736 233 739 233 l 739 266 l 739 304 q 745 372 739 342 q 742 374 745 374 q 750 423 747 423 l 747 429 l 747 453 q 745 467 747 462 l 750 502 q 747 518 750 504 q 750 575 750 553 l 753 575 q 747 616 750 581 l 750 621 q 747 629 747 627 q 750 635 747 635 l 739 757 q 742 765 742 762 l 739 776 l 742 795 l 739 800 l 742 806 q 739 819 739 810 l 699 819 l 682 817 q 680 819 680 817 q 674 817 674 819 q 620 819 637 819 l 579 819 q 549 817 568 819 q 528 819 547 819 q 522 803 522 810 l 522 800 q 519 719 522 767 l 522 708 q 517 632 517 677 q 519 624 517 629 q 514 556 517 608 l 517 551 q 511 532 511 537 q 517 524 514 524 l 511 480 q 514 477 511 477 l 511 467 q 514 442 511 457 q 511 412 511 418 q 514 385 514 389 q 511 377 514 382 q 519 76 516 347 q 525 46 524 76 l 522 46 l 525 41 l 525 30 q 522 22 525 22 q 530 -83 529 -39 q 403 -22 473 -46 q 359 -14 403 -16 q 273 5 359 -2 q 243 14 269 5 l 142 14 q 23 -3 79 14 q 37 68 37 56 q 56 255 56 218 l 56 258 q 58 269 56 264 q 56 277 56 274 l 66 331 l 64 347 q 77 448 72 385 l 75 464 l 75 472 l 77 488 l 75 494 q 88 597 75 509 q 85 600 88 600 q 88 608 85 602 q 85 621 88 616 q 96 730 88 688 l 94 754 l 96 754 q 94 762 94 760 q 102 798 98 798 l 99 803 q 104 865 104 862 q 102 873 102 871 l 104 879 l 102 895 l 102 901 q 104 903 102 903 q 99 936 102 911 q 107 993 104 993 l 104 1004 q 113 1069 106 1069 q 110 1090 110 1088 q 121 1218 115 1126 l 118 1223 q 121 1232 121 1229 q 115 1253 115 1252 l 123 1394 q 118 1446 118 1421 l 121 1446 l 118 1451 q 115 1511 118 1457 q 121 1590 118 1584 q 118 1611 118 1600 q 121 1633 118 1623 l 115 1679 l 118 1685 l 115 1704 q 118 1723 115 1712 q 115 1758 115 1740 q 118 1782 115 1772 q 115 1809 115 1796 l 115 1817 l 118 1834 q 115 1845 115 1839 l 118 1845 l 115 1850 l 118 1864 q 115 1866 118 1866 l 118 1880 q 115 1929 118 1891 q 121 1937 118 1937 q 115 2029 115 1967 l 115 2048 q 118 2059 115 2054 q 115 2070 115 2064 l 115 2075 q 118 2083 115 2083 l 115 2097 l 115 2200 l 113 2227 l 115 2227 l 113 2233 l 113 2279 q 110 2319 113 2292 l 113 2319 q 110 2322 113 2322 l 113 2336 l 113 2338 q 105 2454 113 2362 q 318 2443 220 2445 q 435 2452 405 2443 q 517 2477 485 2466 z "},"I":{"ha":561,"x_min":22,"x_max":521,"o":"m 505 1769 l 521 1769 l 521 1766 q 487 1597 511 1746 q 429 1039 463 1449 q 420 534 421 881 q 439 247 426 409 q 491 16 479 74 q 275 16 412 22 q 76 0 205 15 q 68 8 67 -1 q 87 140 68 11 q 109 477 106 270 q 100 1044 109 678 q 22 1731 43 1601 q 38 1739 24 1739 q 301 1736 130 1731 q 505 1769 423 1745 m 296 2525 q 401 2504 377 2519 q 475 2393 453 2474 q 496 2235 491 2328 q 462 1984 492 2022 q 392 1910 431 1929 q 307 1889 347 1889 l 269 1889 q 81 1982 161 1889 q 52 2078 64 2003 q 49 2206 45 2143 q 81 2407 56 2347 q 168 2495 105 2466 q 296 2525 197 2515 z "},"J":{"ha":1066,"x_min":20,"x_max":1046,"o":"m 650 2637 q 674 2631 667 2631 l 707 2631 q 709 2629 709 2631 l 715 2631 q 761 2629 752 2629 l 766 2631 q 793 2623 793 2625 l 799 2626 l 810 2626 q 823 2620 823 2625 q 831 2623 829 2623 l 850 2620 l 856 2623 q 864 2620 861 2620 q 894 2623 882 2623 l 894 2620 q 897 2623 897 2620 l 910 2620 l 921 2620 q 932 2623 927 2620 q 948 2618 941 2618 l 991 2618 q 1013 2623 1010 2623 l 1040 2623 q 1046 2615 1046 2623 q 1027 2539 1040 2578 q 1016 2425 1016 2448 q 1019 2406 1019 2414 q 1008 2374 1012 2406 l 1010 2368 q 1008 2357 1010 2362 q 1010 2349 1010 2352 l 1008 2349 q 1010 2341 1010 2344 q 994 2241 1000 2256 q 997 2235 994 2235 q 989 2154 994 2171 l 991 2138 l 991 2113 q 989 2110 991 2110 q 991 2108 989 2108 l 989 2094 l 989 2024 q 983 1961 989 1976 q 989 1931 989 1950 l 989 1923 q 986 1912 989 1917 q 989 1910 986 1910 l 986 1883 l 986 1864 q 983 1861 986 1861 q 986 1858 983 1858 l 983 1831 l 983 1801 q 970 1652 983 1733 q 972 1617 970 1640 l 970 1603 q 972 1600 970 1600 l 970 1587 l 970 1581 l 972 1563 l 970 1563 q 972 1554 972 1557 l 970 1549 q 972 1538 972 1544 q 970 1535 972 1535 l 972 1530 l 972 1516 q 970 1514 972 1514 q 972 1506 972 1508 q 970 1487 972 1490 q 972 1443 972 1459 l 972 1402 q 970 1400 972 1400 l 972 1394 l 972 1362 q 975 1351 972 1356 q 964 1259 968 1351 q 970 1242 967 1242 l 967 1223 q 983 1093 967 1186 l 981 1093 q 983 1085 983 1088 q 991 958 983 1071 l 991 914 l 994 901 l 991 901 l 994 895 q 991 879 991 881 l 994 865 l 991 860 l 994 844 q 991 836 994 841 l 994 819 l 994 808 q 991 806 994 806 q 994 798 994 800 l 991 792 q 994 789 991 789 q 989 757 989 768 q 994 705 994 719 l 991 705 l 997 689 q 994 681 994 684 q 997 665 997 667 l 994 659 q 1000 629 1000 648 q 997 627 1000 627 l 1000 621 q 997 610 1000 615 q 1002 594 1002 602 l 1002 545 q 1005 534 1002 539 l 1002 529 l 1005 524 q 1002 521 1005 521 l 1005 507 l 1005 494 q 1000 472 1000 475 l 1000 442 q 962 195 986 235 q 888 46 937 128 q 829 5 850 13 q 674 -14 720 -14 q 560 -11 664 -14 l 555 -8 q 552 -11 552 -8 l 533 -8 l 506 -8 q 468 -5 491 -8 q 454 -8 463 -8 l 454 -5 q 446 -8 449 -8 q 430 -3 437 -3 q 427 -5 427 -3 l 414 -3 l 397 -3 q 387 -5 391 -3 q 324 8 332 8 q 316 5 319 5 q 275 22 316 9 l 270 19 q 172 84 193 47 q 99 165 146 103 q 47 328 47 273 l 34 388 l 37 388 l 34 393 l 34 407 q 28 448 34 422 l 31 448 q 23 480 27 480 l 26 491 q 23 594 23 566 q 26 602 23 597 q 23 613 23 607 l 23 637 q 20 686 23 661 q 26 711 23 711 l 23 716 q 28 732 23 721 l 26 738 l 28 743 q 26 746 28 746 l 28 760 l 28 792 q 31 795 28 795 l 28 800 l 28 836 q 31 838 28 838 l 28 844 q 31 846 28 846 q 28 854 28 852 q 42 971 35 903 l 39 977 q 56 1053 50 1017 q 53 1061 53 1058 q 61 1074 58 1074 q 58 1077 61 1077 q 66 1128 61 1110 l 66 1142 q 64 1153 66 1148 q 77 1229 64 1157 q 75 1232 77 1232 q 80 1305 80 1258 l 80 1324 q 113 1378 93 1378 q 121 1386 113 1380 q 140 1381 140 1384 l 145 1383 q 148 1381 148 1383 q 178 1386 174 1386 l 178 1383 q 213 1389 184 1385 l 213 1386 q 221 1389 218 1389 q 311 1400 311 1393 l 332 1400 q 446 1421 446 1416 l 468 1421 q 563 1435 524 1427 q 566 1424 563 1429 q 533 1289 533 1314 q 519 1242 530 1287 q 522 1234 522 1237 q 503 1169 517 1234 l 500 1169 q 498 1172 500 1172 l 498 1166 l 503 1166 l 503 1164 q 495 1158 503 1158 l 495 1156 l 498 1150 l 492 1147 l 495 1137 q 484 1107 495 1107 q 487 1085 484 1100 q 465 993 476 993 l 468 987 l 468 960 l 454 854 q 457 852 454 852 l 454 838 l 454 776 q 457 765 454 770 q 454 754 454 760 l 454 751 l 457 738 l 454 738 q 514 597 479 597 q 568 578 533 578 q 620 632 620 606 q 639 705 628 675 l 636 711 l 636 727 q 650 779 643 734 l 647 784 q 655 806 654 806 l 652 811 q 669 879 660 820 l 669 903 q 671 914 669 909 q 669 917 671 917 l 671 930 l 671 949 q 674 952 671 952 l 671 958 l 671 966 l 674 971 q 669 977 669 971 l 669 1023 q 671 1025 669 1025 l 669 1031 l 669 1069 q 674 1090 669 1072 l 666 1128 q 669 1137 669 1134 l 666 1142 q 669 1150 666 1145 q 666 1180 666 1168 l 666 1199 q 663 1210 666 1205 q 666 1221 666 1215 l 663 1234 q 666 1242 666 1240 q 663 1251 663 1248 l 666 1256 l 663 1267 l 666 1278 q 663 1299 663 1293 l 666 1299 q 663 1302 666 1302 q 666 1318 663 1304 q 655 1345 663 1345 q 661 1375 661 1356 l 661 1386 q 663 1389 661 1389 l 661 1394 l 661 1416 q 658 1440 661 1426 q 663 1457 663 1449 l 663 1500 q 658 1522 663 1503 l 658 1560 q 661 1603 658 1575 q 658 1614 658 1608 l 661 1614 q 658 1622 658 1619 l 661 1628 q 658 1630 661 1630 l 661 1644 q 652 1752 658 1711 l 655 1752 l 652 1758 l 652 1815 l 650 1828 l 652 1828 l 650 1834 l 650 1850 q 652 1853 650 1853 q 642 1940 647 1874 q 644 1948 644 1945 q 639 1967 639 1959 l 642 1967 q 639 1969 642 1969 l 642 1980 q 636 2013 636 1999 l 636 2035 l 631 2043 q 633 2045 631 2045 l 631 2051 l 631 2075 q 633 2083 631 2083 l 631 2097 l 631 2129 l 633 2146 q 628 2186 631 2148 l 631 2186 q 625 2222 625 2199 l 625 2246 l 623 2260 l 625 2260 l 623 2265 l 623 2268 q 625 2271 623 2271 l 623 2276 l 623 2289 q 625 2292 623 2292 q 623 2295 625 2295 q 625 2303 623 2298 q 623 2327 623 2318 l 625 2327 l 623 2333 l 623 2341 q 625 2376 623 2359 l 623 2393 l 625 2398 l 620 2414 q 623 2422 620 2417 q 620 2466 620 2450 q 623 2515 620 2477 l 620 2520 l 623 2525 q 620 2528 623 2528 l 623 2542 q 620 2569 623 2545 q 623 2572 620 2572 l 620 2591 l 620 2612 q 647 2637 620 2637 l 650 2637 z "},"K":{"ha":1178,"x_min":20,"x_max":1143,"o":"m 574 2525 l 585 2525 q 511 1959 511 1972 q 490 1609 495 1748 l 492 1455 q 500 1432 496 1439 q 552 1435 514 1431 q 655 1501 631 1463 q 718 1726 720 1573 q 663 2257 699 2045 l 663 2274 q 696 2298 672 2298 q 842 2323 774 2313 q 967 2367 892 2334 q 1111 2426 994 2382 l 1116 2426 q 1124 2418 1120 2426 q 1114 2047 1122 2279 q 1081 1563 1114 1691 q 861 1244 1015 1352 q 777 1192 777 1194 l 777 1186 q 891 1062 814 1154 q 924 1015 912 1027 q 962 948 962 956 q 1019 827 977 934 q 1062 719 1048 770 q 1124 469 1085 675 q 1143 309 1135 435 l 1143 300 q 1141 135 1141 146 q 1108 -15 1138 -15 l 1081 -15 q 987 -20 1010 -15 q 962 -26 964 -26 q 715 -92 811 -49 l 712 -92 q 699 -64 706 -92 l 699 -54 q 720 110 699 -43 q 728 383 734 189 q 666 699 701 623 q 555 945 609 840 q 454 1059 484 1040 l 452 1059 q 444 1037 446 1059 q 479 146 465 460 q 452 113 475 122 q 316 79 383 93 q 31 16 52 19 q 26 35 26 30 q 39 123 37 68 q 74 559 45 229 q 85 1540 97 960 q 56 2003 75 1691 q 20 2484 45 2116 q 26 2490 21 2490 q 218 2459 119 2459 q 305 2467 259 2458 q 416 2487 353 2481 q 574 2525 439 2490 z "},"L":{"ha":1226,"x_min":23,"x_max":1206,"o":"m 452 2596 l 463 2596 q 468 2588 468 2596 q 416 1969 428 2315 q 427 461 422 1251 q 897 469 540 437 q 1145 510 1008 483 q 1203 515 1175 521 l 1206 515 q 1192 410 1206 491 q 1173 24 1162 204 q 1179 -5 1179 -2 l 1179 -8 l 1176 -14 q 948 0 1048 -6 q 183 5 548 8 q 23 -8 130 3 q 88 1053 73 382 q 96 1874 91 1135 q 88 2314 99 2018 q 64 2586 80 2486 q 306 2580 161 2577 q 452 2596 431 2596 z "},"M":{"ha":1492,"x_min":20,"x_max":1472,"o":"m 632 2624 q 669 2233 661 2300 q 727 1844 702 1988 q 753 1691 753 1699 l 758 1691 q 782 1775 758 1697 q 845 2184 806 1854 q 882 2492 873 2480 q 940 2486 886 2494 q 1217 2481 989 2481 q 1366 2497 1284 2484 q 1388 2481 1388 2497 l 1388 2475 q 1377 2065 1388 2469 q 1382 1672 1382 1693 q 1398 1102 1390 1306 q 1457 360 1419 684 q 1469 122 1467 172 q 1472 56 1472 71 q 1249 66 1357 64 q 913 33 1069 56 q 932 172 916 90 q 963 389 943 238 q 1008 867 983 541 q 1004 1196 1017 1059 q 986 1371 991 1295 q 967 1484 974 1484 q 878 1182 894 1244 q 777 825 850 1105 q 717 595 736 688 q 568 1191 636 985 q 517 1335 547 1264 q 460 1501 503 1381 q 447 1401 456 1501 q 427 1187 438 1301 q 395 772 419 1125 q 389 319 381 434 q 414 36 414 50 q 292 20 347 28 q 23 -75 91 -33 q 20 -72 23 -72 q 34 -3 20 -67 q 57 111 37 29 q 96 388 75 196 q 145 1149 126 783 q 162 1605 161 1503 q 153 2131 156 1918 q 148 2616 151 2598 l 152 2620 q 210 2602 169 2616 q 479 2605 296 2584 q 632 2624 542 2612 z "},"N":{"ha":1034,"x_min":20,"x_max":1013,"o":"m 1000 2576 l 1013 2557 q 964 2190 1000 2506 q 935 1640 946 2001 q 916 1227 928 1510 q 929 747 918 959 q 968 399 939 618 q 978 134 981 188 q 975 132 975 134 q 714 145 789 154 q 633 137 640 137 l 631 137 l 614 161 q 617 164 614 164 q 595 324 595 264 q 519 713 545 635 q 465 861 498 781 q 457 625 457 861 q 457 343 457 389 q 484 -58 463 52 l 484 -77 q 469 -84 484 -88 q 340 -56 425 -65 q 113 -56 172 -45 q 34 -66 50 -66 l 26 -66 q 20 -61 20 -66 q 58 183 51 75 q 61 742 74 302 q 50 1708 50 1187 q 39 2106 47 1742 q 47 2177 39 2177 q 387 2207 288 2187 q 406 2150 407 2212 q 435 1941 416 2045 q 479 1716 449 1859 q 536 1491 487 1649 q 571 1350 544 1482 l 576 1350 q 595 1651 593 1539 q 598 2052 601 1787 q 579 2527 585 2405 l 585 2530 l 658 2530 q 929 2554 747 2530 l 1000 2576 z "},"O":{"ha":954,"x_min":33,"x_max":915,"o":"m 387 2512 q 624 2482 552 2509 q 764 2401 711 2443 q 871 2269 821 2359 q 906 1953 895 2202 q 915 1566 915 1792 q 896 1029 909 1213 q 818 730 878 850 q 706 623 762 648 q 465 570 614 576 q 177 667 273 577 q 88 847 109 743 q 56 1039 69 926 l 59 1039 l 48 1129 q 39 1607 33 1353 q 45 1825 48 1806 q 73 2161 59 2018 q 112 2349 83 2253 q 199 2458 120 2376 q 387 2512 292 2512 m 422 2165 q 393 1773 406 2070 q 395 1627 394 1727 q 393 1504 396 1527 q 445 893 402 979 q 490 857 464 857 q 576 1015 535 854 q 589 1409 587 1104 q 584 1496 587 1496 l 581 1795 q 555 2062 581 1857 q 503 2241 542 2148 q 479 2276 483 2276 l 476 2276 q 422 2165 456 2276 z "},"P":{"ha":1031,"x_min":20,"x_max":1017,"o":"m 368 2504 l 387 2504 q 389 2501 389 2504 l 395 2504 l 397 2504 q 796 2441 583 2504 q 921 2365 894 2408 q 1002 2203 985 2285 l 1000 2203 q 1010 2040 1017 2121 q 970 1807 997 1881 q 945 1731 970 1790 q 888 1576 945 1710 q 826 1457 882 1536 q 785 1394 826 1449 q 680 1278 701 1297 q 625 1237 667 1263 q 411 1090 536 1145 q 365 1072 411 1086 q 452 100 376 419 q 465 54 459 85 q 422 43 448 43 q 47 0 171 27 l 34 0 q 20 27 27 0 q 53 524 34 93 q 72 1055 72 810 q 75 1588 77 1426 q 47 2406 66 1878 q 83 2463 47 2448 l 235 2493 q 368 2504 338 2498 m 406 1726 q 405 1660 406 1726 q 400 1413 403 1594 l 406 1413 q 555 1503 507 1451 q 617 1603 602 1554 q 647 1747 631 1639 q 566 1861 647 1830 q 528 1872 557 1868 q 447 1880 483 1883 q 411 1869 411 1876 q 406 1726 410 1859 z "},"Q":{"ha":906,"x_min":20,"x_max":886,"o":"m 522 2185 l 525 2185 q 631 2166 631 2180 l 636 2169 q 701 2144 659 2158 q 755 2082 755 2094 q 796 2006 769 2072 q 821 1935 821 1946 l 818 1935 q 837 1832 837 1847 l 834 1832 q 842 1794 842 1801 q 840 1792 842 1792 q 850 1699 844 1782 l 848 1699 l 850 1694 q 848 1691 850 1691 q 856 1545 850 1672 q 853 1534 853 1540 l 856 1529 l 853 1523 q 864 1385 858 1487 q 859 1352 862 1377 q 861 1325 861 1338 l 861 1306 q 859 1303 861 1303 l 861 1298 l 861 1265 q 864 1255 861 1259 q 861 1246 861 1249 q 867 1206 864 1208 q 864 1198 867 1203 q 867 1160 867 1175 q 864 1157 867 1157 l 867 1152 l 864 1138 l 867 1122 l 864 1122 l 867 1116 l 867 1076 q 864 1073 867 1073 l 867 1067 q 848 780 848 831 l 850 774 q 845 739 845 759 q 848 731 848 734 q 842 726 842 730 l 842 723 q 837 658 842 719 l 837 647 l 823 576 l 826 571 q 821 563 823 563 l 823 557 q 821 555 823 555 l 823 549 q 799 454 818 544 q 772 357 793 449 q 761 332 763 332 l 764 327 q 761 324 764 324 q 840 142 804 247 q 878 61 871 68 q 886 53 882 61 l 780 -1 q 723 -31 779 -7 q 688 -53 720 -37 q 582 -148 634 -98 q 574 -161 576 -148 l 566 -161 q 536 -28 566 -146 l 519 45 q 517 58 519 54 l 519 64 q 509 137 515 82 q 490 202 504 146 l 479 202 q 224 142 318 142 q 113 191 172 142 q 85 232 103 202 q 77 240 77 232 l 77 248 q 58 300 58 270 q 56 302 56 300 l 56 308 q 58 311 56 311 q 45 395 51 346 q 47 397 45 397 l 45 411 l 45 433 q 42 457 45 442 l 45 463 q 31 538 37 522 l 34 549 q 31 552 34 552 q 34 560 31 555 q 26 655 34 569 l 26 661 q 28 690 26 672 q 26 693 28 693 l 31 747 l 23 829 q 26 850 26 844 q 20 902 26 864 l 23 902 l 20 907 q 34 1168 23 1065 l 31 1173 q 34 1203 34 1197 l 31 1214 q 34 1222 34 1219 q 31 1225 34 1225 l 34 1238 l 34 1246 q 47 1347 34 1295 l 45 1352 l 45 1366 q 47 1377 45 1372 l 45 1382 q 72 1583 72 1535 q 121 1805 96 1712 q 164 1919 132 1822 q 243 2041 195 1984 q 338 2120 287 2095 q 484 2182 353 2140 l 490 2180 l 495 2182 l 500 2180 q 522 2185 511 2185 m 400 1466 l 403 1461 q 397 1450 401 1450 q 400 1442 400 1444 q 378 1274 392 1398 q 381 1263 378 1267 q 368 1165 370 1217 l 370 1160 l 368 1154 q 370 1152 368 1152 l 368 1138 l 368 1124 q 359 1032 368 1107 l 362 1027 q 359 1016 359 1022 q 362 1005 359 1010 q 359 981 359 990 l 362 967 l 357 956 l 359 951 l 357 937 q 362 924 362 928 l 357 921 q 365 894 359 901 l 359 886 l 362 861 l 359 829 l 362 818 l 359 812 q 365 783 365 798 l 362 783 l 365 777 l 365 755 q 368 745 365 749 q 365 742 368 742 l 368 728 l 368 720 q 414 506 368 623 q 441 495 431 495 q 538 723 481 551 q 536 726 538 726 q 547 783 536 728 q 544 785 547 785 q 552 842 548 842 q 547 869 547 854 q 549 897 547 873 l 547 902 l 555 916 l 552 929 l 555 929 q 552 932 555 932 l 555 959 l 555 967 l 549 967 l 549 981 q 557 1008 553 984 l 555 1013 l 555 1043 l 549 1062 q 555 1078 551 1078 q 549 1105 552 1105 l 552 1119 l 552 1160 q 547 1181 552 1171 q 555 1230 552 1187 q 541 1341 549 1306 l 544 1341 q 536 1371 541 1358 q 538 1374 536 1374 l 533 1426 l 536 1426 q 530 1455 530 1440 l 533 1455 q 530 1458 533 1458 l 533 1472 q 517 1577 527 1472 q 500 1675 500 1670 q 473 1773 481 1773 q 435 1637 467 1773 q 400 1466 408 1516 m 541 926 l 541 918 q 536 924 536 918 l 541 926 z "},"R":{"ha":1251,"x_min":20,"x_max":1213,"o":"m 503 2577 q 848 2544 718 2574 q 1081 2469 979 2523 q 1171 2398 1145 2437 q 1211 2192 1211 2327 q 1200 1991 1213 2055 q 1141 1747 1168 1822 q 1040 1535 1099 1631 q 926 1397 974 1444 q 769 1297 892 1366 q 905 1115 848 1203 q 1009 854 969 1018 q 1053 622 1041 707 q 1076 388 1067 525 q 1097 62 1087 250 q 1097 -71 1097 20 q 1073 -87 1097 -83 q 888 -79 1056 -81 q 671 -81 790 -81 q 636 -54 636 -71 l 666 179 q 688 548 682 385 q 680 732 692 616 q 639 955 675 799 q 568 1134 615 1059 q 484 1242 512 1240 q 452 1174 460 1242 q 452 1006 445 1107 q 471 515 460 801 q 490 90 490 117 q 479 76 484 77 q 262 57 393 77 q 28 -5 127 27 q 23 71 20 -5 q 37 244 31 99 q 50 610 44 410 q 58 1015 56 727 q 61 1443 58 1362 q 66 2024 71 1912 q 53 2287 59 2103 q 42 2488 45 2414 q 72 2520 42 2520 q 503 2577 297 2576 m 479 2049 q 467 1459 461 1743 l 467 1457 q 484 1444 467 1444 q 764 1663 678 1509 q 831 1859 831 1771 q 781 2018 825 1963 q 636 2076 749 2058 q 498 2085 560 2087 l 498 2087 q 479 2049 479 2087 z "},"S":{"ha":1050,"x_min":-7,"x_max":1023,"o":"m 532 2582 q 719 2574 613 2581 q 974 2569 946 2564 q 1009 2574 998 2574 l 1023 2550 q 1016 2265 1021 2293 q 1008 1999 1008 2026 q 1013 1909 1007 1965 q 1017 1840 1019 1874 l 1014 1811 q 1008 1806 1014 1806 q 987 1811 1004 1806 q 854 1825 907 1817 q 732 1830 822 1830 q 513 1738 573 1830 q 496 1581 490 1680 q 550 1367 494 1493 q 648 1318 576 1318 q 751 1294 700 1316 q 822 1223 793 1279 q 855 958 852 1134 q 863 347 869 696 q 838 148 860 223 q 802 71 823 94 q 667 -16 766 11 q 464 -27 582 -32 q 271 9 368 -24 q 88 120 151 42 q 30 305 34 220 q 30 399 28 338 q 33 511 31 415 q 24 633 34 551 q 18 681 21 656 q 4 769 16 706 q 1 931 -7 832 q 101 907 9 940 q 446 863 311 859 q 498 857 492 857 l 498 833 q 482 741 490 790 q 464 532 463 624 q 489 380 463 436 q 576 342 509 337 q 632 491 612 342 q 640 743 644 608 q 625 990 642 930 q 532 1036 604 1034 q 473 1031 507 1040 l 473 1034 q 375 1015 421 1013 q 258 1044 284 1026 q 220 1074 231 1059 q 186 1154 201 1096 q 138 1378 171 1189 q 121 1541 124 1459 q 124 2056 114 1868 q 148 2260 125 2145 q 261 2507 172 2397 q 363 2572 318 2556 q 532 2582 404 2582 z "},"T":{"ha":1128,"x_min":20,"x_max":1102,"o":"m 1093 2620 q 1102 2062 1059 2261 q 883 2094 1022 2082 q 661 2102 744 2106 q 642 1378 642 1956 q 681 474 650 847 q 712 5 712 102 q 471 27 631 22 q 286 10 363 24 q 326 452 289 39 q 376 1413 362 865 q 381 2124 387 1901 q 248 2119 288 2124 q 31 2072 111 2096 q 20 2612 62 2344 q 926 2601 315 2558 q 1093 2620 1054 2612 z "},"U":{"ha":912,"x_min":6,"x_max":891,"o":"m 495 2501 q 522 2477 522 2501 q 495 1964 503 2216 q 468 1001 467 1174 q 495 513 479 732 q 525 423 503 430 l 530 423 q 601 540 578 423 q 609 716 609 610 q 601 2184 601 1405 l 606 2186 q 883 2208 754 2188 q 891 2170 889 2208 q 875 1937 876 2066 q 875 605 862 1193 q 818 176 880 305 q 739 62 768 80 q 544 0 663 -3 l 411 3 q 189 52 294 3 q 30 356 78 113 q 19 752 6 530 q 23 1001 20 952 q 53 1462 42 1309 q 61 1747 58 1516 q 53 2455 61 1988 q 64 2479 56 2479 q 396 2486 113 2471 q 495 2501 465 2493 z "},"V":{"ha":1001,"x_min":20,"x_max":981,"o":"m 26 2620 l 28 2620 q 349 2596 189 2576 q 359 2582 353 2596 q 343 2387 353 2513 q 339 1383 313 1906 q 376 814 365 859 q 465 1398 406 922 q 535 2155 519 1798 q 555 2512 550 2512 q 886 2536 713 2498 q 978 2558 962 2558 l 981 2553 q 924 2303 964 2517 q 764 608 834 1697 q 736 220 748 380 q 715 41 725 59 q 305 27 562 60 q 129 3 242 12 q 121 14 121 2 q 124 201 121 33 q 132 1001 127 370 q 47 2498 140 1727 q 23 2601 42 2541 q 20 2604 20 2601 l 20 2615 q 26 2620 21 2620 z "},"W":{"ha":1397,"x_min":14,"x_max":1314,"o":"m 26 2554 q 88 2543 58 2554 q 335 2543 121 2532 q 384 2532 374 2548 q 392 2456 392 2495 q 381 1748 389 2004 q 377 1253 381 1456 q 381 1217 381 1225 l 387 1208 q 416 1282 401 1236 q 553 1677 518 1560 q 604 1854 587 1794 l 606 1854 q 734 1529 650 1800 q 793 1382 756 1442 q 848 1222 823 1320 l 853 1222 q 865 1337 859 1253 q 867 1561 869 1449 q 872 1827 872 1692 q 854 2243 854 2213 q 854 2279 854 2273 q 865 2287 854 2285 q 1055 2268 965 2265 q 1314 2308 1116 2264 q 1252 1438 1310 1887 q 1187 913 1198 1102 q 1175 647 1175 766 q 1237 -19 1181 180 q 1229 -24 1230 -24 l 1223 -24 l 991 23 q 886 45 979 23 q 780 58 825 58 l 753 58 q 745 66 749 58 q 747 121 745 81 l 745 148 l 747 148 l 745 153 l 745 159 q 747 161 745 161 q 731 387 731 294 q 666 780 728 472 q 628 905 639 856 q 568 628 615 886 q 519 267 513 347 q 509 47 520 111 q 365 20 406 37 q 142 -28 142 -14 l 132 -28 q 123 -20 127 -28 q 118 142 119 73 q 123 492 126 458 q 118 726 121 564 q 118 1000 121 747 q 77 1656 83 1518 q 58 2112 80 1713 q 16 2540 40 2287 q 26 2554 14 2553 z "},"X":{"ha":1161,"x_min":20,"x_max":1141,"o":"m 475 2247 q 525 1843 488 2045 q 598 1541 533 1790 l 604 1541 l 628 1653 l 625 1664 q 644 1726 640 1725 l 642 1731 l 658 1815 q 655 1818 658 1818 l 661 1851 l 658 1856 q 666 1900 663 1869 q 663 1902 666 1902 l 666 1916 l 666 1921 q 663 1929 666 1929 l 666 1943 l 666 2027 q 671 2043 666 2035 q 726 2022 683 2043 q 907 1965 795 1989 q 1070 1919 1031 1919 q 1078 1921 1073 1919 q 1130 1910 1099 1914 q 1141 1886 1141 1894 q 1119 1851 1135 1885 q 1059 1769 1109 1851 q 964 1596 1004 1687 q 924 1506 933 1546 q 913 1487 921 1506 q 916 1479 916 1482 q 872 1387 907 1472 q 842 1303 842 1325 l 837 1305 l 834 1305 l 834 1303 l 840 1303 q 821 1259 823 1261 l 823 1254 l 807 1219 q 810 1211 810 1213 q 785 1154 810 1208 q 774 1116 779 1116 l 777 1110 q 764 1069 777 1105 l 766 1064 q 761 1056 764 1056 l 764 1050 q 758 1034 758 1042 q 793 918 764 1033 q 807 880 801 885 l 804 874 q 818 842 809 850 l 815 836 q 837 749 831 793 q 875 597 848 717 q 989 226 921 460 q 997 204 993 226 q 994 201 994 204 q 1013 153 1013 179 q 1046 77 1018 151 q 1084 -24 1051 73 q 1019 -2 1053 -13 q 894 20 984 9 l 891 20 q 880 17 886 17 q 856 20 871 17 l 850 17 l 837 20 q 701 7 819 20 q 699 250 705 151 q 701 261 701 255 l 699 267 q 701 277 701 271 q 699 286 701 280 q 701 288 699 288 q 671 554 696 368 q 663 587 671 578 l 663 597 l 666 611 q 652 657 663 611 l 644 663 l 644 652 l 647 638 q 623 562 635 638 q 625 551 625 557 l 614 530 l 617 524 q 598 435 609 473 l 601 429 q 590 397 594 397 l 593 391 q 587 359 591 359 q 590 356 587 356 l 587 342 l 587 323 q 579 104 574 163 q 471 82 535 87 q 351 55 412 77 l 305 39 q 181 -7 244 6 q 237 155 237 132 q 267 237 243 157 l 305 378 q 365 622 325 418 q 411 785 411 782 q 435 858 419 800 q 433 866 435 861 q 465 1013 433 873 l 476 1075 q 457 1126 457 1120 l 460 1132 q 435 1181 449 1162 q 381 1330 406 1270 q 302 1539 381 1338 q 262 1642 302 1549 q 227 1731 237 1710 q 205 1788 227 1740 q 170 1872 205 1805 l 153 1927 q 88 2065 125 1966 q 20 2214 64 2115 q 140 2225 84 2221 q 341 2240 279 2239 q 475 2247 404 2241 m 444 958 l 446 953 l 441 950 l 438 950 l 438 953 q 444 958 439 958 z "},"Y":{"ha":1175,"x_min":20,"x_max":1154,"o":"m 1152 2589 q 1154 2580 1154 2583 q 1133 2513 1154 2570 q 1054 2325 1057 2355 q 1029 2260 1036 2291 q 940 2019 1006 2219 l 943 2013 q 875 1834 932 1997 q 815 1645 837 1695 q 693 1187 701 1260 q 709 795 702 903 q 707 785 709 789 q 709 774 709 780 l 707 760 q 709 749 709 755 l 707 749 l 709 744 l 707 725 q 709 703 709 706 l 707 692 q 709 665 709 678 l 709 657 q 707 654 709 654 q 709 646 709 649 l 707 641 q 709 633 709 635 q 707 630 709 630 l 712 597 q 707 524 707 547 q 709 516 709 519 q 707 505 707 511 q 709 494 709 500 l 707 494 l 709 489 q 707 478 709 483 l 712 440 q 709 437 712 437 l 712 424 q 715 353 715 360 l 712 348 l 718 337 q 715 329 718 334 q 718 299 718 311 q 715 275 718 290 q 718 264 718 270 l 715 264 q 718 256 718 258 q 720 223 718 237 q 718 185 718 200 q 726 134 723 140 q 723 131 726 131 q 728 52 728 94 q 552 39 663 48 q 422 12 457 25 l 411 12 q 240 -26 398 12 q 208 -37 240 -33 q 227 128 213 35 l 224 134 l 245 269 l 243 280 q 264 481 243 298 q 262 484 264 484 q 273 551 264 513 l 270 570 l 273 570 q 270 578 270 576 q 273 595 270 581 l 270 600 q 281 649 270 617 q 278 657 281 652 l 281 663 q 278 673 278 667 q 283 690 283 682 q 281 725 281 724 l 283 736 q 281 739 283 739 q 300 833 289 817 l 297 839 q 300 890 300 876 q 313 985 306 890 l 311 991 q 321 1059 313 1033 q 319 1069 319 1063 l 321 1075 q 264 1333 305 1129 q 240 1417 256 1348 l 180 1601 l 151 1721 q 91 2008 151 1731 q 69 2084 89 2010 l 72 2089 q 61 2114 68 2105 q 64 2122 64 2119 q 45 2182 53 2136 l 47 2187 l 20 2279 q 28 2282 26 2282 q 83 2271 83 2279 l 88 2274 l 142 2274 q 178 2279 165 2274 l 197 2277 q 324 2290 283 2282 q 324 2212 319 2264 q 378 1867 339 2048 q 376 1864 378 1864 l 395 1777 q 392 1767 392 1773 q 400 1729 397 1756 l 397 1729 q 411 1664 408 1695 l 416 1664 l 419 1674 l 416 1680 q 444 1810 427 1716 q 457 1848 450 1817 l 457 1889 q 473 1940 465 1931 q 471 1943 473 1943 q 509 2122 481 2026 q 506 2130 506 2127 q 530 2239 517 2169 q 528 2247 528 2244 q 555 2423 538 2289 l 555 2491 q 560 2496 555 2496 q 696 2499 602 2496 q 701 2504 696 2504 l 720 2504 q 875 2529 838 2521 q 994 2551 935 2537 l 994 2548 q 1067 2567 1034 2561 q 1143 2589 1067 2573 l 1152 2589 z "},"Z":{"ha":1318,"x_min":20,"x_max":1298,"o":"m 1263 2598 l 1293 2598 q 1298 2593 1298 2597 l 1298 2576 l 1287 2509 l 1287 2498 q 1274 2378 1287 2438 q 1252 2218 1274 2342 l 1252 2175 l 1233 1990 l 1233 1898 q 1198 1809 1233 1834 q 1127 1708 1185 1781 q 959 1456 1018 1539 q 935 1421 959 1451 q 842 1293 901 1360 q 780 1204 841 1284 q 639 998 780 1191 q 601 941 623 968 q 541 829 541 835 l 541 827 q 604 821 570 821 l 633 821 q 636 819 636 821 l 642 821 l 644 821 q 682 824 659 821 l 688 821 q 701 824 692 824 l 720 821 q 728 824 726 824 q 739 819 739 822 q 799 824 775 824 l 804 821 q 815 824 809 824 l 831 824 q 834 821 834 824 l 840 824 l 850 824 q 853 821 853 824 q 869 827 862 827 l 872 827 q 875 824 875 827 q 891 829 886 829 q 899 827 894 829 q 1035 843 903 827 q 1057 840 1050 840 q 1138 857 1067 840 l 1152 857 l 1162 846 l 1160 819 q 1162 813 1160 813 q 1157 748 1160 800 q 1160 740 1160 743 q 1154 724 1154 731 l 1154 707 q 1160 702 1155 702 l 1154 631 l 1157 626 q 1154 618 1154 621 q 1157 612 1154 612 l 1154 593 l 1154 583 q 1157 569 1154 574 q 1154 550 1154 558 q 1160 496 1154 536 l 1157 490 q 1160 479 1160 486 l 1157 474 l 1160 469 q 1157 460 1160 466 q 1165 387 1160 411 q 1162 379 1162 382 q 1165 341 1165 345 q 1160 295 1160 304 l 1162 290 q 1160 281 1160 284 q 1165 238 1165 243 l 1162 238 q 1168 208 1164 233 l 1165 208 l 1168 203 l 1168 184 q 1173 151 1168 170 l 1171 138 q 1173 113 1173 123 l 1171 102 q 1173 92 1173 98 l 1171 92 q 1181 45 1181 49 l 1179 45 q 1184 29 1184 37 l 1184 24 q 1160 10 1184 18 l 1141 13 l 1124 13 q 1114 10 1118 13 q 1078 16 1101 16 l 1046 16 l 1029 13 q 891 29 903 26 q 888 26 888 29 q 829 35 852 30 q 818 32 824 32 l 804 32 q 802 35 802 32 q 799 32 799 35 q 769 37 774 35 q 766 35 766 37 l 753 37 l 718 37 q 685 43 685 37 l 680 40 l 617 40 q 606 43 611 40 q 604 40 604 43 l 585 43 l 514 43 q 392 29 442 43 q 389 32 389 29 q 340 21 340 26 l 324 24 q 140 -14 210 5 q 134 -17 140 -17 q 50 -33 85 -17 l 45 -33 q 39 -28 39 -33 q 53 13 45 -20 l 50 18 q 58 62 53 53 q 56 64 58 64 l 58 78 l 58 89 q 80 311 64 194 q 75 325 77 325 q 88 398 75 328 q 85 401 88 401 q 96 477 92 461 l 94 482 q 99 580 94 526 q 96 591 96 585 l 99 596 l 96 602 q 107 702 101 616 l 107 715 q 104 764 107 739 q 107 786 107 775 q 104 794 104 791 q 145 824 116 806 q 221 892 201 863 q 300 987 286 950 q 384 1114 332 1051 q 406 1152 384 1120 q 460 1255 420 1204 q 525 1364 481 1303 q 560 1426 539 1399 q 598 1489 560 1434 q 666 1651 666 1626 q 709 1733 709 1714 q 753 1844 726 1780 q 758 1849 758 1844 l 758 1855 l 726 1852 l 671 1852 q 669 1855 669 1852 q 661 1852 663 1852 q 606 1849 643 1852 l 590 1852 q 582 1849 585 1849 l 582 1852 l 576 1849 l 547 1849 q 536 1847 541 1849 q 533 1849 533 1847 l 519 1847 q 495 1849 510 1847 l 490 1847 q 481 1849 487 1847 q 433 1844 473 1849 q 411 1847 422 1847 l 400 1844 q 397 1847 397 1844 q 142 1806 353 1847 l 88 1806 q 23 1782 77 1798 l 20 1787 l 20 1798 q 26 1814 20 1805 l 23 1825 q 42 2012 28 1855 q 39 2015 42 2015 l 42 2034 l 42 2083 q 47 2096 43 2096 l 45 2110 l 45 2134 q 42 2169 45 2152 q 45 2197 45 2179 q 42 2213 45 2199 l 45 2213 q 42 2216 45 2216 q 45 2226 42 2222 q 42 2270 42 2254 l 42 2292 q 39 2302 42 2298 q 42 2305 39 2305 q 31 2427 39 2369 q 34 2438 31 2433 q 20 2533 31 2479 q 23 2536 20 2536 l 20 2549 l 20 2560 q 26 2566 21 2566 l 37 2566 q 56 2568 52 2566 l 240 2549 q 248 2547 248 2549 l 254 2549 l 262 2549 q 286 2544 269 2549 l 292 2547 l 308 2544 q 321 2547 317 2544 q 346 2541 340 2544 l 351 2544 q 368 2538 368 2542 q 376 2541 373 2541 q 414 2536 390 2541 q 427 2538 418 2538 l 427 2536 l 433 2538 q 441 2536 435 2538 q 471 2538 459 2538 l 490 2538 q 492 2536 492 2538 l 498 2538 l 514 2536 l 519 2538 q 522 2536 522 2538 l 549 2538 l 604 2538 q 614 2536 610 2538 q 680 2544 618 2538 l 680 2541 l 699 2547 q 701 2544 701 2547 l 715 2547 l 720 2547 q 731 2544 726 2547 l 788 2555 q 791 2552 791 2555 q 799 2555 796 2555 q 932 2560 852 2555 q 962 2555 962 2558 q 978 2560 970 2560 l 1008 2560 q 1067 2571 1055 2571 l 1067 2568 q 1095 2576 1081 2576 l 1095 2574 l 1103 2574 q 1122 2582 1113 2582 l 1130 2582 l 1138 2576 q 1252 2590 1173 2587 q 1263 2598 1252 2593 z "},"[":{"ha":1025,"x_min":0,"x_max":979,"o":"m 949 3233 l 960 3233 q 968 3221 964 3233 q 955 3169 968 3182 l 955 3165 l 960 3165 q 947 3053 941 3101 l 949 3046 q 941 2981 943 2981 l 944 2974 q 939 2951 939 2959 q 944 2914 941 2920 q 941 2903 941 2907 q 944 2880 941 2900 l 939 2861 q 944 2805 944 2825 q 933 2666 944 2711 l 933 2564 q 920 2553 933 2556 q 857 2564 867 2564 l 822 2564 l 738 2580 q 692 2576 729 2580 q 648 2583 663 2583 q 624 2576 631 2576 l 610 2576 q 562 2580 587 2576 q 543 2576 551 2576 q 534 2580 537 2580 q 524 2576 530 2576 l 524 2580 q 480 2568 510 2572 l 475 2572 q 418 2542 418 2572 q 420 2538 418 2538 q 412 2441 417 2477 l 415 2433 q 426 1957 410 2364 q 423 1952 426 1952 q 426 1942 426 1945 q 429 1813 426 1899 l 420 762 l 422 754 q 420 750 422 750 q 422 747 420 747 l 420 709 l 420 701 l 422 683 l 420 683 l 422 675 q 417 623 417 647 l 417 596 q 420 581 417 588 q 414 506 417 578 q 417 427 417 464 l 414 427 l 417 420 l 417 390 l 420 352 l 417 352 l 420 345 q 417 341 420 341 q 431 307 421 307 l 463 311 l 474 307 q 493 315 493 310 l 504 311 q 781 333 753 321 l 781 329 l 787 333 q 795 329 789 333 q 852 344 836 336 l 852 340 l 857 344 l 898 344 q 930 355 926 355 q 977 351 959 351 l 979 344 q 955 168 974 271 q 958 163 955 163 q 947 55 952 128 q 949 43 947 51 q 947 14 949 41 q 952 -62 947 -16 q 949 -96 949 -83 q 963 -194 955 -151 l 960 -194 q 968 -269 963 -206 l 960 -277 l 958 -277 q 955 -273 955 -277 l 949 -277 l 944 -277 q 933 -273 938 -277 q 925 -277 928 -277 l 838 -262 l 833 -265 q 741 -254 833 -258 l 730 -258 l 724 -247 q 722 -250 722 -247 l 703 -247 l 665 -247 q 540 -239 654 -247 q 494 -246 503 -243 l 477 -243 l 469 -243 q 393 -239 435 -243 l 380 -243 q 372 -239 374 -239 q 361 -243 367 -243 l 361 -239 l 355 -243 l 328 -243 q 326 -239 326 -243 q 309 -246 317 -246 l 274 -246 q 250 -243 264 -246 l 244 -246 l 228 -243 q 220 -246 225 -243 q 212 -243 217 -246 l 165 -250 l 152 -246 q 136 -254 141 -254 l 136 -250 l 130 -254 l 90 -254 l 62 -258 l 62 -254 l 57 -258 l 5 -258 l 0 -254 q 11 -182 11 -214 l 11 -153 l 16 -141 l 16 -107 q 27 58 24 -65 q 33 84 30 58 l 30 92 q 33 107 33 98 l 30 115 q 38 205 35 127 l 35 212 q 43 287 41 224 q 41 298 41 295 l 43 298 q 41 302 43 302 q 49 381 45 381 l 46 389 q 49 404 46 397 q 46 408 49 408 q 54 490 50 458 l 52 498 q 62 671 62 602 q 60 682 60 678 q 62 693 62 689 q 60 696 62 696 l 68 783 l 65 802 l 65 847 q 68 851 65 851 q 65 862 65 859 q 71 911 65 889 q 68 964 68 943 q 71 1128 68 1030 l 73 1137 q 68 1230 68 1158 l 71 1230 l 68 1238 l 71 1245 q 68 1249 71 1249 l 71 1267 l 71 1339 q 73 1343 71 1343 l 71 1350 q 76 1512 73 1498 l 71 1542 q 76 1632 76 1611 q 73 1655 76 1635 q 76 1662 73 1662 q 71 1850 73 1700 l 73 1876 q 71 1906 71 1891 q 73 1910 71 1910 l 71 1929 l 71 1974 q 68 2011 71 1992 q 73 2091 71 2030 q 71 2237 71 2169 l 68 2245 q 73 2267 71 2267 l 71 2286 l 71 2335 q 68 2350 71 2343 l 71 2357 q 68 2361 71 2361 q 73 2399 71 2389 q 71 2410 71 2406 q 73 2421 71 2414 l 65 2523 l 68 2530 q 62 2620 62 2589 l 65 2620 l 62 2628 l 62 2684 q 65 2688 62 2688 l 57 2752 q 60 2804 57 2757 q 54 2906 57 2906 l 57 2928 l 57 2951 l 60 2959 q 52 2974 57 2959 l 54 2992 l 54 3067 l 49 3079 q 52 3082 49 3082 l 49 3090 q 60 3150 52 3150 q 117 3147 107 3147 q 282 3162 276 3156 l 331 3154 l 477 3177 l 477 3172 q 564 3191 490 3180 l 578 3188 l 684 3214 l 694 3210 l 711 3214 l 711 3210 l 735 3221 l 746 3218 q 949 3233 876 3233 z "},"\\":{"ha":1454,"x_min":96,"x_max":1388,"o":"m 1355 -58 q 1276 -39 1307 -50 l 1276 -42 q 1149 -15 1271 -42 q 1081 -4 1096 -12 l 1081 -7 l 1053 1 q 1050 -1 1053 -1 l 1023 -1 l 1010 -4 q 1007 -1 1010 -1 l 1008 -4 q 985 1 1002 -4 l 980 -1 q 939 4 954 4 q 928 1 933 4 q 918 4 924 4 l 877 4 l 871 7 l 871 4 l 844 7 l 825 4 q 823 7 825 7 q 801 1 823 3 l 789 9 l 790 4 l 785 4 l 784 18 q 770 66 770 63 l 771 91 l 738 275 q 741 278 741 275 q 736 300 737 293 q 706 441 727 335 l 709 446 q 680 566 693 517 l 682 571 q 671 606 679 571 l 669 636 q 646 712 662 642 q 587 964 614 869 l 586 978 q 590 1000 585 989 q 564 1084 583 1000 q 517 1255 544 1187 q 520 1257 520 1255 l 496 1331 l 499 1336 l 496 1341 q 498 1350 496 1344 q 459 1453 460 1442 q 426 1561 427 1537 q 428 1564 429 1561 q 422 1572 425 1564 q 425 1580 422 1575 q 418 1588 421 1588 q 396 1648 418 1593 l 398 1653 q 389 1678 392 1678 q 371 1748 380 1748 q 342 1824 355 1806 q 298 1965 309 1943 q 258 2077 267 2068 l 260 2082 q 231 2161 248 2137 q 202 2242 220 2203 q 175 2332 186 2325 q 148 2410 167 2368 q 96 2549 121 2499 l 96 2559 q 106 2557 102 2559 q 115 2559 112 2559 q 162 2540 124 2559 q 505 2470 163 2514 l 513 2470 l 519 2467 l 519 2470 l 549 2464 q 576 2467 563 2467 l 603 2467 l 609 2464 q 611 2467 608 2467 q 636 2410 633 2456 l 637 2405 l 634 2399 q 647 2367 647 2376 q 645 2356 648 2361 q 648 2345 648 2351 q 646 2334 649 2339 q 673 2218 653 2316 q 696 2093 675 2181 l 694 2079 q 722 1938 711 2023 q 720 1935 720 1938 q 743 1830 737 1874 q 740 1827 740 1830 q 743 1816 743 1817 l 741 1811 q 747 1800 745 1800 q 800 1567 768 1681 q 798 1558 797 1561 q 803 1553 798 1554 q 825 1461 816 1491 l 823 1455 q 844 1385 827 1455 q 872 1309 859 1366 q 920 1152 920 1159 l 989 956 l 987 951 l 987 945 q 1034 848 1013 898 q 1082 715 1062 745 q 1124 604 1084 685 l 1122 598 l 1128 595 q 1198 416 1128 583 q 1257 267 1223 328 q 1282 199 1274 211 q 1317 123 1298 153 q 1343 53 1326 66 q 1364 18 1354 26 q 1388 -53 1371 -21 l 1379 -58 l 1355 -58 z "},"]":{"ha":1025,"x_min":0,"x_max":979,"o":"m 30 -277 l 19 -277 q 11 -265 15 -277 q 24 -213 11 -226 l 24 -209 l 19 -209 q 33 -97 38 -145 l 30 -90 q 38 -25 36 -25 l 35 -18 q 41 5 41 -3 q 35 42 38 36 q 38 54 38 50 q 35 76 38 56 l 41 95 q 35 151 35 131 q 46 290 35 245 l 46 392 q 60 403 46 400 q 122 392 112 392 l 157 392 l 241 376 q 288 380 250 376 q 331 373 316 373 q 355 380 349 380 l 369 380 q 418 376 392 380 q 437 380 429 380 q 445 376 442 376 q 456 380 450 380 l 456 376 q 499 388 469 385 l 505 385 q 562 414 562 385 q 559 418 562 418 q 567 515 562 479 l 564 524 q 553 1000 570 592 q 556 1004 553 1004 q 553 1015 553 1011 q 551 1143 553 1057 l 559 2195 l 557 2202 q 559 2206 557 2206 q 557 2209 559 2209 l 559 2247 l 559 2255 l 557 2273 l 559 2273 l 557 2281 q 562 2334 562 2309 l 562 2360 q 559 2375 562 2368 q 565 2450 562 2378 q 562 2529 562 2492 l 565 2529 l 562 2536 l 562 2566 l 559 2604 l 562 2604 l 559 2612 q 562 2615 559 2615 q 549 2649 558 2649 l 516 2646 l 505 2649 q 486 2641 486 2646 l 475 2646 q 198 2623 227 2635 l 198 2627 l 193 2623 q 184 2627 190 2623 q 127 2612 144 2620 l 127 2616 l 122 2612 l 81 2612 q 49 2601 53 2601 q 3 2605 20 2605 l 0 2612 q 24 2789 5 2685 q 22 2793 24 2793 q 33 2901 27 2828 q 30 2913 33 2905 q 33 2943 30 2915 q 27 3018 33 2972 q 30 3052 30 3039 q 16 3150 24 3107 l 19 3150 q 11 3225 16 3162 l 19 3233 l 22 3233 q 24 3229 24 3233 l 30 3233 l 35 3233 q 46 3229 41 3233 q 54 3233 52 3233 l 141 3218 l 146 3221 q 239 3210 146 3214 l 250 3214 l 255 3203 q 258 3206 258 3203 l 277 3203 l 315 3203 q 439 3195 326 3203 q 486 3202 477 3200 l 502 3199 l 510 3199 q 586 3195 545 3199 l 600 3199 q 608 3195 605 3195 q 618 3199 612 3199 l 618 3195 l 624 3199 l 651 3199 q 654 3195 654 3199 q 670 3202 663 3202 l 705 3202 q 730 3199 715 3202 l 735 3202 l 751 3199 q 760 3202 754 3199 q 768 3199 762 3202 l 814 3206 l 827 3202 q 844 3210 838 3210 l 844 3206 l 849 3210 l 890 3210 l 917 3214 l 917 3210 l 922 3214 l 974 3214 l 979 3210 q 968 3139 968 3170 l 968 3109 l 963 3097 l 963 3063 q 952 2898 955 3021 q 947 2872 949 2898 l 949 2865 q 947 2849 947 2858 l 949 2842 q 941 2751 945 2829 l 944 2744 q 936 2669 939 2732 q 939 2658 939 2661 l 936 2658 q 939 2654 936 2654 q 930 2575 934 2575 l 933 2568 q 930 2553 933 2559 q 933 2549 930 2549 q 925 2466 930 2498 l 928 2458 q 917 2285 917 2355 q 920 2275 920 2278 q 917 2263 917 2267 q 920 2260 917 2260 l 911 2173 l 914 2155 l 914 2109 q 911 2105 914 2105 q 914 2094 914 2098 q 909 2045 914 2067 q 911 1992 911 2013 q 909 1828 911 1926 l 906 1820 q 911 1726 911 1799 l 909 1726 l 911 1718 l 909 1711 q 911 1707 909 1707 l 909 1689 l 909 1617 q 906 1613 909 1613 l 909 1606 q 903 1444 906 1458 l 909 1414 q 903 1324 903 1345 q 906 1301 903 1321 q 903 1294 906 1294 q 909 1106 906 1256 l 906 1080 q 909 1050 909 1065 q 906 1046 909 1046 l 909 1027 l 909 982 q 911 945 909 964 q 906 865 909 926 q 909 719 909 787 l 911 711 q 906 689 909 689 l 909 670 l 909 621 q 911 606 909 613 l 909 599 q 911 595 909 595 q 906 557 909 567 q 909 546 909 550 q 906 535 909 543 l 914 433 l 911 426 q 917 336 917 368 l 914 336 l 917 328 l 917 272 q 914 268 917 268 l 922 204 q 920 152 922 199 q 925 50 922 50 l 922 28 l 922 5 l 920 -3 q 928 -18 922 -3 l 925 -36 l 925 -111 l 930 -123 q 928 -126 930 -126 l 930 -134 q 920 -194 927 -194 q 863 -191 872 -191 q 697 -205 703 -199 l 648 -198 l 502 -220 l 502 -216 q 415 -235 490 -224 l 401 -232 l 296 -258 l 285 -254 l 269 -258 l 269 -254 l 244 -265 l 233 -262 q 30 -277 104 -277 z "},"^":{"ha":1012,"x_min":197,"x_max":1008,"o":"m 612 3250 q 648 3217 643 3217 q 692 3180 648 3212 q 816 3067 699 3168 q 854 3035 821 3067 q 1002 2963 952 2979 q 1008 2949 1006 2962 q 970 2890 981 2915 l 939 2831 q 920 2804 926 2820 q 884 2747 916 2802 q 859 2666 874 2696 q 721 2749 771 2715 q 653 2802 715 2749 q 585 2842 589 2842 q 513 2768 526 2776 l 460 2711 q 417 2677 456 2711 q 376 2648 392 2662 q 340 2715 369 2654 q 277 2804 300 2783 l 197 2884 q 317 2974 208 2894 q 378 3026 323 2974 q 501 3144 415 3050 q 555 3196 555 3191 q 608 3250 570 3198 l 612 3250 z "},"_":{"ha":1677,"x_min":-17,"x_max":1653,"o":"m -12 -186 q -17 -183 -12 -183 l -3 -145 q 24 37 -3 -123 q 33 45 24 45 q 28 159 28 117 l 28 327 q 38 332 28 332 q 88 327 43 332 l 102 327 q 120 330 112 327 q 216 321 135 327 l 334 321 q 412 324 358 321 l 412 321 q 416 324 416 321 q 517 321 485 321 l 659 321 q 745 324 694 321 q 763 321 753 321 q 996 332 808 326 q 1114 343 1062 343 l 1233 343 q 1251 349 1244 349 q 1648 368 1411 349 l 1653 362 q 1621 297 1653 358 q 1626 294 1621 294 q 1607 229 1626 290 l 1607 210 q 1594 145 1607 172 q 1598 142 1594 142 q 1566 -23 1566 -18 l 1566 -53 q 1544 -123 1566 -123 q 1534 -126 1534 -123 l 1502 -123 l 1293 -123 q 991 -129 1096 -123 l 991 -126 q 987 -129 987 -126 l 877 -123 l 850 -129 q 845 -126 845 -129 q 781 -132 811 -132 l 772 -132 q 768 -129 768 -132 l 749 -134 l 741 -132 q 694 -137 694 -134 l 676 -134 q 572 -137 592 -137 q 498 -148 572 -144 l 475 -142 q 261 -159 356 -159 q 38 -178 242 -164 q -12 -186 38 -180 z "},"`":{"ha":1080,"x_min":279,"x_max":1016,"o":"m 527 3248 q 594 3185 564 3204 q 663 3126 652 3130 q 802 3021 689 3101 q 962 2924 804 3018 q 1016 2884 1010 2900 l 988 2853 q 934 2782 964 2834 q 869 2675 894 2724 q 827 2605 832 2620 l 823 2603 q 818 2609 822 2606 q 747 2659 774 2636 q 688 2700 690 2696 q 616 2754 634 2735 q 516 2816 605 2757 q 456 2851 463 2853 q 282 2951 392 2896 l 281 2955 q 336 3010 279 2961 q 419 3094 388 3057 q 469 3151 460 3149 q 524 3247 497 3205 l 527 3248 z "},"a":{"ha":1180,"x_min":20,"x_max":1160,"o":"m 208 2671 q 338 2670 231 2666 q 346 2673 343 2673 q 378 2674 350 2674 l 392 2678 q 414 2677 402 2676 l 425 2678 l 430 2676 l 430 2679 l 468 2680 l 481 2684 l 495 2679 l 509 2684 q 576 2685 559 2684 q 606 2693 592 2686 l 623 2692 l 631 2693 l 644 2697 q 647 2694 644 2694 q 734 2711 656 2698 q 736 2709 734 2708 q 769 2717 736 2713 l 850 2725 q 880 2671 880 2703 l 880 2662 q 878 2652 880 2656 q 894 2485 894 2555 l 891 2474 q 894 2466 894 2474 q 937 2180 907 2310 l 935 2174 l 945 2110 q 943 2099 945 2104 l 948 2059 q 945 2045 945 2053 l 945 2037 q 951 2007 951 2011 l 951 1994 l 948 1980 q 962 1868 952 1980 l 959 1862 q 962 1860 962 1862 l 962 1830 q 978 1657 978 1700 q 975 1647 978 1651 q 986 1574 981 1590 l 986 1563 l 983 1558 l 986 1558 q 981 1538 986 1556 q 983 1531 981 1535 l 978 1500 q 983 1468 980 1493 q 981 1459 981 1462 l 983 1447 q 981 1443 981 1446 l 986 1433 q 981 1408 986 1421 q 983 1406 983 1409 l 983 1381 q 991 1347 983 1360 q 989 1338 991 1344 l 991 1339 q 989 1303 991 1326 q 997 1280 993 1297 q 1010 1175 997 1251 l 1010 1145 l 1027 1079 l 1024 1073 q 1038 966 1024 1068 q 1067 833 1062 873 l 1065 827 q 1073 804 1069 828 q 1070 801 1070 804 l 1073 801 q 1095 665 1084 679 l 1089 662 q 1097 614 1097 620 l 1095 602 q 1116 439 1108 526 l 1114 425 q 1116 418 1114 417 q 1160 94 1146 155 l 1149 92 q 951 119 1114 108 q 940 116 946 116 l 913 116 l 910 110 q 883 113 895 109 q 850 102 883 111 q 826 104 836 100 q 823 102 826 102 l 726 92 l 693 92 q 661 83 693 86 l 658 83 q 661 113 658 94 l 658 145 l 661 157 q 655 164 658 156 l 666 241 l 663 265 l 674 356 l 674 418 q 680 441 674 430 l 677 440 q 682 487 677 454 q 680 490 680 487 q 682 500 682 494 l 682 519 l 685 525 q 680 547 680 525 q 682 582 680 564 l 677 611 q 680 614 680 612 q 674 633 674 627 q 680 647 674 637 q 674 752 674 742 q 666 757 674 755 l 669 762 l 669 770 q 661 767 666 770 q 536 763 564 760 l 530 760 q 519 762 526 762 l 503 760 l 498 757 q 506 606 506 659 l 506 584 l 509 570 q 506 568 506 570 l 509 568 q 506 557 509 562 q 509 432 509 481 l 509 391 l 511 365 q 509 361 509 364 q 514 332 511 362 q 511 324 511 327 q 517 237 511 272 q 514 229 514 232 l 517 218 q 514 208 517 212 l 517 191 l 517 167 q 519 127 517 150 l 517 110 q 519 78 519 83 q 517 69 517 72 q 525 43 521 70 q 522 -41 525 32 l 525 -54 l 522 -68 q 525 -84 525 -82 q 519 -90 525 -90 l 484 -94 q 476 -89 483 -94 l 463 -90 q 392 -81 406 -87 l 294 -77 l 232 -83 q 202 -80 229 -83 l 107 -90 q 26 -94 80 -92 l 20 -84 q 37 83 28 61 l 34 88 q 39 105 39 98 l 39 113 l 37 126 q 56 245 43 146 q 50 293 54 252 q 58 342 55 294 q 56 351 56 342 l 56 356 l 58 361 l 56 361 q 61 449 56 416 q 58 462 58 453 l 58 467 q 69 555 69 544 l 66 566 l 69 566 l 85 676 l 83 676 l 85 690 q 83 698 85 692 l 85 703 q 83 722 85 711 q 94 780 90 749 l 91 780 l 94 791 q 113 958 101 823 l 110 964 q 115 1010 112 969 q 113 1013 113 1010 l 118 1048 q 115 1050 115 1048 l 145 1279 q 142 1281 142 1278 l 145 1301 q 142 1343 145 1323 q 148 1371 145 1364 l 145 1388 q 151 1426 145 1405 q 148 1428 148 1426 l 151 1434 q 148 1444 148 1438 l 148 1447 q 153 1483 148 1470 l 151 1482 q 161 1590 153 1555 q 159 1592 159 1590 l 159 1595 l 161 1600 l 159 1600 q 167 1669 161 1656 l 164 1668 q 167 1680 164 1674 q 164 1687 167 1683 l 167 1704 l 167 1707 q 164 1717 167 1713 q 167 1729 167 1723 l 167 1750 q 170 1780 167 1762 q 167 1791 167 1785 l 170 1818 q 164 1883 164 1852 l 164 1896 l 161 1910 q 175 1984 170 1934 l 172 2001 q 175 2014 175 2005 l 175 2039 l 178 2044 l 175 2044 l 178 2058 l 178 2063 q 175 2087 178 2072 q 180 2110 180 2105 l 178 2115 q 180 2123 180 2121 q 178 2153 180 2135 l 180 2164 l 175 2174 q 180 2197 175 2177 l 180 2221 q 186 2273 180 2251 l 180 2300 q 183 2308 183 2305 q 180 2348 183 2325 l 189 2398 l 186 2403 l 189 2409 q 186 2430 189 2416 q 189 2439 186 2433 q 186 2446 189 2441 q 189 2498 186 2454 q 186 2536 189 2502 q 189 2539 189 2536 q 183 2584 183 2538 l 183 2593 l 186 2598 q 180 2603 180 2598 l 180 2614 l 183 2628 q 180 2631 180 2628 q 183 2641 180 2637 l 180 2647 q 208 2671 180 2666 m 555 1843 l 558 1837 q 545 1779 553 1786 l 547 1773 q 534 1693 540 1692 q 536 1685 534 1690 q 512 1497 531 1601 l 512 1472 q 509 1462 512 1466 q 512 1453 512 1456 l 509 1454 q 512 1451 509 1451 q 507 1411 509 1417 l 509 1405 q 504 1381 507 1387 l 507 1375 l 498 1343 l 501 1333 q 498 1257 498 1291 l 496 1244 q 498 1235 498 1238 l 496 1211 l 498 1200 l 496 1195 q 498 1192 496 1192 l 496 1165 q 498 1129 496 1143 q 496 1092 496 1107 q 501 1015 496 1058 q 536 1017 532 1015 l 542 1014 l 596 1014 q 626 1006 600 1011 l 645 1007 q 656 1000 656 1004 q 669 1018 667 999 q 653 1160 662 1059 q 656 1168 656 1166 q 653 1179 653 1173 l 656 1179 l 645 1213 q 648 1248 648 1236 q 640 1295 640 1291 l 642 1295 q 637 1317 637 1312 l 640 1316 q 577 1816 577 1647 q 564 1877 564 1851 q 555 1843 557 1878 z "},"b":{"ha":1039,"x_min":20,"x_max":1019,"o":"m 433 87 q 316 76 355 71 q 213 84 213 77 q 148 90 188 81 q 47 109 47 105 l 47 138 l 50 144 q 47 146 47 144 l 50 163 l 47 168 q 56 211 47 180 q 50 261 56 245 l 56 290 q 53 297 53 294 q 61 448 53 393 q 58 456 58 453 q 61 465 58 458 l 58 464 q 64 595 64 532 l 61 608 q 69 634 62 608 q 66 636 66 633 l 66 690 q 72 746 66 718 q 69 791 69 777 q 88 1254 77 888 l 83 1318 q 85 1321 85 1318 q 83 1323 83 1320 l 83 1353 l 85 1359 q 83 1361 83 1358 l 83 1375 q 88 1449 83 1421 q 85 1451 85 1449 q 88 1463 88 1457 l 88 1493 l 72 1717 l 75 1723 q 72 1731 72 1723 l 56 1879 q 58 1888 58 1885 l 56 1898 l 58 1910 q 50 1992 53 1908 q 53 2001 53 1998 l 45 2029 l 47 2035 l 45 2045 q 47 2056 45 2051 q 39 2104 45 2066 q 45 2124 39 2112 q 39 2128 40 2123 l 39 2136 l 42 2142 q 34 2173 39 2163 l 37 2179 q 26 2245 37 2196 l 26 2256 l 28 2262 l 26 2261 q 20 2338 26 2283 q 39 2353 33 2352 q 61 2355 46 2355 q 140 2380 68 2362 q 427 2405 303 2401 q 639 2401 625 2410 q 810 2370 722 2405 q 948 2260 859 2363 q 1013 2011 1013 2140 q 1010 2008 1010 2011 l 1013 2009 q 1019 1863 1016 1893 q 1016 1858 1016 1863 q 1019 1855 1019 1858 l 1016 1849 q 1019 1839 1019 1845 l 1019 1833 q 1013 1789 1019 1829 l 1013 1735 l 1010 1721 q 1013 1718 1013 1721 q 1008 1687 1010 1714 l 1010 1683 l 1005 1668 l 1008 1668 q 954 1461 975 1513 q 840 1297 924 1365 l 842 1291 l 840 1291 l 834 1293 q 810 1274 810 1277 l 707 1208 l 707 1206 q 761 1185 741 1197 q 804 1162 798 1160 q 853 1118 847 1117 q 967 943 925 1039 q 1013 742 991 892 l 1013 682 l 1010 668 q 1013 666 1013 669 q 975 476 1013 588 q 774 235 885 313 q 639 153 664 158 l 633 154 q 623 146 623 150 q 549 115 569 127 q 538 115 540 115 l 533 111 l 517 113 l 490 99 l 476 99 q 433 87 460 96 m 443 500 q 457 507 451 501 l 465 505 q 627 575 543 521 q 710 679 684 608 q 706 682 706 678 l 706 686 l 713 698 l 713 705 l 706 700 l 703 699 l 703 703 q 735 779 735 745 q 728 798 735 788 q 735 807 728 806 q 706 873 706 861 q 637 960 706 895 q 454 1019 529 1017 l 450 1000 l 450 992 l 454 971 l 446 934 l 450 935 q 446 890 450 928 q 450 859 446 878 q 446 840 446 852 q 450 815 446 829 q 439 701 444 796 q 443 677 443 697 l 443 666 l 439 658 l 443 659 l 435 563 q 439 532 439 544 q 435 520 435 524 q 439 510 439 521 l 435 502 l 443 500 m 465 1484 q 492 1483 475 1487 l 492 1486 l 512 1489 l 515 1489 q 592 1518 532 1494 q 718 1641 690 1584 q 715 1643 715 1640 l 718 1649 q 720 1647 720 1650 q 755 1737 756 1718 l 749 1810 q 736 1867 747 1843 q 700 1931 720 1902 q 663 1963 699 1937 q 532 2021 577 2025 q 435 2020 465 2028 l 439 1963 q 440 1916 441 1948 q 444 1911 443 1917 q 441 1908 440 1910 q 444 1900 441 1905 q 446 1826 445 1893 l 445 1812 q 448 1811 448 1813 q 446 1799 445 1805 l 447 1780 q 452 1759 448 1769 q 450 1690 450 1744 l 454 1685 q 452 1674 452 1680 l 462 1535 l 466 1522 q 461 1508 463 1522 q 464 1506 464 1508 l 465 1484 z "},"c":{"ha":817,"x_min":20,"x_max":796,"o":"m 563 181 q 327 239 468 181 q 237 322 237 308 q 126 513 175 393 q 75 694 88 623 q 23 1076 45 832 q 26 1084 26 1081 q 20 1122 22 1116 q 23 1131 23 1126 l 23 1151 q 20 1253 23 1199 q 23 1282 23 1270 q 20 1301 20 1299 q 23 1327 23 1322 q 20 1368 23 1350 q 23 1456 23 1414 l 23 1480 l 20 1497 q 28 1564 26 1497 q 23 1643 28 1584 q 28 1671 28 1665 q 26 1714 26 1710 l 34 1754 q 31 1781 34 1760 l 56 1936 l 53 1936 l 53 1950 q 91 2182 68 2117 q 167 2357 125 2293 q 340 2478 281 2478 q 463 2500 410 2500 l 476 2497 q 479 2500 476 2500 l 492 2495 q 498 2500 498 2495 q 541 2490 526 2490 l 552 2492 q 598 2478 552 2488 q 726 2437 682 2464 q 772 2416 758 2420 q 769 2318 769 2342 q 764 2299 769 2316 l 764 2249 q 758 2230 764 2247 l 758 2165 q 742 2010 742 2038 q 736 1991 742 2008 l 736 1889 q 742 1862 736 1885 l 742 1805 l 739 1800 q 718 1817 724 1808 q 666 1843 703 1826 l 661 1843 l 655 1841 q 625 1858 655 1851 q 617 1855 620 1855 q 538 1876 617 1869 q 511 1872 534 1876 l 506 1874 q 384 1805 440 1874 q 351 1681 359 1767 l 354 1676 q 351 1666 351 1672 l 351 1640 l 349 1628 q 351 1626 351 1628 q 349 1600 349 1610 l 349 1566 q 346 1501 349 1546 q 343 1499 343 1501 q 346 1497 346 1499 l 346 1492 l 343 1480 q 346 1478 346 1480 l 343 1473 q 346 1466 343 1470 l 343 1461 q 346 1449 343 1453 q 343 1423 343 1433 l 343 1409 q 346 1339 343 1381 q 343 1330 343 1335 q 346 1322 346 1325 q 343 1316 346 1320 l 349 1280 l 346 1275 q 351 1246 349 1251 q 349 1236 349 1242 l 349 1220 q 354 1177 349 1201 l 351 1162 l 357 1098 q 354 1093 354 1098 q 368 998 359 1093 q 365 996 365 998 l 373 955 q 430 842 373 886 q 525 809 498 809 l 530 812 q 536 807 536 812 l 549 809 l 601 809 q 658 836 651 828 l 663 833 l 663 836 q 726 869 703 848 q 764 883 753 874 l 769 881 q 755 742 769 871 q 761 707 761 720 l 761 699 l 758 685 q 761 673 761 681 l 761 671 q 755 652 761 661 q 761 632 761 640 q 758 621 761 625 l 766 523 l 764 517 q 769 460 769 496 l 769 456 l 772 444 q 769 441 769 444 l 774 439 l 772 427 l 774 418 q 772 415 772 418 q 788 272 783 282 l 785 267 q 796 236 787 267 l 796 231 q 783 217 796 229 l 690 198 l 685 200 l 620 189 q 617 191 620 191 q 563 181 617 186 z "},"d":{"ha":938,"x_min":20,"x_max":873,"o":"m 20 128 q 58 562 45 258 q 75 1847 92 1444 q 50 2410 63 2198 q 37 2553 39 2525 q 446 2440 300 2498 q 815 2016 746 2278 q 867 1730 855 1921 q 859 1197 873 1514 q 837 725 861 1015 q 739 412 815 526 q 552 264 684 338 q 267 158 363 181 q 20 128 163 131 m 435 839 q 552 988 536 939 q 598 1278 601 1112 q 579 1754 615 1550 q 438 1940 513 1933 l 438 1937 q 446 1326 446 1737 q 433 839 441 1069 l 435 839 z "},"e":{"ha":1009,"x_min":28,"x_max":997,"o":"m 978 -26 q 774 -24 904 -29 q 359 5 518 -7 q 88 -4 136 1 q 77 39 81 -4 q 102 762 91 401 q 96 1575 109 955 q 28 2451 87 2045 l 34 2454 q 498 2462 293 2457 q 764 2485 758 2482 l 850 2499 q 894 2496 890 2505 q 890 2446 901 2483 q 878 2376 880 2410 q 856 2055 844 2234 q 867 1946 861 1972 q 873 1908 864 1946 q 888 1817 883 1869 q 840 1807 890 1803 q 704 1820 745 1817 q 492 1833 662 1824 q 479 1808 483 1832 q 476 1689 475 1744 q 481 1558 471 1598 q 582 1529 492 1525 q 655 1532 619 1529 q 731 1549 720 1541 q 739 1546 734 1549 l 736 1514 q 751 1292 731 1467 q 769 1177 767 1185 l 761 1173 q 658 1171 752 1173 q 538 1172 610 1169 q 435 1154 463 1164 q 416 1109 420 1154 q 425 721 414 1048 q 422 718 422 721 q 452 698 422 696 q 696 705 667 699 q 861 720 733 704 q 924 731 871 721 q 937 724 937 730 q 948 428 948 618 q 963 162 952 285 q 989 23 970 68 q 997 -18 997 11 q 989 -26 993 -26 l 978 -26 z "},"f":{"ha":1004,"x_min":20,"x_max":954,"o":"m 916 2513 q 929 2513 926 2513 q 954 2462 954 2513 q 937 1999 932 2207 q 943 1613 937 1683 q 921 1594 940 1613 l 918 1594 q 446 1600 669 1613 q 392 1589 404 1596 q 381 1305 376 1506 q 389 1295 381 1301 q 636 1293 509 1289 q 663 991 683 1284 q 642 951 667 948 q 568 956 587 954 q 441 956 498 970 q 408 942 408 956 q 419 317 411 675 q 433 132 425 220 q 448 61 441 86 q 451 12 456 35 q 365 31 404 20 q 199 39 307 39 q 26 29 186 36 l 20 39 l 20 106 q 50 1128 49 381 q 45 2431 56 1925 q 64 2504 22 2499 q 916 2513 480 2484 z "},"g":{"ha":1170,"x_min":20,"x_max":1106,"o":"m 519 2654 q 1057 2618 650 2681 l 1059 2612 q 1027 2257 1035 2437 q 1038 1997 1021 2133 l 1028 1989 q 677 1980 789 2002 q 500 1915 578 1959 q 419 1774 444 1865 q 385 1272 387 1573 q 392 765 380 811 l 389 765 q 414 635 403 668 q 465 510 432 568 q 570 409 497 439 q 709 388 635 388 q 791 477 767 388 q 804 564 802 528 l 807 716 q 795 728 806 722 q 614 732 677 735 q 506 722 512 722 q 492 928 490 728 q 489 1206 496 980 q 475 1415 475 1407 q 527 1440 475 1440 q 790 1426 731 1427 q 968 1422 892 1423 q 1067 1415 1058 1421 l 1069 1410 q 1070 689 1067 783 q 1090 246 1074 404 q 1103 28 1106 88 q 701 -5 962 18 q 377 -12 511 -28 q 191 60 250 7 q 123 133 146 86 q 65 271 77 201 q 31 568 51 320 q 20 1115 20 867 q 39 1587 20 1277 q 69 1983 56 1900 q 117 2258 94 2176 q 194 2450 142 2348 q 297 2582 222 2529 q 519 2654 389 2634 z "},"h":{"ha":1166,"x_min":23,"x_max":1146,"o":"m 517 2477 q 484 2127 484 2194 q 479 2100 479 2127 l 479 2072 q 476 2070 479 2070 l 479 2064 q 471 1959 471 2026 q 468 1956 471 1956 l 471 1950 l 471 1910 q 463 1858 471 1888 l 465 1839 l 465 1809 q 463 1799 465 1803 q 465 1796 463 1796 q 463 1766 463 1777 q 452 1443 463 1555 l 454 1419 q 452 1411 452 1413 q 454 1389 454 1400 l 454 1386 q 452 1383 454 1383 q 460 1324 456 1360 q 457 1299 457 1309 q 465 1177 465 1206 l 468 1177 q 473 1180 473 1177 q 503 1172 494 1177 l 509 1175 q 552 1164 552 1166 q 555 1166 555 1164 q 585 1161 578 1161 l 590 1164 q 609 1158 609 1161 q 612 1161 612 1158 q 742 1147 651 1153 q 750 1150 747 1150 l 750 1147 l 755 1150 l 758 1150 l 764 1147 q 772 1196 772 1157 q 766 1218 772 1204 q 780 1451 774 1308 l 783 1451 l 780 1468 l 783 1500 l 780 1506 q 785 1527 785 1522 q 783 1552 783 1542 l 785 1557 l 783 1563 q 785 1571 783 1565 l 780 1609 q 783 1617 783 1614 l 780 1622 q 783 1630 780 1625 l 780 1644 l 783 1660 q 777 1712 780 1698 l 783 1723 q 777 1801 783 1744 q 780 1812 780 1806 q 774 1847 774 1834 l 777 1847 l 772 1874 q 777 1918 775 1911 l 766 1959 q 777 1991 774 1969 q 772 2007 772 2000 q 774 2013 772 2013 l 772 2026 l 772 2102 q 774 2127 772 2112 q 772 2138 772 2131 q 774 2192 774 2174 l 777 2192 l 774 2197 l 774 2230 q 777 2243 774 2239 l 774 2260 l 774 2268 q 774 2361 774 2277 q 1013 2363 954 2355 q 1139 2392 1109 2378 q 1130 2281 1146 2358 l 1130 2271 l 1127 2271 l 1127 2268 q 1122 2227 1127 2253 l 1124 2222 l 1124 2214 l 1127 2214 l 1127 2208 q 1114 2173 1114 2208 q 1116 2157 1114 2171 q 1111 2148 1114 2148 q 1114 2146 1111 2146 q 1103 2102 1111 2126 q 1105 2078 1105 2087 l 1105 2053 q 1103 2051 1105 2051 l 1105 2045 q 1097 1991 1100 2022 q 1100 1988 1097 1988 q 1086 1893 1100 1986 l 1089 1888 l 1070 1687 l 1073 1682 q 1067 1628 1069 1630 q 1070 1617 1070 1623 q 1067 1609 1070 1609 l 1070 1590 l 1070 1535 q 1076 1500 1070 1512 l 1067 1443 l 1067 1438 q 1070 1394 1067 1422 l 1067 1389 q 1070 1378 1070 1384 q 1067 1356 1070 1367 q 1076 1202 1072 1335 l 1073 1202 q 1076 1199 1073 1199 l 1073 1180 l 1073 1177 q 1076 1169 1073 1169 l 1073 1156 l 1073 1112 q 1070 1109 1073 1109 l 1076 1088 q 1073 1085 1076 1085 q 1076 1077 1073 1082 l 1073 1034 q 1076 990 1076 994 l 1073 990 q 1076 987 1073 987 l 1070 941 l 1073 928 q 1067 844 1067 889 l 1067 779 q 1070 703 1067 744 q 1067 684 1067 692 q 1070 667 1070 669 q 1067 646 1067 652 l 1070 627 l 1065 624 q 1067 621 1065 621 l 1065 610 q 1078 548 1073 551 q 1086 448 1082 448 q 1084 445 1086 445 q 1092 391 1089 424 q 1089 388 1092 388 l 1092 369 q 1089 239 1092 317 l 1092 225 q 1089 222 1092 222 q 1108 81 1099 81 l 1108 71 q 1103 65 1108 65 l 1070 65 q 1046 60 1063 65 q 888 57 947 57 l 875 57 q 722 44 825 50 l 723 68 q 726 71 723 71 q 723 73 726 73 l 739 225 q 736 233 739 233 l 739 266 l 739 304 q 745 372 739 342 q 742 374 745 374 q 750 423 747 423 l 747 429 l 747 453 q 745 467 747 462 l 750 502 q 747 518 750 504 q 750 575 750 553 l 753 575 q 747 616 750 581 l 750 621 q 747 629 747 627 q 750 635 747 635 l 739 757 q 742 765 742 762 l 739 776 l 742 795 l 739 800 l 742 806 q 739 819 739 810 l 699 819 l 682 817 q 680 819 680 817 q 674 817 674 819 q 620 819 637 819 l 579 819 q 549 817 568 819 q 528 819 547 819 q 522 803 522 810 l 522 800 q 519 719 522 767 l 522 708 q 517 632 517 677 q 519 624 517 629 q 514 556 517 608 l 517 551 q 511 532 511 537 q 517 524 514 524 l 511 480 q 514 477 511 477 l 511 467 q 514 442 511 457 q 511 412 511 418 q 514 385 514 389 q 511 377 514 382 q 519 76 516 347 q 525 46 524 76 l 522 46 l 525 41 l 525 30 q 522 22 525 22 q 530 -83 529 -39 q 403 -22 473 -46 q 359 -14 403 -16 q 273 5 359 -2 q 243 14 269 5 l 142 14 q 23 -3 79 14 q 37 68 37 56 q 56 255 56 218 l 56 258 q 58 269 56 264 q 56 277 56 274 l 66 331 l 64 347 q 77 448 72 385 l 75 464 l 75 472 l 77 488 l 75 494 q 88 597 75 509 q 85 600 88 600 q 88 608 85 602 q 85 621 88 616 q 96 730 88 688 l 94 754 l 96 754 q 94 762 94 760 q 102 798 98 798 l 99 803 q 104 865 104 862 q 102 873 102 871 l 104 879 l 102 895 l 102 901 q 104 903 102 903 q 99 936 102 911 q 107 993 104 993 l 104 1004 q 113 1069 106 1069 q 110 1090 110 1088 q 121 1218 115 1126 l 118 1223 q 121 1232 121 1229 q 115 1253 115 1252 l 123 1394 q 118 1446 118 1421 l 121 1446 l 118 1451 q 115 1511 118 1457 q 121 1590 118 1584 q 118 1611 118 1600 q 121 1633 118 1623 l 115 1679 l 118 1685 l 115 1704 q 118 1723 115 1712 q 115 1758 115 1740 q 118 1782 115 1772 q 115 1809 115 1796 l 115 1817 l 118 1834 q 115 1845 115 1839 l 118 1845 l 115 1850 l 118 1864 q 115 1866 118 1866 l 118 1880 q 115 1929 118 1891 q 121 1937 118 1937 q 115 2029 115 1967 l 115 2048 q 118 2059 115 2054 q 115 2070 115 2064 l 115 2075 q 118 2083 115 2083 l 115 2097 l 115 2200 l 113 2227 l 115 2227 l 113 2233 l 113 2279 q 110 2319 113 2292 l 113 2319 q 110 2322 113 2322 l 113 2336 l 113 2338 q 105 2454 113 2362 q 318 2443 220 2445 q 435 2452 405 2443 q 517 2477 485 2466 z "},"i":{"ha":541,"x_min":22,"x_max":521,"o":"m 505 1769 l 521 1769 l 521 1766 q 487 1597 511 1746 q 429 1039 463 1449 q 420 534 421 881 q 439 247 426 409 q 491 16 479 74 q 275 16 412 22 q 76 0 205 15 q 68 8 67 -1 q 87 140 68 11 q 109 477 106 270 q 100 1044 109 678 q 22 1731 43 1601 q 38 1739 24 1739 q 301 1736 130 1731 q 505 1769 423 1745 m 296 2525 q 401 2504 377 2519 q 475 2393 453 2474 q 496 2235 491 2328 q 462 1984 492 2022 q 392 1910 431 1929 q 307 1889 347 1889 l 269 1889 q 81 1982 161 1889 q 52 2078 64 2003 q 49 2206 45 2143 q 81 2407 56 2347 q 168 2495 105 2466 q 296 2525 197 2515 z "},"j":{"ha":1066,"x_min":20,"x_max":1046,"o":"m 650 2637 q 674 2631 667 2631 l 707 2631 q 709 2629 709 2631 l 715 2631 q 761 2629 752 2629 l 766 2631 q 793 2623 793 2625 l 799 2626 l 810 2626 q 823 2620 823 2625 q 831 2623 829 2623 l 850 2620 l 856 2623 q 864 2620 861 2620 q 894 2623 882 2623 l 894 2620 q 897 2623 897 2620 l 910 2620 l 921 2620 q 932 2623 927 2620 q 948 2618 941 2618 l 991 2618 q 1013 2623 1010 2623 l 1040 2623 q 1046 2615 1046 2623 q 1027 2539 1040 2578 q 1016 2425 1016 2448 q 1019 2406 1019 2414 q 1008 2374 1012 2406 l 1010 2368 q 1008 2357 1010 2362 q 1010 2349 1010 2352 l 1008 2349 q 1010 2341 1010 2344 q 994 2241 1000 2256 q 997 2235 994 2235 q 989 2154 994 2171 l 991 2138 l 991 2113 q 989 2110 991 2110 q 991 2108 989 2108 l 989 2094 l 989 2024 q 983 1961 989 1976 q 989 1931 989 1950 l 989 1923 q 986 1912 989 1917 q 989 1910 986 1910 l 986 1883 l 986 1864 q 983 1861 986 1861 q 986 1858 983 1858 l 983 1831 l 983 1801 q 970 1652 983 1733 q 972 1617 970 1640 l 970 1603 q 972 1600 970 1600 l 970 1587 l 970 1581 l 972 1563 l 970 1563 q 972 1554 972 1557 l 970 1549 q 972 1538 972 1544 q 970 1535 972 1535 l 972 1530 l 972 1516 q 970 1514 972 1514 q 972 1506 972 1508 q 970 1487 972 1490 q 972 1443 972 1459 l 972 1402 q 970 1400 972 1400 l 972 1394 l 972 1362 q 975 1351 972 1356 q 964 1259 968 1351 q 970 1242 967 1242 l 967 1223 q 983 1093 967 1186 l 981 1093 q 983 1085 983 1088 q 991 958 983 1071 l 991 914 l 994 901 l 991 901 l 994 895 q 991 879 991 881 l 994 865 l 991 860 l 994 844 q 991 836 994 841 l 994 819 l 994 808 q 991 806 994 806 q 994 798 994 800 l 991 792 q 994 789 991 789 q 989 757 989 768 q 994 705 994 719 l 991 705 l 997 689 q 994 681 994 684 q 997 665 997 667 l 994 659 q 1000 629 1000 648 q 997 627 1000 627 l 1000 621 q 997 610 1000 615 q 1002 594 1002 602 l 1002 545 q 1005 534 1002 539 l 1002 529 l 1005 524 q 1002 521 1005 521 l 1005 507 l 1005 494 q 1000 472 1000 475 l 1000 442 q 962 195 986 235 q 888 46 937 128 q 829 5 850 13 q 674 -14 720 -14 q 560 -11 664 -14 l 555 -8 q 552 -11 552 -8 l 533 -8 l 506 -8 q 468 -5 491 -8 q 454 -8 463 -8 l 454 -5 q 446 -8 449 -8 q 430 -3 437 -3 q 427 -5 427 -3 l 414 -3 l 397 -3 q 387 -5 391 -3 q 324 8 332 8 q 316 5 319 5 q 275 22 316 9 l 270 19 q 172 84 193 47 q 99 165 146 103 q 47 328 47 273 l 34 388 l 37 388 l 34 393 l 34 407 q 28 448 34 422 l 31 448 q 23 480 27 480 l 26 491 q 23 594 23 566 q 26 602 23 597 q 23 613 23 607 l 23 637 q 20 686 23 661 q 26 711 23 711 l 23 716 q 28 732 23 721 l 26 738 l 28 743 q 26 746 28 746 l 28 760 l 28 792 q 31 795 28 795 l 28 800 l 28 836 q 31 838 28 838 l 28 844 q 31 846 28 846 q 28 854 28 852 q 42 971 35 903 l 39 977 q 56 1053 50 1017 q 53 1061 53 1058 q 61 1074 58 1074 q 58 1077 61 1077 q 66 1128 61 1110 l 66 1142 q 64 1153 66 1148 q 77 1229 64 1157 q 75 1232 77 1232 q 80 1305 80 1258 l 80 1324 q 113 1378 93 1378 q 121 1386 113 1380 q 140 1381 140 1384 l 145 1383 q 148 1381 148 1383 q 178 1386 174 1386 l 178 1383 q 213 1389 184 1385 l 213 1386 q 221 1389 218 1389 q 311 1400 311 1393 l 332 1400 q 446 1421 446 1416 l 468 1421 q 563 1435 524 1427 q 566 1424 563 1429 q 533 1289 533 1314 q 519 1242 530 1287 q 522 1234 522 1237 q 503 1169 517 1234 l 500 1169 q 498 1172 500 1172 l 498 1166 l 503 1166 l 503 1164 q 495 1158 503 1158 l 495 1156 l 498 1150 l 492 1147 l 495 1137 q 484 1107 495 1107 q 487 1085 484 1100 q 465 993 476 993 l 468 987 l 468 960 l 454 854 q 457 852 454 852 l 454 838 l 454 776 q 457 765 454 770 q 454 754 454 760 l 454 751 l 457 738 l 454 738 q 514 597 479 597 q 568 578 533 578 q 620 632 620 606 q 639 705 628 675 l 636 711 l 636 727 q 650 779 643 734 l 647 784 q 655 806 654 806 l 652 811 q 669 879 660 820 l 669 903 q 671 914 669 909 q 669 917 671 917 l 671 930 l 671 949 q 674 952 671 952 l 671 958 l 671 966 l 674 971 q 669 977 669 971 l 669 1023 q 671 1025 669 1025 l 669 1031 l 669 1069 q 674 1090 669 1072 l 666 1128 q 669 1137 669 1134 l 666 1142 q 669 1150 666 1145 q 666 1180 666 1168 l 666 1199 q 663 1210 666 1205 q 666 1221 666 1215 l 663 1234 q 666 1242 666 1240 q 663 1251 663 1248 l 666 1256 l 663 1267 l 666 1278 q 663 1299 663 1293 l 666 1299 q 663 1302 666 1302 q 666 1318 663 1304 q 655 1345 663 1345 q 661 1375 661 1356 l 661 1386 q 663 1389 661 1389 l 661 1394 l 661 1416 q 658 1440 661 1426 q 663 1457 663 1449 l 663 1500 q 658 1522 663 1503 l 658 1560 q 661 1603 658 1575 q 658 1614 658 1608 l 661 1614 q 658 1622 658 1619 l 661 1628 q 658 1630 661 1630 l 661 1644 q 652 1752 658 1711 l 655 1752 l 652 1758 l 652 1815 l 650 1828 l 652 1828 l 650 1834 l 650 1850 q 652 1853 650 1853 q 642 1940 647 1874 q 644 1948 644 1945 q 639 1967 639 1959 l 642 1967 q 639 1969 642 1969 l 642 1980 q 636 2013 636 1999 l 636 2035 l 631 2043 q 633 2045 631 2045 l 631 2051 l 631 2075 q 633 2083 631 2083 l 631 2097 l 631 2129 l 633 2146 q 628 2186 631 2148 l 631 2186 q 625 2222 625 2199 l 625 2246 l 623 2260 l 625 2260 l 623 2265 l 623 2268 q 625 2271 623 2271 l 623 2276 l 623 2289 q 625 2292 623 2292 q 623 2295 625 2295 q 625 2303 623 2298 q 623 2327 623 2318 l 625 2327 l 623 2333 l 623 2341 q 625 2376 623 2359 l 623 2393 l 625 2398 l 620 2414 q 623 2422 620 2417 q 620 2466 620 2450 q 623 2515 620 2477 l 620 2520 l 623 2525 q 620 2528 623 2528 l 623 2542 q 620 2569 623 2545 q 623 2572 620 2572 l 620 2591 l 620 2612 q 647 2637 620 2637 l 650 2637 z "},"k":{"ha":1166,"x_min":20,"x_max":1143,"o":"m 574 2525 l 585 2525 q 511 1959 511 1972 q 490 1609 495 1748 l 492 1455 q 500 1432 496 1439 q 552 1435 514 1431 q 655 1501 631 1463 q 718 1726 720 1573 q 663 2257 699 2045 l 663 2274 q 696 2298 672 2298 q 842 2323 774 2313 q 967 2367 892 2334 q 1111 2426 994 2382 l 1116 2426 q 1124 2418 1120 2426 q 1114 2047 1122 2279 q 1081 1563 1114 1691 q 861 1244 1015 1352 q 777 1192 777 1194 l 777 1186 q 891 1062 814 1154 q 924 1015 912 1027 q 962 948 962 956 q 1019 827 977 934 q 1062 719 1048 770 q 1124 469 1085 675 q 1143 309 1135 435 l 1143 300 q 1141 135 1141 146 q 1108 -15 1138 -15 l 1081 -15 q 987 -20 1010 -15 q 962 -26 964 -26 q 715 -92 811 -49 l 712 -92 q 699 -64 706 -92 l 699 -54 q 720 110 699 -43 q 728 383 734 189 q 666 699 701 623 q 555 945 609 840 q 454 1059 484 1040 l 452 1059 q 444 1037 446 1059 q 479 146 465 460 q 452 113 475 122 q 316 79 383 93 q 31 16 52 19 q 26 35 26 30 q 39 123 37 68 q 74 559 45 229 q 85 1540 97 960 q 56 2003 75 1691 q 20 2484 45 2116 q 26 2490 21 2490 q 218 2459 119 2459 q 305 2467 259 2458 q 416 2487 353 2481 q 574 2525 439 2490 z "},"l":{"ha":1226,"x_min":23,"x_max":1121,"o":"m 462 2596 l 472 2596 q 477 2588 477 2596 q 429 1969 439 2315 q 439 461 434 1251 q 834 469 543 437 q 1064 510 938 483 q 1118 515 1092 521 l 1121 515 q 1108 410 1121 491 q 1090 24 1081 204 q 1096 -5 1096 -2 l 1096 -8 l 1093 -14 q 882 0 975 -6 q 172 5 511 8 q 23 -8 123 3 q 83 1053 70 382 q 91 1874 86 1135 q 83 2314 94 2018 q 61 2586 76 2486 q 326 2580 151 2577 q 462 2596 442 2596 z "},"m":{"ha":1492,"x_min":20,"x_max":1472,"o":"m 860 2624 q 1013 2605 950 2612 q 1282 2602 1196 2584 q 1340 2620 1323 2616 l 1344 2616 q 1339 2131 1341 2598 q 1330 1605 1336 1918 q 1347 1149 1331 1503 q 1396 388 1366 783 q 1435 111 1417 196 q 1458 -3 1455 29 q 1472 -72 1472 -67 q 1469 -75 1469 -72 q 1200 20 1401 -33 q 1078 36 1145 28 q 1103 319 1078 50 q 1097 772 1111 434 q 1065 1187 1073 1125 q 1045 1401 1054 1301 q 1032 1501 1036 1501 q 975 1335 989 1381 q 924 1191 945 1264 q 775 595 856 985 q 715 825 755 688 q 614 1182 642 1105 q 525 1484 598 1244 q 506 1371 518 1484 q 488 1196 500 1295 q 484 867 475 1059 q 529 389 509 541 q 559 172 549 238 q 579 33 576 90 q 243 66 423 56 q 20 56 135 64 q 23 122 20 71 q 35 360 25 172 q 94 1102 73 684 q 110 1672 102 1306 q 115 2065 110 1693 q 104 2475 104 2469 l 104 2481 q 126 2497 104 2497 q 275 2481 208 2484 q 552 2486 503 2481 q 610 2492 606 2494 q 647 2184 618 2480 q 710 1775 686 1854 q 734 1691 734 1697 l 739 1691 q 765 1844 739 1699 q 823 2233 790 1988 q 860 2624 831 2300 z "},"n":{"ha":1034,"x_min":28,"x_max":1013,"o":"m 42 123 l 28 144 q 64 303 42 193 q 72 343 66 303 l 69 349 l 69 376 l 72 389 l 66 393 q 75 416 75 407 l 72 430 l 75 435 q 72 444 75 438 q 75 465 75 458 q 72 473 75 468 q 83 584 79 484 l 80 589 l 83 595 q 80 614 80 606 q 83 616 80 616 q 75 652 80 652 l 77 657 l 75 663 q 85 694 80 673 q 83 698 85 697 l 85 711 l 83 725 l 88 727 l 85 732 l 85 773 q 88 776 85 776 q 85 784 85 781 q 91 798 85 798 q 88 800 91 800 q 99 884 92 884 l 96 889 q 102 921 98 922 q 99 924 102 924 q 115 1145 115 1034 l 118 1145 l 115 1151 q 118 1154 115 1154 l 115 1167 l 115 1221 q 118 1224 115 1224 l 115 1230 l 115 1257 q 113 1270 115 1265 q 118 1335 115 1284 q 113 1387 115 1387 l 115 1400 l 115 1482 q 113 1506 115 1491 q 115 1525 115 1510 l 113 1536 l 115 1536 l 113 1541 l 113 1574 q 118 1628 113 1601 l 104 1816 l 104 1827 l 102 1841 l 104 1841 q 77 2089 77 2066 q 80 2098 80 2095 q 77 2119 77 2108 l 80 2119 l 77 2125 l 77 2193 q 61 2348 72 2212 q 64 2367 64 2359 q 56 2433 58 2368 q 58 2435 58 2433 l 118 2418 l 123 2420 q 132 2416 129 2416 l 137 2418 l 186 2404 l 191 2406 q 199 2403 197 2403 q 208 2405 205 2405 l 208 2402 q 210 2405 210 2402 l 224 2401 l 227 2401 q 237 2403 233 2400 l 243 2399 q 251 2401 248 2402 q 254 2399 254 2401 q 370 2403 343 2400 l 376 2400 q 400 2403 393 2404 l 403 2403 l 419 2378 q 416 2375 419 2375 q 444 2213 438 2274 q 441 2211 444 2210 q 452 2158 444 2177 l 449 2153 q 536 1758 489 1899 q 557 1691 536 1749 l 555 1687 l 568 1666 q 579 1752 576 1666 q 576 1766 576 1757 l 579 1766 q 574 1793 576 1793 l 576 1807 l 576 1812 q 574 1858 576 1826 l 576 1858 q 574 1861 576 1861 l 576 1874 q 574 1883 576 1877 q 576 1893 576 1887 q 574 1899 576 1899 l 576 1918 l 576 1953 q 579 1988 576 1971 q 574 2018 576 2013 q 576 2040 576 2033 q 574 2102 576 2052 l 576 2102 q 571 2111 574 2110 q 576 2184 576 2138 q 574 2211 574 2207 l 576 2211 l 574 2216 l 574 2246 q 576 2249 574 2249 l 574 2254 q 579 2281 574 2281 l 576 2308 l 576 2344 q 574 2387 576 2359 q 576 2395 576 2393 l 571 2439 l 574 2439 q 571 2448 571 2445 q 566 2504 571 2475 l 568 2504 l 557 2554 q 560 2565 560 2559 q 549 2587 560 2572 l 549 2606 q 555 2612 549 2612 l 582 2609 q 685 2572 609 2589 q 693 2574 688 2571 l 726 2566 q 728 2568 728 2566 q 772 2557 766 2561 q 810 2556 795 2557 l 821 2555 q 831 2557 827 2555 q 840 2554 837 2554 l 850 2556 l 864 2552 q 880 2556 873 2557 l 943 2551 q 1000 2561 984 2561 l 1008 2560 q 1013 2554 1013 2559 q 1002 2538 1010 2554 q 1005 2536 1002 2536 q 986 2423 994 2445 l 989 2418 l 989 2412 q 986 2410 989 2410 l 989 2404 q 981 2383 989 2396 q 983 2380 981 2380 q 975 2332 981 2332 q 978 2329 975 2329 q 975 2313 978 2327 q 981 2280 978 2285 q 975 2264 975 2271 l 975 2261 q 978 2250 975 2250 l 975 2231 l 975 2218 q 972 2161 975 2186 q 975 2120 975 2144 q 972 2115 975 2115 l 975 2101 l 975 2077 q 978 2047 975 2065 q 970 2026 974 2026 l 972 2007 l 972 1912 q 970 1901 972 1906 q 972 1890 972 1896 l 972 1887 q 970 1885 972 1885 l 972 1879 l 972 1876 q 970 1866 972 1870 l 972 1860 l 970 1841 l 972 1828 l 970 1828 l 972 1822 l 972 1790 q 970 1787 972 1787 l 972 1782 l 972 1754 q 970 1684 972 1729 l 972 1678 q 970 1668 970 1674 q 972 1665 970 1665 l 970 1651 l 970 1640 q 972 1630 970 1634 q 970 1627 972 1627 q 975 1564 972 1615 l 972 1559 l 978 1542 l 975 1537 q 978 1534 975 1534 q 975 1526 978 1531 q 983 1441 979 1467 q 978 1404 980 1438 l 981 1390 q 978 1388 981 1388 l 981 1374 q 978 1336 981 1359 q 983 1286 983 1308 l 983 1273 q 978 1244 983 1254 q 983 1238 983 1243 l 983 1221 q 981 1219 983 1219 q 983 1216 981 1217 l 981 1198 l 981 1095 q 978 1057 981 1080 q 981 1046 981 1052 q 978 1038 981 1043 q 981 1013 981 1023 l 981 1000 q 978 970 981 988 q 981 967 978 967 l 978 954 l 978 913 l 981 897 q 978 894 981 894 l 986 825 l 983 787 q 986 720 986 753 l 983 720 l 986 714 l 986 701 q 983 692 986 692 q 989 646 987 655 q 986 644 989 644 l 991 594 q 989 559 989 577 l 989 535 l 991 507 l 989 508 q 994 475 991 503 l 991 475 l 994 469 l 994 315 q 986 245 994 244 l 840 251 q 831 254 834 254 q 823 252 826 252 l 823 255 l 818 252 l 804 254 q 647 241 745 254 q 625 297 628 266 q 628 300 625 300 q 598 585 617 479 q 555 813 585 667 q 498 1042 547 880 q 463 1186 490 1052 l 457 1187 q 449 1133 452 1133 q 452 1130 449 1131 q 438 928 441 999 q 435 917 435 928 q 438 887 435 911 q 435 849 435 864 q 438 841 435 846 l 435 825 l 435 789 q 438 765 435 780 q 433 709 433 751 l 433 668 l 435 648 l 433 649 q 435 640 435 643 l 433 608 l 435 602 q 433 595 433 597 q 438 586 435 586 l 435 572 l 435 532 q 438 505 435 519 q 435 486 435 494 q 441 461 438 466 q 438 458 441 458 l 441 426 l 441 407 l 444 393 l 441 393 q 449 338 446 363 l 446 325 l 446 306 l 457 219 l 460 205 q 457 203 460 202 l 463 140 l 457 138 l 384 143 q 229 142 295 150 q 159 144 208 140 q 113 140 153 140 l 42 123 z "},"o":{"ha":1026,"x_min":41,"x_max":973,"o":"m 599 2443 q 798 2375 699 2443 q 889 2238 881 2271 q 931 2001 920 2117 q 960 1577 945 1821 q 966 1303 957 1553 q 957 699 973 982 l 945 586 l 949 586 q 914 343 935 443 q 821 117 892 212 q 517 -5 720 3 q 262 60 359 2 q 144 195 203 93 q 61 572 81 347 q 41 1251 47 806 q 50 1739 41 1536 q 87 2137 62 2052 q 201 2303 140 2251 q 349 2405 257 2357 q 599 2443 425 2439 m 627 1981 q 570 2121 591 2121 l 567 2121 q 541 2077 563 2121 q 487 1851 500 1961 q 458 1515 458 1592 l 456 1138 q 450 1028 453 1138 q 465 531 453 644 q 555 332 507 329 q 603 377 583 332 q 658 1148 648 486 q 655 1303 654 1177 q 658 1488 656 1428 q 627 1981 644 1862 z "},"p":{"ha":1031,"x_min":28,"x_max":1010,"o":"m 368 2527 l 387 2524 q 389 2521 389 2524 l 395 2523 l 397 2523 q 796 2408 583 2499 q 921 2314 894 2361 q 1002 2136 985 2224 l 1000 2137 q 1008 2094 1004 2125 q 1005 2091 1008 2091 q 1010 2049 1010 2055 l 1008 2049 l 1010 2043 l 1010 1976 q 1008 1974 1010 1973 l 1010 1968 q 970 1733 997 1807 q 945 1659 970 1716 q 888 1507 945 1638 q 826 1392 882 1466 q 785 1333 826 1383 q 680 1227 701 1244 q 625 1192 667 1214 q 411 1069 536 1109 q 365 1055 411 1065 q 368 999 368 1017 l 368 954 q 365 943 368 948 q 373 915 373 920 q 370 892 373 907 q 373 837 373 854 q 370 801 370 802 q 376 772 376 777 l 373 745 q 376 736 376 739 l 373 736 q 376 728 376 730 q 384 648 376 705 l 384 604 q 387 592 384 597 l 384 587 q 389 562 389 566 q 387 559 389 559 q 392 511 390 517 q 389 509 392 508 l 395 460 q 392 447 392 456 q 397 429 392 441 q 395 427 397 427 q 460 170 418 323 q 473 121 467 153 q 430 116 456 113 q 365 127 370 126 l 351 120 l 308 125 q 56 119 179 131 l 42 121 q 28 150 35 121 q 42 307 42 216 l 42 315 q 47 346 42 335 l 45 360 l 47 371 q 45 374 47 374 q 56 459 52 459 l 53 465 q 58 506 54 507 q 56 509 58 509 l 58 528 l 58 543 l 56 559 q 58 570 58 564 q 56 578 56 576 q 64 614 60 590 l 61 620 l 64 631 q 61 640 61 637 q 64 642 61 642 l 61 656 l 66 689 l 64 695 l 66 700 q 64 709 64 706 l 66 722 l 64 728 l 66 745 l 64 759 l 69 758 l 66 778 l 69 778 l 66 784 q 72 847 72 824 q 69 895 69 886 l 72 895 l 69 901 l 69 956 q 66 985 69 969 q 72 1076 72 1023 q 69 1227 72 1094 l 66 1232 q 72 1279 68 1234 q 69 1321 69 1314 q 75 1382 72 1382 q 72 1391 72 1388 q 77 1415 77 1408 q 66 1533 77 1455 l 75 1566 l 72 1572 l 75 1577 q 72 1586 72 1583 q 75 1588 72 1589 q 69 1636 69 1614 l 72 1636 l 69 1642 l 72 1653 q 66 1681 69 1676 l 72 1703 q 69 1734 69 1722 l 69 1770 q 66 1779 69 1779 l 69 1790 q 66 1952 66 1922 l 64 1966 l 66 1966 l 64 1971 l 64 1978 q 66 1980 64 1980 l 64 1986 q 61 2072 64 2012 q 64 2108 64 2107 l 58 2178 l 61 2184 q 58 2195 58 2189 q 61 2203 58 2198 q 56 2279 56 2231 l 56 2296 q 58 2298 56 2299 l 56 2304 l 56 2324 q 58 2326 56 2327 l 56 2332 l 56 2410 q 47 2448 56 2433 l 50 2458 q 47 2467 50 2461 q 83 2521 47 2511 l 235 2532 q 368 2527 338 2525 m 393 1955 q 396 1946 396 1950 l 393 1947 q 399 1913 396 1942 q 391 1805 391 1846 q 388 1549 391 1734 l 393 1548 q 543 1622 494 1574 q 605 1716 590 1668 q 635 1841 618 1752 q 632 1844 635 1844 l 635 1858 l 635 1860 q 553 1988 635 1946 q 515 2004 545 1996 l 510 2002 q 458 2020 494 2011 l 453 2018 l 448 2021 q 437 2020 443 2019 q 434 2023 434 2020 q 399 2016 399 2023 q 393 1955 397 2006 z "},"q":{"ha":906,"x_min":20,"x_max":886,"o":"m 522 2185 l 525 2185 q 631 2166 631 2180 l 636 2169 q 701 2144 659 2158 q 755 2082 755 2094 q 796 2006 769 2072 q 821 1935 821 1946 l 818 1935 q 837 1832 837 1847 l 834 1832 q 842 1794 842 1801 q 840 1792 842 1792 q 850 1699 844 1782 l 848 1699 l 850 1694 q 848 1691 850 1691 q 856 1545 850 1672 q 853 1534 853 1540 l 856 1529 l 853 1523 q 864 1385 858 1487 q 859 1352 862 1377 q 861 1325 861 1338 l 861 1306 q 859 1303 861 1303 l 861 1298 l 861 1265 q 864 1255 861 1259 q 861 1246 861 1249 q 867 1206 864 1208 q 864 1198 867 1203 q 867 1160 867 1175 q 864 1157 867 1157 l 867 1152 l 864 1138 l 867 1122 l 864 1122 l 867 1116 l 867 1076 q 864 1073 867 1073 l 867 1067 q 848 780 848 831 l 850 774 q 845 739 845 759 q 848 731 848 734 q 842 726 842 730 l 842 723 q 837 658 842 719 l 837 647 l 823 576 l 826 571 q 821 563 823 563 l 823 557 q 821 555 823 555 l 823 549 q 799 454 818 544 q 772 357 793 449 q 761 332 763 332 l 764 327 q 761 324 764 324 q 840 142 804 247 q 878 61 871 68 q 886 53 882 61 l 780 -1 q 723 -31 779 -7 q 688 -53 720 -37 q 582 -148 634 -98 q 574 -161 576 -148 l 566 -161 q 536 -28 566 -146 l 519 45 q 517 58 519 54 l 519 64 q 509 137 515 82 q 490 202 504 146 l 479 202 q 224 142 318 142 q 113 191 172 142 q 85 232 103 202 q 77 240 77 232 l 77 248 q 58 300 58 270 q 56 302 56 300 l 56 308 q 58 311 56 311 q 45 395 51 346 q 47 397 45 397 l 45 411 l 45 433 q 42 457 45 442 l 45 463 q 31 538 37 522 l 34 549 q 31 552 34 552 q 34 560 31 555 q 26 655 34 569 l 26 661 q 28 690 26 672 q 26 693 28 693 l 31 747 l 23 829 q 26 850 26 844 q 20 902 26 864 l 23 902 l 20 907 q 34 1168 23 1065 l 31 1173 q 34 1203 34 1197 l 31 1214 q 34 1222 34 1219 q 31 1225 34 1225 l 34 1238 l 34 1246 q 47 1347 34 1295 l 45 1352 l 45 1366 q 47 1377 45 1372 l 45 1382 q 72 1583 72 1535 q 121 1805 96 1712 q 164 1919 132 1822 q 243 2041 195 1984 q 338 2120 287 2095 q 484 2182 353 2140 l 490 2180 l 495 2182 l 500 2180 q 522 2185 511 2185 m 400 1466 l 403 1461 q 397 1450 401 1450 q 400 1442 400 1444 q 378 1274 392 1398 q 381 1263 378 1267 q 368 1165 370 1217 l 370 1160 l 368 1154 q 370 1152 368 1152 l 368 1138 l 368 1124 q 359 1032 368 1107 l 362 1027 q 359 1016 359 1022 q 362 1005 359 1010 q 359 981 359 990 l 362 967 l 357 956 l 359 951 l 357 937 q 362 924 362 928 l 357 921 q 365 894 359 901 l 359 886 l 362 861 l 359 829 l 362 818 l 359 812 q 365 783 365 798 l 362 783 l 365 777 l 365 755 q 368 745 365 749 q 365 742 368 742 l 368 728 l 368 720 q 414 506 368 623 q 441 495 431 495 q 538 723 481 551 q 536 726 538 726 q 547 783 536 728 q 544 785 547 785 q 552 842 548 842 q 547 869 547 854 q 549 897 547 873 l 547 902 l 555 916 l 552 929 l 555 929 q 552 932 555 932 l 555 959 l 555 967 l 549 967 l 549 981 q 557 1008 553 984 l 555 1013 l 555 1043 l 549 1062 q 555 1078 551 1078 q 549 1105 552 1105 l 552 1119 l 552 1160 q 547 1181 552 1171 q 555 1230 552 1187 q 541 1341 549 1306 l 544 1341 q 536 1371 541 1358 q 538 1374 536 1374 l 533 1426 l 536 1426 q 530 1455 530 1440 l 533 1455 q 530 1458 533 1458 l 533 1472 q 517 1577 527 1472 q 500 1675 500 1670 q 473 1773 481 1773 q 435 1637 467 1773 q 400 1466 408 1516 m 541 926 l 541 918 q 536 924 536 918 l 541 926 z "},"r":{"ha":1234,"x_min":20,"x_max":1211,"o":"m 484 2479 l 484 2477 l 490 2479 l 495 2477 q 503 2479 498 2477 q 585 2471 571 2476 l 590 2474 q 666 2471 645 2471 l 671 2469 l 677 2471 q 831 2445 831 2456 l 837 2448 l 848 2448 q 921 2433 859 2441 q 1016 2403 969 2414 q 1081 2375 1017 2400 q 1171 2307 1145 2345 q 1211 2108 1211 2239 q 1200 1915 1205 1961 q 1143 1722 1168 1752 q 1108 1633 1119 1633 l 1111 1628 q 1054 1508 1081 1570 q 1040 1476 1047 1505 q 926 1343 974 1389 q 812 1267 892 1313 q 769 1246 781 1257 q 853 1145 780 1223 q 905 1072 853 1137 q 956 977 920 1040 q 989 886 975 947 q 1000 865 996 865 l 997 860 l 1024 734 q 1021 724 1021 730 q 1043 620 1035 686 l 1040 620 q 1051 581 1043 614 l 1048 581 l 1054 559 q 1051 552 1051 554 l 1065 502 q 1062 500 1065 500 l 1065 486 l 1062 468 q 1067 463 1067 467 l 1067 445 q 1078 374 1067 436 q 1076 372 1078 372 q 1089 281 1084 319 q 1086 279 1089 279 l 1089 266 l 1089 180 q 1086 96 1089 138 q 1089 52 1089 85 q 1065 36 1089 39 q 1016 44 1048 41 q 1013 41 1016 41 q 1008 49 1010 49 q 991 44 999 44 l 948 44 q 937 46 942 44 q 926 44 932 44 l 913 46 q 902 44 908 44 q 897 49 902 49 q 880 44 888 44 l 834 44 l 826 49 q 818 44 819 44 q 796 49 806 44 q 758 41 782 41 q 718 44 724 44 l 715 39 q 680 44 680 41 l 674 41 l 663 41 q 628 67 628 51 l 658 269 q 661 284 658 284 q 658 292 658 290 q 682 424 682 369 l 682 427 q 685 429 682 429 l 682 434 q 685 437 682 437 q 682 439 685 439 q 685 445 682 445 l 682 471 l 682 476 q 685 486 682 482 q 682 489 685 489 l 688 526 q 680 625 682 604 q 682 627 680 627 q 677 680 677 665 l 680 703 q 639 918 653 918 q 568 1090 615 1017 q 492 1184 550 1128 l 484 1194 q 460 1152 460 1194 q 452 1080 460 1113 q 454 1032 454 1055 l 454 1029 q 452 1019 454 1024 q 454 1011 454 1014 q 452 967 454 1003 l 454 954 q 452 946 452 949 q 454 925 454 932 q 452 923 454 923 q 457 878 455 887 q 454 870 454 873 l 457 865 q 454 863 457 863 q 457 854 454 860 q 460 722 460 769 l 460 703 q 457 701 460 701 l 460 695 l 460 643 q 465 581 460 604 q 463 572 463 575 q 471 500 471 519 l 468 500 l 471 494 q 484 117 484 140 l 487 112 q 484 109 487 109 q 490 39 490 64 q 479 26 484 26 l 441 26 q 430 23 435 26 q 422 26 425 26 l 403 23 l 397 26 q 389 23 392 23 l 389 26 q 335 18 385 23 l 335 20 q 267 5 272 9 l 262 7 l 216 -3 q 213 -1 213 -3 q 99 -32 127 -22 q 88 -29 94 -29 q 50 -47 87 -37 q 45 -53 50 -53 l 28 -53 q 20 -1 20 -53 q 26 12 26 8 q 23 20 26 15 q 37 233 31 47 l 34 238 q 39 288 37 241 l 37 293 q 39 296 37 296 l 37 309 l 39 325 q 37 335 37 329 q 39 342 39 340 l 37 348 q 53 505 44 393 l 50 510 q 53 518 53 515 q 50 520 53 520 l 53 534 l 53 570 q 56 572 53 572 q 53 575 56 575 q 56 609 53 587 q 50 701 53 684 q 58 743 56 743 l 56 747 l 56 782 q 58 821 56 798 q 53 850 55 844 q 58 888 56 888 l 56 902 q 58 975 56 922 q 56 996 56 994 q 58 1038 58 1011 l 61 1038 q 58 1040 61 1040 l 61 1053 l 61 1072 q 58 1082 61 1078 q 64 1100 64 1095 q 61 1103 64 1103 q 64 1111 61 1105 q 61 1132 64 1117 q 64 1202 64 1168 l 66 1202 l 64 1207 l 64 1228 l 61 1244 q 64 1252 64 1249 q 61 1255 64 1255 q 64 1262 61 1257 q 58 1372 58 1310 l 58 1400 q 61 1403 58 1403 l 58 1409 q 61 1416 58 1416 l 58 1430 q 61 1442 58 1438 l 56 1487 q 58 1521 58 1503 l 58 1537 q 61 1539 58 1539 l 58 1544 l 58 1592 q 56 1602 58 1597 l 58 1607 q 56 1657 56 1636 l 56 1670 q 58 1672 56 1672 l 56 1678 l 56 1683 q 58 1685 56 1685 l 56 1691 l 58 1696 q 47 1712 58 1699 l 50 1712 l 56 1709 q 61 1735 58 1735 l 58 1740 l 58 1750 q 66 1813 58 1799 l 64 1819 q 69 1860 67 1857 q 64 1915 64 1874 l 64 1921 q 66 1946 64 1933 q 53 2200 59 2023 q 56 2207 56 2205 q 53 2216 53 2213 q 56 2218 53 2218 q 45 2338 45 2322 q 47 2362 47 2353 q 42 2393 47 2368 q 72 2424 42 2424 q 170 2448 72 2435 q 175 2453 170 2453 q 186 2448 186 2452 q 395 2469 254 2460 q 419 2474 395 2471 l 419 2471 q 484 2479 426 2476 m 467 2070 l 468 2062 q 471 2056 468 2056 q 463 1957 465 1968 l 466 1952 q 456 1852 462 1926 l 459 1842 q 457 1840 459 1840 l 460 1830 q 459 1773 458 1795 l 461 1769 q 459 1761 459 1765 q 462 1749 459 1751 q 460 1726 460 1735 l 461 1683 q 460 1655 462 1672 q 463 1649 463 1651 l 460 1649 q 463 1647 460 1647 l 458 1625 q 460 1618 460 1621 l 458 1614 q 463 1607 460 1607 l 461 1596 l 461 1594 l 464 1582 q 462 1575 462 1577 q 465 1574 462 1574 l 463 1563 l 463 1561 q 479 1550 463 1550 q 760 1760 674 1611 q 826 1893 827 1864 l 823 1904 q 830 1916 830 1906 l 830 1920 l 827 1932 q 829 1934 827 1934 l 827 1948 l 826 1969 l 823 1979 l 826 1979 q 823 1985 823 1983 q 777 2102 821 2049 q 696 2138 737 2134 q 610 2159 688 2148 q 597 2163 609 2161 q 590 2161 593 2161 q 494 2166 556 2168 l 494 2169 q 475 2131 475 2168 q 467 2070 477 2097 z "},"s":{"ha":1050,"x_min":66,"x_max":979,"o":"m 515 -28 q 361 -20 433 -27 q 140 -15 168 -10 q 104 -20 115 -20 l 90 4 q 85 289 81 261 q 82 555 83 528 q 73 645 81 589 q 66 714 66 680 l 68 743 q 73 748 68 748 q 95 743 78 748 q 229 729 175 737 q 317 724 260 724 q 498 816 441 724 q 508 973 518 874 q 446 1187 507 1061 q 346 1236 418 1236 q 241 1260 293 1238 q 168 1331 198 1275 q 123 1596 134 1420 q 89 2207 98 1858 q 106 2406 87 2331 q 139 2483 119 2460 q 271 2570 172 2543 q 473 2581 355 2586 q 667 2545 568 2578 q 854 2434 789 2512 q 921 2249 913 2334 q 925 2155 924 2216 q 927 2043 925 2139 q 941 1921 927 2003 q 948 1873 945 1898 q 966 1785 952 1848 q 977 1623 979 1722 q 875 1647 968 1614 q 528 1691 663 1695 q 476 1697 481 1697 l 475 1721 q 487 1813 481 1764 q 496 2022 501 1930 q 465 2174 493 2118 q 376 2212 444 2217 q 326 2063 340 2212 q 330 1811 320 1946 q 355 1564 336 1624 q 449 1518 378 1520 q 509 1523 475 1514 l 509 1520 q 606 1539 559 1541 q 724 1510 696 1528 q 762 1480 751 1495 q 800 1400 783 1458 q 858 1176 817 1365 q 882 1013 875 1095 q 900 498 903 686 q 885 294 903 409 q 782 47 866 157 q 682 -18 727 -2 q 515 -28 643 -28 z "},"t":{"ha":1128,"x_min":24,"x_max":1102,"o":"m 29 2719 q 196 2700 68 2711 q 248 2695 221 2699 l 261 2698 l 267 2695 l 277 2700 l 302 2695 l 302 2698 q 332 2692 317 2698 l 332 2695 q 378 2690 347 2695 q 386 2692 380 2690 q 484 2687 392 2690 q 494 2684 493 2684 q 500 2687 494 2687 q 519 2684 508 2687 q 652 2692 537 2690 q 736 2690 710 2690 l 747 2692 q 790 2687 753 2690 q 801 2690 795 2690 q 814 2687 810 2690 l 882 2692 q 893 2690 887 2690 l 901 2695 l 934 2695 q 1102 2711 960 2695 l 1091 2595 l 1093 2463 q 1098 2414 1093 2441 q 1095 2412 1095 2414 l 1098 2412 q 1095 2403 1098 2409 l 1098 2398 q 1095 2390 1098 2395 q 1095 2216 1100 2264 q 878 2262 1015 2240 q 821 2268 838 2268 l 816 2265 q 767 2271 807 2265 q 759 2268 767 2268 l 745 2268 q 737 2151 737 2201 q 734 2143 737 2148 l 737 2143 q 736 1904 736 1955 l 736 1902 l 739 1888 q 736 1885 736 1888 q 733 1793 736 1827 q 736 1706 736 1751 q 733 1685 736 1699 q 736 1679 736 1685 l 733 1666 q 736 1657 733 1663 q 733 1633 733 1643 l 733 1628 l 736 1614 q 733 1611 733 1614 q 736 1609 736 1611 l 736 1598 l 733 1592 q 736 1590 736 1592 l 736 1587 l 733 1581 l 736 1581 q 747 1468 736 1515 q 741 1340 744 1340 q 744 1329 744 1335 l 744 1272 l 747 1259 q 744 1256 744 1259 l 747 1251 l 744 1245 q 749 1213 747 1245 q 747 1210 747 1213 q 755 1134 753 1210 l 752 1118 q 755 1112 755 1118 q 752 1090 755 1105 q 755 1082 755 1085 l 752 1077 q 758 1009 755 1077 l 755 1004 q 758 1001 758 1004 l 758 979 l 755 974 l 758 974 q 768 768 760 865 q 766 751 766 753 q 771 743 768 751 l 768 738 q 790 551 779 699 q 787 548 787 551 q 795 483 795 510 l 793 469 q 801 380 799 469 q 814 206 814 233 q 812 203 812 206 q 814 201 814 203 l 814 187 l 812 174 q 820 155 820 174 q 836 10 833 39 q 652 27 760 24 q 410 5 492 22 q 440 363 410 102 q 462 600 456 498 q 459 605 459 600 q 465 624 464 605 l 465 654 q 467 719 465 681 q 465 730 465 724 q 473 779 470 755 q 470 781 470 779 l 473 795 l 470 800 l 473 806 q 481 947 473 847 q 478 1020 481 966 q 484 1069 484 1047 l 484 1090 l 481 1109 q 484 1112 484 1109 l 481 1112 l 484 1131 q 481 1223 481 1200 l 478 1237 q 481 1245 481 1237 l 481 1267 l 478 1280 q 484 1316 481 1280 q 481 1318 481 1316 l 484 1324 q 481 1378 481 1360 q 484 1592 481 1486 q 475 1671 477 1592 q 478 1761 475 1688 q 473 1804 473 1799 l 475 1820 l 473 1831 q 475 1866 475 1854 q 467 1929 467 1925 q 475 1945 467 1935 l 475 1978 l 473 1991 q 475 1994 475 1991 q 469 2157 473 1994 q 466 2246 471 2186 q 344 2249 435 2249 q 271 2243 333 2249 l 254 2246 l 230 2235 q 219 2238 224 2235 q 189 2230 198 2235 l 170 2233 q 113 2224 149 2227 q 111 2227 113 2227 l 105 2219 q 100 2224 100 2219 q 24 2205 56 2218 q 32 2333 29 2315 q 37 2444 31 2376 l 35 2450 l 37 2455 q 33 2576 37 2462 l 31 2589 q 36 2603 33 2589 q 31 2641 34 2610 q 33 2662 33 2652 l 29 2719 z "},"u":{"ha":911,"x_min":10,"x_max":899,"o":"m 410 2281 q 509 2267 441 2273 q 842 2261 793 2254 q 852 2239 849 2261 q 844 1593 844 1813 q 852 1333 847 1382 q 882 913 863 1194 q 886 686 885 868 q 876 325 899 484 q 717 47 827 102 q 494 3 611 3 l 361 0 q 166 57 243 -3 q 87 161 138 73 q 31 551 25 278 q 31 1766 43 1088 q 10 2149 30 1884 q 18 2184 12 2184 q 295 2164 147 2166 l 300 2161 q 296 653 304 1281 q 304 492 296 556 q 375 386 328 386 l 380 386 q 410 467 403 392 q 437 913 427 668 q 410 1791 438 1070 q 383 2258 402 2021 q 410 2281 383 2281 z "},"v":{"ha":1001,"x_min":20,"x_max":983,"o":"m 978 2620 q 983 2615 983 2620 l 983 2604 q 980 2601 983 2601 q 951 2496 958 2539 q 897 2160 916 2312 q 854 1750 879 1889 l 857 1736 l 854 1731 l 857 1725 q 851 1641 852 1675 l 846 1508 l 843 1494 q 846 1491 846 1494 l 843 1486 l 846 1486 q 837 1407 838 1437 q 834 1398 837 1404 q 837 1396 837 1398 l 836 1377 l 833 1371 l 836 1371 l 833 1357 q 825 1226 827 1262 l 822 1213 q 825 1210 825 1213 q 821 1166 821 1182 l 819 1109 q 821 1088 818 1098 q 817 1065 817 1077 l 814 987 l 810 960 q 813 957 813 960 q 804 853 810 931 q 808 834 804 848 q 806 823 806 829 l 805 804 q 807 793 805 798 q 804 783 804 789 l 804 764 q 805 726 803 749 l 802 720 q 804 696 804 705 q 799 597 800 625 l 801 584 q 794 551 798 584 q 796 538 797 547 l 796 530 l 793 524 q 796 522 796 524 l 795 513 q 792 488 795 504 q 797 394 796 476 q 794 385 794 388 q 796 383 797 386 q 793 374 796 380 l 795 364 l 793 358 q 795 348 795 354 l 791 217 l 792 184 q 789 179 789 184 q 790 119 791 138 l 792 106 l 789 106 q 781 108 781 105 q 606 117 668 107 l 565 114 q 511 117 538 120 l 498 117 q 476 120 479 120 l 395 113 l 387 107 l 359 104 q 313 109 333 111 l 294 107 l 275 103 q 273 106 275 106 q 264 102 270 105 l 248 104 l 229 102 l 197 96 q 186 174 187 114 q 189 185 189 179 q 182 203 189 191 q 185 234 182 210 l 174 374 q 177 382 174 376 l 174 382 q 178 404 175 393 q 171 444 176 435 l 174 450 l 172 466 l 173 501 q 168 574 168 570 q 171 585 170 579 l 168 599 q 172 602 171 599 q 167 620 172 604 q 170 629 167 623 q 167 631 167 628 l 168 661 l 160 772 q 163 780 160 774 l 160 780 q 164 810 161 786 q 153 866 159 840 l 158 869 l 156 888 l 157 926 q 149 928 155 926 q 158 937 154 937 l 150 947 l 153 1013 l 151 1031 q 153 1034 153 1031 q 151 1044 151 1038 l 151 1053 q 154 1064 151 1059 q 152 1075 152 1069 l 153 1113 l 151 1126 q 154 1129 154 1126 l 139 1239 l 142 1244 q 136 1304 140 1286 l 137 1342 l 135 1355 q 138 1358 138 1356 q 134 1393 135 1364 q 136 1396 136 1394 q 134 1407 134 1400 l 135 1434 l 133 1447 q 136 1451 136 1448 q 132 1485 131 1478 q 134 1493 132 1488 q 127 1531 127 1525 l 129 1567 l 127 1579 q 130 1583 130 1580 q 125 1620 130 1587 l 128 1632 q 125 1672 124 1657 l 127 1686 q 121 1745 125 1721 q 125 1753 121 1748 q 101 1927 113 1877 q 74 2145 86 2110 l 77 2150 q 68 2226 68 2220 q 51 2333 56 2334 q 54 2341 51 2336 q 20 2471 35 2437 l 23 2477 q 115 2463 39 2479 l 134 2464 q 207 2462 140 2457 l 210 2463 q 315 2458 262 2454 l 331 2460 q 391 2456 357 2454 l 401 2458 q 418 2464 409 2458 q 426 2462 420 2464 q 437 2466 431 2465 l 445 2466 q 455 2443 450 2467 l 448 2421 q 455 2383 452 2421 l 452 2378 q 450 2223 451 2270 q 451 2180 449 2207 q 448 2171 448 2174 l 450 2085 q 448 2081 448 2084 l 450 2011 q 448 2008 448 2011 q 450 1998 450 2004 l 450 1992 l 447 1986 l 452 1984 l 446 1976 q 454 1949 452 1969 q 450 1946 451 1949 q 455 1927 454 1946 q 450 1911 455 1922 q 456 1862 454 1872 q 452 1851 453 1858 l 452 1822 l 454 1803 q 451 1800 451 1803 q 454 1724 454 1753 l 453 1710 q 458 1695 453 1703 l 455 1689 q 463 1597 464 1626 q 473 1593 463 1594 q 470 1584 473 1590 l 473 1579 l 473 1573 l 467 1576 l 465 1575 l 464 1562 q 474 1544 463 1548 l 469 1535 l 468 1525 q 471 1516 468 1516 q 487 1363 477 1395 l 484 1358 q 492 1293 489 1342 l 489 1274 l 489 1272 q 507 1156 498 1272 l 506 1151 q 511 1145 506 1145 q 509 1143 511 1143 q 513 1133 510 1132 q 562 800 537 884 q 559 797 559 800 q 564 779 564 787 q 572 787 572 783 q 570 798 572 793 q 594 968 576 825 l 592 973 l 599 1025 q 597 1028 596 1025 q 608 1129 606 1053 l 610 1171 l 614 1203 q 611 1206 611 1203 q 618 1255 617 1219 l 618 1258 l 621 1263 l 618 1263 l 625 1288 q 623 1296 625 1291 q 633 1373 627 1337 q 631 1381 631 1378 q 633 1384 633 1381 l 631 1383 l 634 1403 q 632 1424 635 1415 l 640 1485 q 639 1531 637 1506 q 642 1556 639 1540 l 640 1560 l 657 1735 q 655 1768 654 1750 l 656 1801 l 660 1815 q 657 1820 657 1814 q 654 1904 660 1889 q 658 1915 658 1909 l 659 1953 l 657 1971 q 660 1975 660 1972 q 657 1977 657 1974 l 657 1980 l 661 1986 l 658 1986 q 661 1999 658 1994 l 659 2016 l 660 2045 l 657 2059 q 661 2062 660 2059 q 658 2070 661 2064 q 661 2081 661 2075 l 663 2138 l 655 2150 q 659 2159 655 2153 q 656 2161 656 2159 l 656 2180 q 652 2202 656 2192 q 656 2232 655 2220 l 656 2248 q 654 2273 656 2258 q 657 2287 657 2277 q 652 2359 650 2321 l 654 2403 l 651 2416 l 656 2419 q 643 2554 646 2485 q 654 2568 650 2568 l 656 2568 l 662 2566 l 662 2569 l 773 2570 q 776 2573 773 2573 q 787 2572 781 2571 l 795 2572 q 836 2581 810 2573 l 849 2579 q 876 2587 856 2582 l 882 2584 q 975 2620 909 2590 l 978 2620 z "},"w":{"ha":1393,"x_min":20,"x_max":1314,"o":"m 26 2554 l 56 2554 q 88 2543 58 2554 l 164 2543 q 183 2540 180 2543 q 208 2543 198 2543 l 335 2543 q 384 2532 384 2543 q 392 2456 392 2495 l 392 2375 q 389 2372 392 2372 l 392 2367 l 392 2340 q 389 2337 392 2337 l 392 2332 q 387 2315 392 2327 l 389 2310 q 387 2285 387 2295 q 392 2280 392 2285 q 389 2277 392 2277 l 392 2272 l 392 2182 q 389 2180 392 2180 l 392 2174 q 389 2171 392 2171 l 392 2158 l 392 2098 q 389 2096 392 2096 l 392 2090 q 387 2052 392 2080 q 389 1971 389 2004 l 389 1944 q 387 1941 389 1941 q 389 1938 387 1938 q 384 1898 386 1902 q 387 1887 387 1893 l 387 1881 q 384 1870 387 1875 l 387 1865 q 384 1862 387 1862 l 387 1849 l 387 1824 q 384 1822 387 1822 q 387 1819 384 1819 q 381 1748 381 1769 q 384 1713 384 1725 l 381 1713 q 384 1710 381 1710 q 381 1702 384 1708 q 387 1667 384 1671 q 384 1664 387 1664 l 387 1648 q 381 1580 381 1591 l 381 1577 q 384 1569 381 1569 l 381 1556 l 381 1491 q 376 1407 381 1456 l 378 1393 l 376 1388 q 381 1350 379 1357 q 378 1347 381 1347 l 381 1328 l 381 1284 q 378 1260 381 1275 q 381 1252 381 1255 q 378 1236 378 1238 q 381 1217 381 1225 q 378 1214 378 1217 l 387 1208 q 416 1282 401 1236 q 490 1501 454 1371 l 492 1501 l 490 1507 q 553 1677 518 1560 q 604 1854 587 1794 l 606 1854 q 734 1529 650 1800 q 793 1382 756 1442 q 848 1222 823 1320 l 853 1222 q 859 1282 859 1253 l 861 1282 q 859 1284 861 1284 l 861 1295 l 859 1306 q 864 1336 864 1325 q 861 1339 864 1339 l 864 1352 l 864 1371 q 867 1374 864 1374 l 864 1379 q 869 1439 869 1428 q 867 1537 869 1449 q 864 1545 864 1542 l 867 1545 q 864 1548 867 1548 l 867 1561 l 867 1607 l 864 1621 l 867 1621 l 864 1626 l 864 1659 l 867 1675 l 864 1681 q 872 1789 872 1692 q 875 1797 872 1792 q 872 1808 872 1802 l 872 1827 q 873 1864 872 1849 l 870 1869 q 873 1877 870 1872 q 870 1921 870 1905 l 870 1942 q 867 1992 870 1963 q 862 2009 862 2001 l 859 2040 q 860 2097 859 2050 l 857 2113 l 857 2148 q 854 2159 857 2155 q 857 2162 854 2162 l 854 2181 q 863 2252 854 2213 q 854 2279 854 2273 q 865 2287 854 2285 l 903 2273 q 906 2276 906 2273 q 977 2265 965 2265 l 979 2265 q 990 2268 985 2265 l 996 2265 q 998 2268 998 2265 q 1015 2265 1013 2265 q 1055 2268 1021 2265 l 1074 2265 q 1082 2268 1080 2268 l 1082 2265 l 1088 2268 l 1112 2268 q 1123 2271 1118 2268 q 1131 2268 1128 2268 q 1164 2273 1159 2271 q 1166 2271 1166 2273 l 1227 2287 l 1227 2284 q 1314 2308 1260 2289 q 1252 1438 1310 1887 q 1187 913 1198 1102 q 1175 647 1175 766 q 1237 -19 1181 180 q 1229 -24 1230 -24 l 1223 -24 l 991 23 q 886 45 979 23 q 780 58 825 58 l 753 58 q 745 66 749 58 q 747 121 745 81 l 745 148 l 747 148 l 745 153 l 745 159 q 747 161 745 161 q 731 387 731 294 q 726 403 726 395 l 728 416 q 726 425 726 422 q 728 427 726 427 l 726 441 l 726 446 q 728 449 726 449 q 720 487 720 481 l 720 490 q 723 492 720 492 q 707 557 707 547 l 709 557 l 707 563 l 707 568 q 709 571 707 571 q 666 780 690 643 q 628 905 639 856 q 604 804 615 886 q 606 796 606 799 q 568 628 599 796 q 538 481 544 516 l 538 468 q 536 395 538 445 l 533 395 q 536 392 533 392 l 519 267 l 522 251 q 517 191 517 211 l 517 175 q 514 172 517 172 q 517 170 514 170 l 511 142 q 514 140 511 140 q 509 47 509 103 q 365 20 406 37 q 142 -28 142 -14 l 132 -28 q 123 -20 127 -28 l 123 12 q 118 129 123 21 l 118 142 l 115 159 q 118 175 118 163 l 115 180 q 123 297 121 180 l 126 302 q 123 305 126 305 l 126 319 l 126 346 l 132 354 q 126 359 126 354 q 129 362 126 362 l 126 376 l 129 395 l 126 406 q 129 414 126 408 q 121 481 126 458 l 123 481 q 121 484 123 484 q 123 492 121 487 q 121 612 121 564 l 121 625 q 123 674 121 648 l 118 726 q 121 772 121 747 l 118 804 l 121 818 q 118 848 118 833 l 121 848 q 115 869 115 865 q 118 886 115 871 q 115 907 118 892 q 118 956 118 940 l 115 972 q 118 1000 118 987 l 118 1038 q 121 1048 118 1044 l 118 1054 q 121 1062 118 1057 q 107 1282 111 1089 q 96 1358 105 1282 l 99 1358 q 94 1388 97 1363 l 96 1398 l 88 1485 l 91 1485 q 77 1656 83 1518 q 80 1735 80 1713 q 77 1811 77 1796 l 75 1816 q 77 1819 75 1819 q 69 1876 72 1869 l 72 1881 q 66 1898 66 1892 l 69 1898 q 64 1946 64 1911 l 66 1952 q 61 1987 63 1976 l 64 1992 q 58 2025 58 2020 l 61 2025 l 58 2030 l 58 2077 q 56 2106 58 2088 l 58 2112 q 45 2253 50 2212 l 47 2253 q 34 2342 40 2287 l 37 2342 l 34 2348 q 31 2416 31 2393 l 34 2426 l 26 2478 l 28 2483 l 20 2524 q 23 2540 20 2526 q 20 2551 20 2545 l 26 2554 z "},"x":{"ha":1161,"x_min":20,"x_max":1141,"o":"m 475 2247 q 525 1843 488 2045 q 598 1541 533 1790 l 604 1541 l 628 1653 l 625 1664 q 644 1726 640 1725 l 642 1731 l 658 1815 q 655 1818 658 1818 l 661 1851 l 658 1856 q 666 1900 663 1869 q 663 1902 666 1902 l 666 1916 l 666 1921 q 663 1929 666 1929 l 666 1943 l 666 2027 q 671 2043 666 2035 q 726 2022 683 2043 q 907 1965 795 1989 q 1070 1919 1031 1919 q 1078 1921 1073 1919 q 1130 1910 1099 1914 q 1141 1886 1141 1894 q 1119 1851 1135 1885 q 1059 1769 1109 1851 q 964 1596 1004 1687 q 924 1506 933 1546 q 913 1487 921 1506 q 916 1479 916 1482 q 872 1387 907 1472 q 842 1303 842 1325 l 837 1305 l 834 1305 l 834 1303 l 840 1303 q 821 1259 823 1261 l 823 1254 l 807 1219 q 810 1211 810 1213 q 785 1154 810 1208 q 774 1116 779 1116 l 777 1110 q 764 1069 777 1105 l 766 1064 q 761 1056 764 1056 l 764 1050 q 758 1034 758 1042 q 793 918 764 1033 q 807 880 801 885 l 804 874 q 818 842 809 850 l 815 836 q 837 749 831 793 q 875 597 848 717 q 989 226 921 460 q 997 204 993 226 q 994 201 994 204 q 1013 153 1013 179 q 1046 77 1018 151 q 1084 -24 1051 73 q 1019 -2 1053 -13 q 894 20 984 9 l 891 20 q 880 17 886 17 q 856 20 871 17 l 850 17 l 837 20 q 701 7 819 20 q 699 250 705 151 q 701 261 701 255 l 699 267 q 701 277 701 271 q 699 286 701 280 q 701 288 699 288 q 671 554 696 368 q 663 587 671 578 l 663 597 l 666 611 q 652 657 663 611 l 644 663 l 644 652 l 647 638 q 623 562 635 638 q 625 551 625 557 l 614 530 l 617 524 q 598 435 609 473 l 601 429 q 590 397 594 397 l 593 391 q 587 359 591 359 q 590 356 587 356 l 587 342 l 587 323 q 579 104 574 163 q 471 82 535 87 q 351 55 412 77 l 305 39 q 181 -7 244 6 q 237 155 237 132 q 267 237 243 157 l 305 378 q 365 622 325 418 q 411 785 411 782 q 435 858 419 800 q 433 866 435 861 q 465 1013 433 873 l 476 1075 q 457 1126 457 1120 l 460 1132 q 435 1181 449 1162 q 381 1330 406 1270 q 302 1539 381 1338 q 262 1642 302 1549 q 227 1731 237 1710 q 205 1788 227 1740 q 170 1872 205 1805 l 153 1927 q 88 2065 125 1966 q 20 2214 64 2115 q 140 2225 84 2221 q 341 2240 279 2239 q 475 2247 404 2241 m 444 958 l 446 953 l 441 950 l 438 950 l 438 953 q 444 958 439 958 z "},"y":{"ha":1175,"x_min":20,"x_max":1154,"o":"m 1152 2589 q 1154 2580 1154 2583 q 1133 2513 1154 2570 q 1054 2325 1057 2355 q 1029 2260 1036 2291 q 940 2019 1006 2219 l 943 2013 q 875 1834 932 1997 q 815 1645 837 1695 q 693 1187 701 1260 q 709 795 702 903 q 707 785 709 789 q 709 774 709 780 l 707 760 q 709 749 709 755 l 707 749 l 709 744 l 707 725 q 709 703 709 706 l 707 692 q 709 665 709 678 l 709 657 q 707 654 709 654 q 709 646 709 649 l 707 641 q 709 633 709 635 q 707 630 709 630 l 712 597 q 707 524 707 547 q 709 516 709 519 q 707 505 707 511 q 709 494 709 500 l 707 494 l 709 489 q 707 478 709 483 l 712 440 q 709 437 712 437 l 712 424 q 715 353 715 360 l 712 348 l 718 337 q 715 329 718 334 q 718 299 718 311 q 715 275 718 290 q 718 264 718 270 l 715 264 q 718 256 718 258 q 720 223 718 237 q 718 185 718 200 q 726 134 723 140 q 723 131 726 131 q 728 52 728 94 q 552 39 663 48 q 422 12 457 25 l 411 12 q 240 -26 398 12 q 208 -37 240 -33 q 227 128 213 35 l 224 134 l 245 269 l 243 280 q 264 481 243 298 q 262 484 264 484 q 273 551 264 513 l 270 570 l 273 570 q 270 578 270 576 q 273 595 270 581 l 270 600 q 281 649 270 617 q 278 657 281 652 l 281 663 q 278 673 278 667 q 283 690 283 682 q 281 725 281 724 l 283 736 q 281 739 283 739 q 300 833 289 817 l 297 839 q 300 890 300 876 q 313 985 306 890 l 311 991 q 321 1059 313 1033 q 319 1069 319 1063 l 321 1075 q 264 1333 305 1129 q 240 1417 256 1348 l 180 1601 l 151 1721 q 91 2008 151 1731 q 69 2084 89 2010 l 72 2089 q 61 2114 68 2105 q 64 2122 64 2119 q 45 2182 53 2136 l 47 2187 l 20 2279 q 28 2282 26 2282 q 83 2271 83 2279 l 88 2274 l 142 2274 q 178 2279 165 2274 l 197 2277 q 324 2290 283 2282 q 324 2212 319 2264 q 378 1867 339 2048 q 376 1864 378 1864 l 395 1777 q 392 1767 392 1773 q 400 1729 397 1756 l 397 1729 q 411 1664 408 1695 l 416 1664 l 419 1674 l 416 1680 q 444 1810 427 1716 q 457 1848 450 1817 l 457 1889 q 473 1940 465 1931 q 471 1943 473 1943 q 509 2122 481 2026 q 506 2130 506 2127 q 530 2239 517 2169 q 528 2247 528 2244 q 555 2423 538 2289 l 555 2491 q 560 2496 555 2496 q 696 2499 602 2496 q 701 2504 696 2504 l 720 2504 q 875 2529 838 2521 q 994 2551 935 2537 l 994 2548 q 1067 2567 1034 2561 q 1143 2589 1067 2573 l 1152 2589 z "},"z":{"ha":1318,"x_min":20,"x_max":1298,"o":"m 1263 2598 l 1293 2598 q 1298 2593 1298 2597 l 1298 2576 l 1287 2509 l 1287 2498 q 1274 2378 1287 2438 q 1252 2218 1274 2342 l 1252 2175 l 1233 1990 l 1233 1898 q 1198 1809 1233 1834 q 1127 1708 1185 1781 q 959 1456 1018 1539 q 935 1421 959 1451 q 842 1293 901 1360 q 780 1204 841 1284 q 639 998 780 1191 q 601 941 623 968 q 541 829 541 835 l 541 827 q 604 821 570 821 l 633 821 q 636 819 636 821 l 642 821 l 644 821 q 682 824 659 821 l 688 821 q 701 824 692 824 l 720 821 q 728 824 726 824 q 739 819 739 822 q 799 824 775 824 l 804 821 q 815 824 809 824 l 831 824 q 834 821 834 824 l 840 824 l 850 824 q 853 821 853 824 q 869 827 862 827 l 872 827 q 875 824 875 827 q 891 829 886 829 q 899 827 894 829 q 1035 843 903 827 q 1057 840 1050 840 q 1138 857 1067 840 l 1152 857 l 1162 846 l 1160 819 q 1162 813 1160 813 q 1157 748 1160 800 q 1160 740 1160 743 q 1154 724 1154 731 l 1154 707 q 1160 702 1155 702 l 1154 631 l 1157 626 q 1154 618 1154 621 q 1157 612 1154 612 l 1154 593 l 1154 583 q 1157 569 1154 574 q 1154 550 1154 558 q 1160 496 1154 536 l 1157 490 q 1160 479 1160 486 l 1157 474 l 1160 469 q 1157 460 1160 466 q 1165 387 1160 411 q 1162 379 1162 382 q 1165 341 1165 345 q 1160 295 1160 304 l 1162 290 q 1160 281 1160 284 q 1165 238 1165 243 l 1162 238 q 1168 208 1164 233 l 1165 208 l 1168 203 l 1168 184 q 1173 151 1168 170 l 1171 138 q 1173 113 1173 123 l 1171 102 q 1173 92 1173 98 l 1171 92 q 1181 45 1181 49 l 1179 45 q 1184 29 1184 37 l 1184 24 q 1160 10 1184 18 l 1141 13 l 1124 13 q 1114 10 1118 13 q 1078 16 1101 16 l 1046 16 l 1029 13 q 891 29 903 26 q 888 26 888 29 q 829 35 852 30 q 818 32 824 32 l 804 32 q 802 35 802 32 q 799 32 799 35 q 769 37 774 35 q 766 35 766 37 l 753 37 l 718 37 q 685 43 685 37 l 680 40 l 617 40 q 606 43 611 40 q 604 40 604 43 l 585 43 l 514 43 q 392 29 442 43 q 389 32 389 29 q 340 21 340 26 l 324 24 q 140 -14 210 5 q 134 -17 140 -17 q 50 -33 85 -17 l 45 -33 q 39 -28 39 -33 q 53 13 45 -20 l 50 18 q 58 62 53 53 q 56 64 58 64 l 58 78 l 58 89 q 80 311 64 194 q 75 325 77 325 q 88 398 75 328 q 85 401 88 401 q 96 477 92 461 l 94 482 q 99 580 94 526 q 96 591 96 585 l 99 596 l 96 602 q 107 702 101 616 l 107 715 q 104 764 107 739 q 107 786 107 775 q 104 794 104 791 q 145 824 116 806 q 221 892 201 863 q 300 987 286 950 q 384 1114 332 1051 q 406 1152 384 1120 q 460 1255 420 1204 q 525 1364 481 1303 q 560 1426 539 1399 q 598 1489 560 1434 q 666 1651 666 1626 q 709 1733 709 1714 q 753 1844 726 1780 q 758 1849 758 1844 l 758 1855 l 726 1852 l 671 1852 q 669 1855 669 1852 q 661 1852 663 1852 q 606 1849 643 1852 l 590 1852 q 582 1849 585 1849 l 582 1852 l 576 1849 l 547 1849 q 536 1847 541 1849 q 533 1849 533 1847 l 519 1847 q 495 1849 510 1847 l 490 1847 q 481 1849 487 1847 q 433 1844 473 1849 q 411 1847 422 1847 l 400 1844 q 397 1847 397 1844 q 142 1806 353 1847 l 88 1806 q 23 1782 77 1798 l 20 1787 l 20 1798 q 26 1814 20 1805 l 23 1825 q 42 2012 28 1855 q 39 2015 42 2015 l 42 2034 l 42 2083 q 47 2096 43 2096 l 45 2110 l 45 2134 q 42 2169 45 2152 q 45 2197 45 2179 q 42 2213 45 2199 l 45 2213 q 42 2216 45 2216 q 45 2226 42 2222 q 42 2270 42 2254 l 42 2292 q 39 2302 42 2298 q 42 2305 39 2305 q 31 2427 39 2369 q 34 2438 31 2433 q 20 2533 31 2479 q 23 2536 20 2536 l 20 2549 l 20 2560 q 26 2566 21 2566 l 37 2566 q 56 2568 52 2566 l 240 2549 q 248 2547 248 2549 l 254 2549 l 262 2549 q 286 2544 269 2549 l 292 2547 l 308 2544 q 321 2547 317 2544 q 346 2541 340 2544 l 351 2544 q 368 2538 368 2542 q 376 2541 373 2541 q 414 2536 390 2541 q 427 2538 418 2538 l 427 2536 l 433 2538 q 441 2536 435 2538 q 471 2538 459 2538 l 490 2538 q 492 2536 492 2538 l 498 2538 l 514 2536 l 519 2538 q 522 2536 522 2538 l 549 2538 l 604 2538 q 614 2536 610 2538 q 680 2544 618 2538 l 680 2541 l 699 2547 q 701 2544 701 2547 l 715 2547 l 720 2547 q 731 2544 726 2547 l 788 2555 q 791 2552 791 2555 q 799 2555 796 2555 q 932 2560 852 2555 q 962 2555 962 2558 q 978 2560 970 2560 l 1008 2560 q 1067 2571 1055 2571 l 1067 2568 q 1095 2576 1081 2576 l 1095 2574 l 1103 2574 q 1122 2582 1113 2582 l 1130 2582 l 1138 2576 q 1252 2590 1173 2587 q 1263 2598 1252 2593 z "},"{":{"ha":1070,"x_min":-8,"x_max":1037,"o":"m 795 3022 q 851 3008 851 3015 q 854 3012 854 3008 l 922 2995 l 927 2998 l 1023 2971 q 1037 2951 1037 2954 l 1037 2944 q 1025 2901 1027 2901 l 1028 2894 q 1012 2691 1023 2879 q 1015 2688 1012 2688 l 1012 2674 l 1015 2657 l 1008 2654 q 1012 2650 1008 2650 l 1008 2633 l 1008 2627 q 1003 2546 1008 2576 l 1006 2539 q 999 2157 995 2370 q 755 2134 845 2157 q 656 2086 727 2134 q 597 1927 597 2025 l 589 1870 q 592 1866 589 1866 q 578 1731 583 1731 q 581 1725 578 1725 l 575 1634 q 552 1531 572 1579 q 366 1400 492 1423 q 536 1313 491 1385 q 569 1167 570 1253 q 572 1063 572 1091 l 572 1015 q 575 978 572 1001 q 572 975 575 975 l 575 958 l 575 921 q 578 907 575 913 l 575 901 q 609 725 583 779 q 735 618 667 627 q 983 624 850 604 q 981 434 981 437 q 998 214 981 395 l 998 123 q 1003 96 1003 99 l 1003 25 q 1008 -1 1008 1 q 1012 -140 1008 -35 q 964 -170 997 -146 q 831 -228 918 -208 q 783 -248 783 -243 l 772 -245 q 727 -258 757 -245 q 722 -252 727 -252 l 707 -258 q 705 -255 705 -258 l 690 -258 q 564 -228 636 -258 q 383 -56 503 -228 q 304 191 340 34 q 265 519 281 283 l 265 539 l 268 539 l 243 758 q 245 795 245 789 l 237 853 q 239 914 237 859 q 234 954 239 922 q 239 1066 239 1038 q 197 1281 244 1190 q 47 1375 162 1335 q 22 1415 -8 1401 q 195 1510 106 1438 q 234 1651 237 1560 l 234 1677 q 231 1691 234 1685 q 237 1745 233 1699 q 234 1755 237 1748 q 288 2296 256 2102 q 341 2553 302 2397 q 456 2823 392 2722 q 549 2941 456 2842 q 795 3022 696 3022 z "},"|":{"ha":688,"x_min":30,"x_max":456,"o":"m 456 3047 q 454 2429 454 2471 q 456 1740 456 1845 q 456 318 453 816 q 456 130 456 198 q 304 96 316 96 q 252 81 285 96 q 30 -139 126 -12 q 52 752 35 194 q 82 2190 65 1003 q 77 2968 83 2512 q 456 3047 277 2949 z "},"}":{"ha":1070,"x_min":12,"x_max":1057,"o":"m 254 -258 q 197 -245 197 -252 q 195 -248 195 -245 l 127 -231 l 121 -235 l 26 -208 q 12 -187 12 -191 l 12 -180 q 23 -137 21 -137 l 20 -130 q 37 73 25 -115 q 34 76 37 76 l 37 90 l 34 106 l 40 110 q 37 113 40 113 l 40 130 l 40 137 q 45 218 40 188 l 43 224 q 50 606 54 394 q 293 630 203 606 q 392 677 321 630 q 451 836 451 739 l 460 894 q 456 897 460 897 q 471 1032 465 1032 q 468 1039 471 1039 l 473 1130 q 496 1232 476 1184 q 683 1364 556 1340 q 512 1451 557 1379 q 479 1596 479 1510 q 476 1701 476 1672 l 476 1748 q 473 1786 476 1763 q 476 1789 473 1789 l 473 1806 l 473 1843 q 471 1856 473 1851 l 473 1863 q 439 2039 465 1985 q 313 2146 381 2137 q 66 2140 199 2160 q 68 2330 68 2326 q 51 2549 68 2368 l 51 2640 q 45 2667 45 2665 l 45 2738 q 40 2765 40 2762 q 37 2904 40 2799 q 85 2934 52 2909 q 217 2991 130 2971 q 265 3012 265 3006 l 277 3008 q 321 3022 292 3008 q 327 3015 321 3015 l 341 3022 q 344 3019 344 3022 l 358 3022 q 485 2991 412 3022 q 665 2819 546 2991 q 744 2572 709 2730 q 783 2245 767 2480 l 783 2224 l 781 2224 l 806 2005 q 803 1968 803 1975 l 812 1910 q 809 1849 812 1904 q 814 1809 809 1841 q 809 1697 809 1726 q 852 1482 804 1574 q 1002 1388 886 1429 q 1026 1348 1057 1362 q 853 1254 942 1326 q 814 1113 812 1203 l 814 1086 q 817 1073 814 1078 q 812 1019 815 1064 q 814 1008 812 1015 q 761 468 792 662 q 707 211 747 367 q 592 -59 656 41 q 499 -177 592 -78 q 254 -258 353 -258 z "}}}
